<svg id="Ebene_2" data-name="Ebene 2" xmlns="http://www.w3.org/2000/svg" viewBox="0 0 1920 660.8"><defs><style>.cls-1{fill:#020303;}.cls-2{fill:#fff;}</style></defs><g id="Ebene_1-2" data-name="Ebene 1-2"><path class="cls-1" d="M646.07,629.67c-.08,3.47-.3,6.87-.3,10.34,0,41.81.15,83.62.22,125.43,0,8,0,8-8,8H35.75c-9.6,0-19.2,0-28.81-.15a59.12,59.12,0,0,1-6.87-.67V629.67Z" transform="translate(0 -629.59)"/><path class="cls-1" d="M1196.4,629.67a10.85,10.85,0,0,1,2.51,7.68c-.22,6.87-.15,13.81,0,20.68.07,5.25.66,5.76,6,5.76H1223v17.07h-18.17c-5.76,0-6,.15-6,5.69,0,15.21-.08,30.43-.15,45.65a29.15,29.15,0,0,1,0,3.62c-.74,4.87-.44,5.32,4.5,5.32,5.54,0,11,.14,16.55,0,2.51,0,3.77.88,3.69,3.54-.07,3.47,0,6.87,0,10.34-.07,2.51-1,4.29-4,4.29-14.11,0-28.15-.15-42.26-.22-.37,0-.74-.3-1.4-.52V682c-5.25,0-10-.15-14.85,0-3.47.15-4.73-1.63-4.87-4.51-.23-3.47,0-6.87,0-10.34,0-2.66,1.4-3.54,3.91-3.47,3.69,0,7.31.07,11,0,5.17-.07,5.76-.59,5.46-5.54-.22-3.77-1.1-7.46-1.33-11.23-.14-2.29.52-4.58.82-6.94.37-3.47,1.7-7-.23-10.42h20.84Z" transform="translate(0 -629.59)"/><path class="cls-1" d="M1082.42,629.67c-.45.88-1.26,1.77-1.26,2.65.3,8.65.89,17.36,1,26,0,3.69,1.55,4.43,4.8,4.28,4.66-.22,9.38.08,14.11,0,3.33-.15,4.88,1,4.73,4.51-.22,4.21,0,8.49,0,12.56-4.21,3.1-8.5,1.55-12.71,1.25a30.3,30.3,0,0,0-7.31,0c-2.51.3-4.21,1.7-4.21,4.65,0,6.28-.22,12.64-.29,18.92v36.34h24.15v17.29c-4.28,2.43-8.72,1.25-13.22,1-8.72-.45-17.58-.15-26.3-.15h-6.72V681.15H1039.5V665.64c0-2.73,2-3.18,4.28-3.1h15.29V629.67Z" transform="translate(0 -629.59)"/><path class="cls-1" d="M829.93,629.67c.22,34.05.52,68.18.66,102.23,0,7.31-.51,14.63-.66,21.87,0,2.43-1,3.76-3.62,3.76H806.36c-.22-2.14-.51-3.91-.51-5.68q.1-56.62.29-113.25c0-3-.51-6-.74-8.93Z" transform="translate(0 -629.59)"/><path class="cls-1" d="M1143.66,629.67v21.79H1121c-2.37,0-3.11-1.63-3-3.7a74.33,74.33,0,0,1,.74-10.78c.44-2.51,1.92-4.88,3-7.31h22Z" transform="translate(0 -629.59)"/><path class="cls-1" d="M144.42,951.52v299.1c0,5.24,0,10.56-.15,15.8,0,3.92-1.55,5.25-6.21,5.25H.37c-.07-2-.3-4-.3-5.91q0-207.09-.07-414.19c0-7.53.66-15,4.14-21.5,5.61-10.48,13.22-19.28,26.07-21.27,5.54-.89,11.16-1.92,16.77-2q292.31-.12,584.53-.08c2.22,0,4.51,0,6.73.08,5.24.22,6.13.88,7.38,5.83a19.57,19.57,0,0,1,.3,4.21q0,56.29-.15,112.65c0,4-.74,7.91-1,11.9a21.27,21.27,0,0,0,.37,4.8c.67,3.69-.29,4.95-3.84,4.95q-65.6,0-131.12-.08H150c-2,0-4,.23-5.54.3Z" transform="translate(0 -629.59)"/><path class="cls-1" d="M322.44,1271.74H184.6c-6.2,0-6.2,0-6.2-6.42,0-31.47-.08-62.94-.08-94.41V988.82c0-5.1.15-5.32,6.35-5.32H302.28c5.09,0,10.19,0,15.29.3,4.28.15,4.8.81,4.95,5,.44,18.62,1.1,37.16,1.18,55.77q.23,93.53,0,187c0,13.07-.74,26.15-1.18,40.11Z" transform="translate(0 -629.59)"/><path class="cls-1" d="M1014.9,1009.73h87.17c0,5.61-.3,10.71.07,15.8.3,3.62-1.4,4.73-4.36,5-1.84.15-3.69,0-5.54,0-16.47-.29-33-.59-49.49-1-2.22,0-3.55.59-3.55,3v26.15c0,3.17,2.15,2.81,4.21,2.81h50v18.09c0,3.33-2.36,3-4.72,3-16-.15-31.84-.15-47.8-.22a19.75,19.75,0,0,0-2.66.22v34.27h64.2v19.65c-7.69.3-14.85.67-22,.74-15.29.22-30.58.37-45.87.59H1018c-3.17.08-4.5-1.25-4.28-4.36.29-5.61.59-11.3.66-16.91q.12-51.42.15-102.9c0-1.18.22-2.37.37-3.92Z" transform="translate(0 -629.59)"/><path class="cls-1" d="M1205.48,1136.93h-23c-1-4-1.78-7.09-2.51-10.19-5,3.32-9.76,6.35-14.48,9.45-.67.45-1.33,1.41-1.92,1.33-8.72-.52-17.81,2.37-26.23-2.21-5.91-3.18-10.78-7.32-14-13.45-5.1-9.6-8.12-19.43-8-30.43.07-10.71,1.11-21,6.06-30.81s12.11-18,22.53-19.94c12-2.22,24.82-1.7,34.12,9.08a19.16,19.16,0,0,0,3,2.07c1.33-7.31.44-14.11.59-20.83s0-13.74,0-20.9H1205c.3,6.79.74,13.59,1,20.38.15,7.1,0,14.19,0,21.28v64c-.07,6.73-.37,13.52-.66,21.13Zm-65.67-47c0,5.1-.37,10.12.08,15.14.51,5.91,2.29,11.45,8.2,14.48,6.87,3.62,14.18,3.33,21.12,1.11,5.18-1.63,10-5.32,11-11.16a109.66,109.66,0,0,0,.22-37.08c-1.55-8.79-8-14.18-16.91-14-2.22,0-4.51.07-6.73.14-10.12,0-16.25,5.4-17,15.59-.37,5.25,0,10.49-.07,15.81Z" transform="translate(0 -629.59)"/><path class="cls-1" d="M1152.45,948.93V821.28h23.12v41.45c4.87-3.26,9.23-5.84,13.22-8.94,3.4-2.66,7.46-2.29,11.23-3.4,8.86-2.66,16.25,1.18,23.27,5.76,5.54,3.62,8.42,9.16,9.9,15.66,4.28,18.32,1.69,36.94,2.36,55.4.22,5.91,0,11.75,0,17.66,0,2.51-.81,3.77-3.55,3.77-5.68-.08-11.45.14-17.13-.08-3-.15-5.69-3.91-4.21-6.35,2.88-4.58,1.47-9.46,1.69-14,.6-12.55.37-25.19.23-37.74a71.87,71.87,0,0,0-1.7-13.6c-1-4.5-4.73-6.5-8.87-7-12.19-1.7-22.31,3.1-26.07,15.88a18.71,18.71,0,0,0-.45,5.39q0,25.6-.07,51.12c0,5.91-.52,6.5-6.65,6.72-5.24.15-10.56,0-16.4,0Z" transform="translate(0 -629.59)"/><path class="cls-1" d="M1480.21,1079.16c-.74-4.8-1.11-8.56-1.92-12.26-1-4.65-4.36-7.24-9.16-7.24-3,0-6.13.15-9.16.15-6.36,0-10.71,3-12.12,9.16-.74,3.32-2.21,4.28-5.39,4.21-4.88-.15-9.83.07-14.7,0-4.21-.07-5.61-1.92-4.29-5.69,6.28-17.43,15.37-24.45,36.5-25.85a55.86,55.86,0,0,1,20.83,2.21c13.29,4.14,19.87,13.6,20.68,26.52,1,15,.59,30,.52,45.06,0,6.58-.3,6.58,6.57,6.58h3.7c6.2,0,6.72.44,6.35,6.5a30.62,30.62,0,0,1-1.26,8.2,4.72,4.72,0,0,1-3.62,2.22c-9.6.14-19.2,0-28.81,0-3.17,0-4.43-1.33-4.28-4.44.07-1.55,0-3.17,0-6-2.36,1-4.28,1.33-5.54,2.44a41.37,41.37,0,0,1-23.27,10.34,23.21,23.21,0,0,1-15.95-3.84c-7-5-12.78-11.16-14.63-20.17a21.63,21.63,0,0,1,.66-11.67c3.25-9.68,8.79-17.21,18.47-21.27a35,35,0,0,1,9.09-2.52c6.2-.66,12.48-.81,18.69-1.33,3.76-.29,7.53-.81,12.11-1.33Zm0,19.06a25.27,25.27,0,0,0-3.55-.59c-8.05.37-16.18.45-24.23,1.33-3.54.37-7.9,1.4-8.42,6.13a22.83,22.83,0,0,0,.67,8.35c.73,2.51,1.77,5.84,3.76,7,10.86,6.65,26.6.15,29-8.94,1.11-4.21,1.78-8.5,2.81-13.3Z" transform="translate(0 -629.59)"/><path class="cls-1" d="M1431.9,719.79a26.44,26.44,0,0,0,4.21,17c5.61,9.16,22.82,10.56,30.28,1.92a13.74,13.74,0,0,0,3.11-6.21c.44-2.51,1.55-2.88,3.62-2.88,5.31,0,10.63-.15,15.88,0,3.69.08,4.43,1.48,3.47,4.95-4.21,14.92-15,22.75-29.25,26.67-10.79,2.95-20.83.66-30.81-4-8.57-4-13.07-11.52-18.1-18.62-2.21-3.1-2.36-7.75-3.32-11.74-2.36-9.31-1.7-18.91-1-28.22.66-8.2,5.09-15.51,10-22.31,9.82-14,24.38-17.06,39.59-14.63,16.77,2.74,28.74,12.93,34,29.7,3,9.53,2.44,19.28,1.48,28.74-3.91-.3-7.16-.82-10.49-.82-16.1-.14-32.21-.14-48.31-.14a39.53,39.53,0,0,0-4.14.51Zm-.23-19c12.64.15,24.68.37,36.64.45,3.18,0,3-2.37,2.59-4.36-1.77-8-6-13.15-14.92-15.07-14.7-3.1-21.72,6.79-24.31,18.91Z" transform="translate(0 -629.59)"/><path class="cls-1" d="M1470.83,873.14v19.43c-7.69.22-15.3.59-23,.74-7.31.15-14.7,0-22,0-5.1,0-7.68,2.36-8.13,7.53-.22,2.66-.14,5.25-.22,7.91-.15,7.6-.44,15.21-.44,22.82,0,2.74.74,5.54.88,8.28.15,2.95,0,6,0,9.23H1394c-.29-42.4.67-84.29-.66-126.54-.3.22,0-.22.37-.22q39.88-.55,79.7-1a11.28,11.28,0,0,1,2.07.37v20.46h-7.54c-14.92,0-29.77,0-44.69.15-4.13,0-5,.74-5.09,4.8-.08,8.49,0,17,0,25.93h52.59Z" transform="translate(0 -629.59)"/><path class="cls-1" d="M1305.43,908.23h-23.19c-7.39,0-7-.07-7.47,7-.44,6.65,2.59,11.15,7.54,14.84,5.69,4.29,16.92,4,23.34-.07a14.86,14.86,0,0,0,6.36-8.86c.66-2,1.69-2.88,3.91-2.81,5.32.15,10.64-.07,15.88,0,3.18,0,4.07,1.77,3.1,4.87-4.65,14.34-14.7,23.13-29,27a42.31,42.31,0,0,1-27.48-2.07,74,74,0,0,1-13.22-7.24c-2.14-1.47-3.47-4.28-5-6.57-9-13-11.45-27.85-9.53-42.85,1.55-12.41,6.8-24.22,17.28-32.35,6-4.65,13-8,21.13-7.68,5.84.29,11.67.22,17.36,1.11A28.88,28.88,0,0,1,1323,861.1c4.8,4.8,9.68,9.68,11.89,16.18a47.31,47.31,0,0,1,2.29,12c.37,5.24,0,10.56.08,15.81,0,3.1-1.77,3.62-4.36,3.62h-27.55v-.45Zm-30.36-18c1.7.15,3.47.37,5.24.37h30.51c2.15-.14,2.29-1,2.29-3.32.15-6-3.47-9.53-7.09-13.37-4.06-4.28-9.9-3.84-14.62-3.62-10,.44-16.55,9.16-16.4,19.94Z" transform="translate(0 -629.59)"/><path class="cls-1" d="M1917.07,921.53c.45,7.23-3.39,12.7-7.6,17.72-9.68,11.53-22.54,15.52-37.16,14.48a59.34,59.34,0,0,1-14-2.58c-2.74-1-4.95-3.7-7.32-5.76-9.3-8.28-16.25-17.81-17.13-30.73-.37-4.95-1.56-10-1.11-14.93,1-12.18,3-24.23,12.48-33.46,2.44-2.36,4.73-4.8,7.17-7.16a10.42,10.42,0,0,1,3.1-2.37,60.6,60.6,0,0,1,28.51-2.81c10.64,1.33,19.58,7.17,26.23,15.89,2.07,2.73,4.43,5.32,5.83,8.34a23.82,23.82,0,0,1,2.15,9c.37,6,2.36,11.82,1.55,18-.74,5.61-.45,6-6,5.84-11.52-.3-23-.89-34.64-1.19-6.13-.14-12.26,0-18.32,0-4.88,0-5.17.52-4.06,5.18a11.47,11.47,0,0,1,.29,3.54c-.29,8,4.43,12.78,11.23,15.66s13.3,1.63,19-2.66c3-2.21,5.84-4.87,6.8-8.86.74-3,3.84-3,5.69-3,5.54.08,11.08,1,17.36,1.63ZM1893.8,892.2c.15-6.5-.81-11.6-6.57-15.37a26.44,26.44,0,0,0-9.16-3.91c-6.43-1.48-12.11-.3-16.25,4.87-2.22,2.74-3.62,6.28-5,9.53-1.85,4.44-1.48,4.88,3.1,4.88h33.83Z" transform="translate(0 -629.59)"/><path class="cls-1" d="M1490.62,854H1515v14c0,17.29.15,34.5-.07,51.78,0,4.51,1.47,8.57,5.17,10.12,5.83,2.44,12.26,3.47,18.32,0,7.6-4.28,11.08-10.86,11-19.57-.14-17.07,0-34.13,0-51.19v-5h24.08c.45,31.77,1.33,63.46-1.18,95.59h-22.6V938.15c-1.41,1-2.44,1.25-2.73,1.92-2.37,4.58-6.8,6.57-11.09,8.86-7.9,4.14-16.25,3.1-24.22,1.4a27,27,0,0,1-13.45-7.46c-3.25-3.39-4.65-8.71-6.13-13.44a37.47,37.47,0,0,1-1.26-11.15c-.07-21.28,0-42.55,0-64.35Z" transform="translate(0 -629.59)"/><path class="cls-1" d="M853.42,758.2V662.61h21.2c2.07,0,3,1,3,3,0,1.18.07,2.43.15,3.69,2.36,1.26,4.13.81,6-1,5-5,11.15-7.17,18.25-6.94,4.43.14,9.08-.37,13.37.66,11.23,2.73,17.73,10.49,19.94,21.64a83.43,83.43,0,0,1,1.55,14.85c.3,18.25.3,36.49.45,54.74,0,6-.59,6.94-6.43,6.72-4.36-.15-8.79-1-13.15-1.11-3.47,0-3.84-1.47-3.84-4.5.15-16.62.22-33.24,0-49.86a112.86,112.86,0,0,0-1.77-17.29,8.48,8.48,0,0,0-7.39-7.24c-7.17-.74-14.41-1.25-20.54,4.21a16.63,16.63,0,0,0-6.05,11.16c-.82,9.38-1.26,18.83-1.26,28.29s.74,18.54.89,27.85c.14,6.57-.3,6.79-6.87,6.79H853.72Z" transform="translate(0 -629.59)"/><path class="cls-1" d="M1297.23,664.09h22.38v94.48c-7.31.29-14.55.66-21.79.74-2,0-3.47-3.4-2.66-5.47.59-1.4,1.26-2.73,2.44-5.39-2.14,1-3.32,1.18-3.91,1.85-4.66,5.31-10.79,8.19-17.14,10.93s-12,.74-18-1c-1.92-.59-3.62-1.85-5.54-2.51-9.83-3.48-15.59-16.55-15.37-25.64.15-4.5-1.4-9-1.4-13.59,0-8.42.74-16.77,1-25.19.15-4.43.22-8.94,0-13.37-.15-3.77-.89-7.53-1.18-11.3-.3-4,.22-4.8,4.13-4.88,6.5-.14,13,0,19.8,0a28.2,28.2,0,0,1,.44,3.11c0,20.09-.14,40.11,0,60.2,0,2.07,1.33,4.21,2.15,6.28.14.44.88.81,1,1.25,1.33,4.36,3.69,7.17,8.86,7.24,6.87.15,13.15,0,18.18-6a29.4,29.4,0,0,0,6.79-20.24c-.29-17-.07-34-.07-51.49Z" transform="translate(0 -629.59)"/><path class="cls-1" d="M1725.9,854.16h24.52c-.51,32.35,1.19,64.41-1.62,97.36h-22.61c-.22-4.8-.44-9-.66-13.67-1,.52-2.07.67-2.22,1.18-3,8.13-10.56,9.9-17.5,12.34-11.31,4-21.28-.3-29.77-6.94-4.58-3.62-6.28-10.35-7.76-16.48-2.14-9.16-1.11-18.47-1.18-27.62-.22-14.78,0-29.63,0-44.84h23.27v8.12q0,28,.22,56c0,8.27,5.47,13.22,13.66,13.51,6.21.22,11.31-1.4,15.81-5.76,3.92-3.77,5.91-8,5.84-13.37-.15-17.65,0-35.31,0-53v-6.87Z" transform="translate(0 -629.59)"/><path class="cls-1" d="M1769.93,1044.59v13.52c.88-.29,1.69-.29,1.84-.59,8.35-16.55,30.14-17.73,43.07-11.15,8.42,4.28,12.19,12,14,20.75a53.69,53.69,0,0,1,.74,10.94c.07,14,.15,28,0,42,0,6.42-.67,12.78-1,19.72h-21.34c-.08-1.11-.37-2.58-.37-4.14.14-18.68.51-37.3.51-56a45.65,45.65,0,0,0-1.92-11.74,7.77,7.77,0,0,0-3.69-4.29c-10.34-5.91-25.63-1.48-29.25,8.87a34.18,34.18,0,0,0-2,10.56c-.22,13.81-.07,27.63-.15,41.37,0,3.84-.36,7.68-.29,11.52,0,3-1.11,4.51-4.36,4.36-4.51-.15-9,0-13.44,0-4.07-.08-5.54-1.92-5.54-6.13.22-27.41.44-54.74.59-82.15,0-1.62-.22-3.25-.22-4.87,0-2.88,1.84-4.51,4.58-4.29,5.76.59,11.52,1.19,18.17,1.85Z" transform="translate(0 -629.59)"/><path class="cls-1" d="M1308.68,1137.82h-16.32c-5.84-.08-6.28-.59-6.51-6.65a23.7,23.7,0,0,0-.29-3.1c-4.14-.37-6.35,2.66-8.72,4.8a24,24,0,0,1-14.92,6.13c-2.88.15-5.76-.07-8.57.07-7.24.45-12.85-2.66-17.51-7.68a36.48,36.48,0,0,1-9.75-25c-.22-20.91,0-41.81,0-63.09h23.72c.14,21.5.29,42.85.51,64.27.08,10.93,8.94,17.06,19.51,13.52,11.52-3.84,16.17-9.75,16.32-21.79.15-16.62,0-33.32-.07-49.94v-6.2h22.6v94.7Z" transform="translate(0 -629.59)"/><path class="cls-1" d="M956.17,899.51a52.33,52.33,0,0,1-3.62,24.08c-5.39,12.93-14.55,21.28-28.73,24.46-5,1.1-9.75,2.21-14.7,2a40.51,40.51,0,0,1-25.56-10.12A50.21,50.21,0,0,1,867.75,911c-1.62-8.94-.81-17.58.52-26.23.81-5.46,3.84-10.63,5.83-15.95.82-2.15,1-5,2.59-6.21,4.95-3.69,10-7.83,15.81-9.75,15.21-5.24,30.43-4.21,44.39,4.43a40.4,40.4,0,0,1,10.57,9.83c3.84,5.09,6.2,11,7.9,17.36,1.33,5.09.3,10,1,14.92Zm-63.38,0h-.66v13.37c.15,9.46,9.08,18.4,18.83,18.91,11.09.59,21.57-7.16,22.09-17.13A277,277,0,0,0,933,884.3c-.59-9.76-5.69-15.22-15-16.92a33.75,33.75,0,0,0-12.19,0c-7.09,1.4-13.81,9.53-14.11,15.36-.29,5.54.67,11.16,1.11,16.7Z" transform="translate(0 -629.59)"/><path class="cls-1" d="M974.27,729c1.26,7.75,6.58,12.41,13.81,13.81a20.91,20.91,0,0,0,19.8-6.28c3.84-4.21,0-12.63-6.35-14.18-8.79-2.07-17.8-3.55-26.37-6.28-9-2.88-16.62-8.42-19.43-17.95-3.69-12.93,2-28.81,16.77-34.13,10.64-3.77,21.27-2.29,32.06-1.85,6.2.23,9.53,6.36,15.58,5.54.23,0,.6.45.74.74,3,6.21,7.69,11.67,7.61,19.21,0,3.32-1.11,4.28-4.21,4.21-4.5-.15-9-.22-13.44,0-3.11.15-4.07-1.11-5-3.92-3-10.19-17.51-13.44-25.19-5.9-4.88,4.8-4.58,9.75.81,14,3.4,2.66,7.46,3.39,11.6,4.36,7.9,1.84,15.73,4.06,23.64,5.9,7.6,1.78,11.08,7.39,13.37,13.82,3.32,9.23,3.17,18.54-3.18,26.59a31.59,31.59,0,0,1-10,8.5,50.46,50.46,0,0,1-33.69,5.17,49.46,49.46,0,0,1-22.53-10.64c-3.25-2.59-6.5-5.91-7.53-11a45.31,45.31,0,0,1-1.18-7.38c-.15-3.62,1.1-4.44,4.21-4.14,5.83.59,11.59,1.11,18,1.77Z" transform="translate(0 -629.59)"/><path class="cls-1" d="M1638.81,1093a57.77,57.77,0,0,1,10.19-34.57c6.72-9.61,16.55-15.89,29.25-15.66,8,.14,16-.59,23.79,2.36,13.22,5,21.57,14.4,25,27.78a77.59,77.59,0,0,1,2.36,17.06c.37,9.6-2,18.91-5,27.92a5.24,5.24,0,0,1-.89,1.55c-7.9,10.49-17.35,18.18-30.87,21-12.49,2.59-23.42-.66-33.84-6.35a31,31,0,0,1-9.23-8.57c-7.39-9.53-10.41-20.61-10.78-32.5Zm67.88-2.14h-.59c0-4.44.3-8.94,0-13.37-.59-7.47-3.77-13.3-11.3-16.11a30.91,30.91,0,0,0-15.51-1.33c-7.91,1.11-15.37,8.87-15.52,15.59-.22,9.9-.29,19.87-.07,29.77.15,8.27,8.13,17.95,16,18.91,11.74,1.4,22.08-1.7,25.33-16,1.26-5.62,1.19-11.6,1.78-17.36Z" transform="translate(0 -629.59)"/><path class="cls-1" d="M888.43,1088.47c-.51,9.9-2.21,19-6.64,27.92a35.73,35.73,0,0,1-22.53,19.14c-15.15,4.58-30.14,4-43.66-6-7.83-5.76-12.49-13.59-14.92-22.53a68,68,0,0,1-2.44-21.12c.66-14.48,5-28,16.92-37.6,6-4.73,12.7-8.42,20.83-8.06a10.25,10.25,0,0,0,3,0c7.53-3.17,14.7.3,21.42,2.15,12.85,3.62,20.53,13.37,24.45,25.63C887,1074.58,887.33,1081.68,888.43,1088.47Zm-66,1.48h.15v15.22c0,6.72,4,11.37,10.27,14.55,4.65,2.36,9.53,1.33,14.11,1.85,8.57,1,16.84-7.47,17.28-18.18.3-7.9.45-15.88,0-23.71-.51-8.27-2.43-16.1-10.85-20.39-6.28-3.17-12.86-5.09-19.43-1.47-6.8,3.69-11.6,9.16-11.53,17.58V1090Z" transform="translate(0 -629.59)"/><path class="cls-1" d="M1561.83,1043.49h22.83v18.09h-23a33.45,33.45,0,0,0-.45,4.36c-.15,17.21-.15,34.5-.37,51.71,0,2.51.59,3.77,3.33,3.69,6.72-.07,13.44,0,21,0-.37,6.14-.66,12.12-1,18.18h-41.37c-5.69,0-5.69-.08-5.69-5.84v-71.51H1524c-4.58,0-5-.37-5.17-4.72s0-8.87,0-14.11h13.67c5.46,0,5.39.15,5.32-5.17-.08-6.73-.15-13.37-.15-20.1a68.29,68.29,0,0,1,.66-7.09c6.58,0,12.86.15,19.13,0,3.4-.15,4.22,1.48,4.22,4.36-.08,7.9-.08,15.81-.08,23.71,0,1.18.15,2.37.22,4.29Z" transform="translate(0 -629.59)"/><path class="cls-1" d="M1136.19,930.46v17.95h-41.73c-5.76,0-5.91,0-5.91-5.61V871h-12.19c-5.69-.15-6.13-.67-6.21-6.28q-.06-13.15,13.08-13.22h5.24V820.1h24.46v32.65h23.12v16.7h-22.46c-1.77,11.82-2.59,23-1.11,34.49.89,7,.3,14.19.3,21.28v5.24h23.41Z" transform="translate(0 -629.59)"/><path class="cls-1" d="M915.77,1040.31v-30.66h47.79c0,4.8-.07,9.24,0,13.59.07,3.11-1.11,4.36-4.36,4.29-5.32-.22-10.56-.15-15.88-.22-5,0-5.54.44-5.61,5.46q-.15,8.58,8.64,8.57c3.69,0,7.31.08,11,0,2.58,0,3.69,1.11,3.69,3.62v13.59H948.42c-10.86.15-9.53-1.55-9.61,9.16-.07,18.69.08,37.31,0,56,0,4.36-.81,8.64-1.33,13.22-5.91,0-12-.22-18,0-3.62.15-4.58-1.85-4.58-4.65.07-22.68.22-45.43.44-68.11,0-5.32.22-5.39-5.24-5.25-4.51.08-8.94,0-14,0v-15c0-3,1.62-3.77,4.28-3.7,4.88.08,9.75,0,15.37,0Z" transform="translate(0 -629.59)"/><path class="cls-1" d="M1605.05,872c-5,0-9.61-.14-14.26,0-3.47.15-4.73-1.11-4.58-4.58.22-4.36,0-8.79,0-13.66,5.25,0,10.12-.15,15,0,3.32.14,4.28-1,4.13-4.21-.29-7.46-.29-15-.29-22.53,0-4.58.37-4.95,4.8-5,4.65-.07,9.38-.07,14.11,0s5.1.67,5.1,5.4v26h23.12v17.06c-3,.44-6.13,1-9.39,1.33a57,57,0,0,1-6.13,0c-8.57,0-8.34,0-8.27,8.42,0,14-.3,28-.44,42v9h23.86v18.47h-35.46c-3.62,0-8.5,1.11-10.49-.74-1.85-1.7-.66-6.72-.66-10.27V871.81Z" transform="translate(0 -629.59)"/><path class="cls-1" d="M794.55,869.6V851.72h19.13V820c5.46-.22,10.49-.37,15.51-.59,7.9-.3,15.81-.74,23.71-.82,2.15,0,4.73.15,6.28,1.33s2.88,4.22,2.22,5.25c-2.29,3.77-.89,7.46-.74,11.6h-23v14.25c6.87.59,13.89,1.19,21.72,1.78v13.59c0,3.1-2.66,3.18-4.73,3.25-4.06.22-8.2,0-12.26,0-5.47,0-5.84.66-5.25,6.13.3,2.81-.07,5.69-.07,8.5,0,17.65.15,35.31.22,53,0,1.85.15,3.69,0,5.47-.37,4.21-1.4,5-5.61,4.95H814.12c-.15-2.22-.44-4.21-.44-6.14,0-22.75,0-45.43.07-68.18,0-3.1-1-3.84-3.84-3.76-4.87.14-9.75,0-15.29,0Z" transform="translate(0 -629.59)"/><path class="cls-1" d="M1375.9,741.8h16.92c5.61,0,5.76.22,5.83,5.84v11.89h-46.46V682c-5.32,0-10.12-.15-15,0-3.32.15-5-1-4.8-4.51.3-4.5.52-9,.82-13.81h19.87c.74-10.79-3.7-21.5.37-31.25,6,.22,11.22.37,16.47.52,4.8.15,5.32.52,5.47,5.17.14,6.5.07,13,.14,19.5v6h16.18c5.91,0,8.79,3,8,8.71-.44,3-1,5.84-1.77,9.53-5.47,0-11.31.15-17.14,0-3.25-.07-5,.74-4.88,4.29.08,18.24,0,36.49,0,55.4Z" transform="translate(0 -629.59)"/><path class="cls-1" d="M1409.51,1074.44h-20.46c-3,0-3.54-2.15-3.91-4.44-1.19-7.31-6.28-10.41-12.86-11.22s-13.66-.74-18,5.61a18.14,18.14,0,0,0-3.47,9.31c-.45,11.52-.45,23.12-.08,34.72.22,7.61,7.46,13.59,15.15,13.59H1372a12.83,12.83,0,0,0,10.63-5c2.44-3,5.25-5.84,3.62-10.57h23.13c.81,4.8-1.7,8.79-3.18,12.86-2.44,6.64-7.54,11.45-13.52,14.84-17.65,9.9-34.87,9.16-51.19-3.25a25.85,25.85,0,0,1-7.24-8.94,62.12,62.12,0,0,1-7.53-21.27,65.31,65.31,0,0,1-.23-17,61.77,61.77,0,0,1,10-27.41,35.17,35.17,0,0,1,24.3-15.21c14.26-2.29,27.93-.52,38.64,10.27a34.33,34.33,0,0,1,10.12,23Z" transform="translate(0 -629.59)"/><path class="cls-1" d="M1527.56,1219.07c-2.51,7.69-5.1,15.3-7.46,23-2.44,7.9-4.66,15.81-6.87,23.78-.74,2.74-2.15,4.51-5.17,4.73s-5.25-1-6.28-3.84c-1.78-5-3.47-9.9-4.88-15-2.51-8.93-4.73-18-7.16-26.88a42.63,42.63,0,0,0-2.44-5.62c-.44.15-1,.22-1.41.37v50.75h-11.22v-3.77c.07-20.46.14-41,.22-61.46,0-4.95.22-5.09,5.17-4.95,1.4,0,2.88.15,4.28.15,8.65.15,9,0,11.6,8.35,2.73,8.86,4.65,18,7.09,27,1.18,4.44,2.66,8.8,4.29,14.19,1.4-1.77,2.58-2.51,2.8-3.55q5.1-20.61,10.05-41.22c.67-2.58,2.14-4.13,5.1-4.06,5.09.15,10.19,0,15.88,0,.15,2.44.44,4.58.44,6.72,0,18.69.15,37.31,0,56,0,2.21-.81,5.83-2.07,6.2-3,.89-6.42.3-9.6,0-.52,0-1.11-2-1.18-3.1-.07-13.82-.15-27.56,0-41.37,0-2,.74-4,1.11-6-.74-.15-1.41-.37-2.14-.52Z" transform="translate(0 -629.59)"/><path class="cls-1" d="M1794.52,951h-22.75v-7.31q0-42-.07-84c0-5.1-.08-5.25,5-5.54,10.19-.67,20.39.29,30.58.07,5.83-.07,11.67.52,17.73.89V873c-1.77.15-3.55.37-5.32.37-6.35,0-12.63-.15-19,0-6.13.08-6.2.22-6.2,6.13,0,8.13.22,16.18.3,24.31,0,13.81.07,27.62.07,41.36,0,1.78-.22,3.62-.37,5.91Z" transform="translate(0 -629.59)"/><path class="cls-1" d="M998.21,870.48c-1,23.79-.82,46.76-.45,69.81v4.28c0,2.29-1.18,3.18-3.47,3.18-5.47-.07-11-.22-16.47,0-3.33.15-4.14-1.18-4.07-4.28.15-10.57,0-21.06.15-31.62,0-6.5.3-12.93.22-19.43,0-3.32-.81-6.65-.66-10,.44-10,1.11-20,1.7-30.21h51.26c3.11,5.09,2,10.19,1.92,15.14,0,3.4-2.88,3.1-5.39,3.1Z" transform="translate(0 -629.59)"/><path class="cls-1" d="M1143.66,664.38v6.21c-.15,21.27-.23,42.62-.45,63.9,0,3.76-.74,7.53-.66,11.3,0,2.73.81,5.47,1.11,8.27.36,3.25-.89,4.88-4.44,4.8-5.32-.14-10.63-.07-16,0-2.51,0-3.55-.73-3.62-3.47-.15-6.42-1-12.78-1.11-19.2-.07-2.74.59-5.47,1-8.28.15-1,.52-2.14.15-2.95-1.92-4.73-.67-9.31,0-14,.37-2.22-.3-4.58-.52-6.87-.07-.89-.66-1.78-.44-2.52,3.54-11.3.88-22.89,1.77-34.27.07-1.33,0-2.73,0-4.58,7.9.07,15.51-1.26,23.2,1.7Z" transform="translate(0 -629.59)"/><path class="cls-1" d="M1622.92,1044.3v85.91c0,5.91-2.88,8.79-8.71,8.79h-16c.44-31,.81-62.64,1.25-94.7h23.49Z" transform="translate(0 -629.59)"/><path class="cls-1" d="M1187.09,1228.38c-.59,4.14-.74,8.13-1.77,11.89-.74,2.74-2.07,6.06-4.21,7.54-5.91,4.14-12.34,7.39-20.1,4.8a6.83,6.83,0,0,0-3.62-.37,3.82,3.82,0,0,0-2.51,2.22,3.4,3.4,0,0,0,1,3.1,16.43,16.43,0,0,0,6.13,2c4.65.23,9.38-.29,14,0a33.59,33.59,0,0,1,10,2.22c3.62,1.48,5.39,4.51,5.54,8.64.29,10.57-1.7,13.74-12,17.22-9.53,3.17-19.14,4.21-28.67-.15a18.6,18.6,0,0,1-5.68-4.21c-3.7-3.92-3.92-6.87-.15-10.79,2.88-3,3.4-5.61,1.62-9.31s-.14-7.16,2.37-10,2.51-5.1.66-8.2a18.5,18.5,0,0,1-2.44-6.72c-1.18-10.56,4.36-16.92,16.26-17.51a36.54,36.54,0,0,1,13,1.33,8.81,8.81,0,0,0,8.94-1.47c1.62-1.19,3.39-3.92,5.54-1.85,1.33,1.25,1.62,4,1.55,6,0,3-2.66,3.1-5,3.18-.3,0-.59.37-.67.44Zm-19,41.66v.6c-3,0-6.21-.45-9.16.14a6.51,6.51,0,0,0-4.14,3.62c-.44,1.26.66,3.62,1.85,4.58a14.07,14.07,0,0,0,6,2.37,20.48,20.48,0,0,0,6.72,0c3.25-.52,6.43-1.7,9.68-2.37,2.81-.59,2.58-2.58,2.66-4.65s-1.11-2.59-3-2.81c-3.55-.37-7.09-1-10.56-1.62Zm-.82-40.92c-5.17,0-7.46,2.36-7.61,8s1.93,7.75,7.24,7.9c5.84.15,8.57-2.66,8.57-8.86,0-5-2.21-6.87-8.2-7Z" transform="translate(0 -629.59)"/><path class="cls-1" d="M1378.93,1230.52v-25.19c0-4.95,0-4.95,5.25-4.21a20.29,20.29,0,0,0,3,0h3.48a37.24,37.24,0,0,1,.51,4.73q0,29.48-.07,59c0,2.14.66,5.24-2.36,5.47s-6.43,1.69-9.16-1.26c-3.77-4.06-3.77-4-8.06-.22-.59.52-1.1,1.25-1.84,1.48-7.46,3-17.14-.37-21.5-7.39-7.83-12.63-5.91-25.78,1.48-36.49,5-7.32,18.69-9.09,25.41-.82,1,1.19,1.85,2.44,3.77,4.88Zm.07,15.37c.89-6.43-2-11.67-8.64-14.85-3.54-1.7-9.53-.44-11.89,2.22-5.25,5.83-5.47,18.76.15,24.6,1.92,2,5.24,4,7.75,3.76,8.79-.66,12.71-5.68,12.71-15.73Z" transform="translate(0 -629.59)"/><path class="cls-1" d="M818.48,1270.64v-53.49c0-4.58-.52-5-5.32-5H796.24c-.59-3.32-1.33-6.2-1.62-9.08-.22-2.22,1.26-3.18,3.4-3.1,3.25.07,6.5.22,9.75.22h45v11.89H837.32c-6.65,0-6.87.15-6.87,6.72v44.4c0,7.39,0,7.39-7.32,7.39Z" transform="translate(0 -629.59)"/><path class="cls-1" d="M1703.74,1249.58c2.88,12.71,13.22,15,19.43,10.49,1.1-.81,2.51-1.92,2.65-3,.45-3.1,2.66-3.25,4.81-3.47,4.72-.44,6.2,1.92,4.28,6.28-4.36,9.9-18.25,15.22-28.66,10-9.09-4.58-13.45-11.59-13.52-21.57,0-6.28.59-12.26,4.21-17.73,4.14-6.28,9.31-9.67,17.29-10,11.89-.59,21,6,22.9,19.57a10.28,10.28,0,0,0,.66,1.63c1.7,6.13,1,7-5.32,7.16-9.3.23-18.61.52-28.58.82Zm20.68-9.38c0-6.28-2.29-9.9-6.35-9.75-3.62.15-7.31-1-11,1.7-3.1,2.29-1.4,5.24-3.32,7.16C1710.76,1244,1717.33,1239.09,1724.42,1240.2Z" transform="translate(0 -629.59)"/><path class="cls-1" d="M1863,1253.79c-.59,11.75-12.48,20.1-23.93,17.73-17.07-3.47-23.2-20.61-18.25-35.09,3.4-10,9.9-15.21,20.83-16.1a19.19,19.19,0,0,1,12.49,3.25c3.62,2.44,6.87,5.69,7.9,10.34.67,3,2.07,6,2.29,9.09.44,5.32,0,5.54-5.24,5.54h-27.41c-.37,6.94,4.14,11.82,10.49,12.26,4.73.3,8.79-.37,11.67-4.58,2.14-3.25,5.39-3,9.24-2.51Zm-11.3-14c.29-6.79-3-10.41-9.16-10.71-5.32-.22-11.67,5.25-12,10.71Z" transform="translate(0 -629.59)"/><path class="cls-1" d="M1445.64,1248.92h-32.88c-.59,5.46,2.22,9.75,7.39,12.26a10.74,10.74,0,0,0,12.19-2.36c1.7-1.63,3.32-3.62,5.39-4.51a6.35,6.35,0,0,1,5.39.66c.74.52.6,3.33,0,4.73-5.09,12.26-26.37,17.88-37.3,3.77-10.34-13.37-6.72-30.21,5.69-40,11.23-8.86,30.51-.37,32.5,13.67.52,3.62,1,7.31,1.63,11.82Zm-12.93-9c.81-4.51-1-7.47-4.51-9.61a9.83,9.83,0,0,0-11.3,1c-2.36,2.21-6.28,4.06-4.21,8.57Z" transform="translate(0 -629.59)"/><path class="cls-1" d="M965.48,1270.27v-22c0-6.87.15-13.81.3-20.68,0-2.14-.67-5.1,2.36-5.47,2.14-.22,4.65.82,6.72,1.78,1.11.51,1.7,2.06,2.51,3.17,3.18-1.84,5.91-4,9-5.1,13.81-4.8,21.42,3.18,22.38,14.56.81,9.82.59,19.72,1.11,29.62.14,3.62-1.26,4.73-4.58,4.51-2.81-.15-5.62,0-8.72,0,0-9.24.07-17.88,0-26.6,0-2.51-1-5-1-7.61,0-5.46-4.81-4.8-7.76-5.76a6.45,6.45,0,0,0-7.68,3.55c-1.63,3.32-3.25,6.65-2.88,10.78.59,6.43.07,12.93,0,19.43,0,5.84-.37,6.13-6.28,6.13C969.32,1270.56,967.77,1270.41,965.48,1270.27Z" transform="translate(0 -629.59)"/><path class="cls-1" d="M1618.49,1269.9a14.9,14.9,0,0,1-2.21.66q-10,.45-9.83-9.45c.07-10.94.15-21.87.3-32.88,0-2.36-.67-5.24,2.51-6,3-.82,6.65-.89,8.27,2.14,1.85,3.47,3.4,3,5.25.66,3.32-4.13,7.75-4.87,12.55-4.43,6,.59,10.49,3.33,12.12,9.31a54.67,54.67,0,0,1,2.14,12.34c.3,7.68,0,15.43,0,23.12,0,2.14-.15,4.13-2.95,4.28a60,60,0,0,1-8.13.22c-.44,0-.89-2.51-1-3.84-.07-6.72,0-13.37-.07-20.09a44.06,44.06,0,0,0-1.11-8.79c-.81-4.06-3.84-6.72-7.32-6.8-4.58,0-9.52,3.33-9.89,7.39-.59,6.65-.67,13.37-.89,20-.15,4,0,8,0,12.11Z" transform="translate(0 -629.59)"/><path class="cls-1" d="M904.76,1248.7H870.48c1.48,9,9.68,14.47,17.44,12,1.47-.44,3.4-1.4,3.91-2.58,2.14-5.32,6.28-4.88,10.57-4.29,1.55,5.54-1,10.71-7,14.19-14.92,8.56-30.81,1.7-34.94-15.15-2.66-10.93,2.14-23,10.78-28.88,12.41-8.35,28.74-.81,32.06,13.67C904,1241,904.24,1244.49,904.76,1248.7Zm-13.08-8.57c1.11-7-.36-8.94-6.42-9.75a20,20,0,0,1-2.88-.67,9,9,0,0,0-10.71,6.8c-.45,2.14.07,3.54,2.66,3.54h17.35Z" transform="translate(0 -629.59)"/><path class="cls-1" d="M1573.8,1270.56c-10,2-21.79-8.64-23.12-22-.67-7.09,0-13.74,5.17-20,6.5-7.9,14.48-9.23,23.27-7.54,9.31,1.85,14.62,8.2,17.06,17.51,1.78,6.8,1.78,13.37-1.4,19.21-4.36,8.12-10.86,14-21,12.85Zm11.15-23.93h0c0-1.85.15-3.62,0-5.47-.59-5.17-4.58-10.12-8.27-10.78-5.76-1-8.94.73-12.41,6.13-3.77,5.76-3.25,11.74-.89,17.58,1,2.58,3.77,4.5,5.69,6.65,2.59,2.8,5.25.22,7.76,0,5.17-.45,7.61-3.62,8.12-10a39.41,39.41,0,0,0,0-4.21Z" transform="translate(0 -629.59)"/><path class="cls-1" d="M1115.58,1270.64c-9.3,2.06-18.76-7-22-18.25-3.47-12.19,3.1-25.34,14.85-30.58,5.32-2.37,18.61-1.33,23.56,4.5,7.46,8.87,9.39,18.54,6.06,29.4-2.58,8.28-10.93,16.33-22.46,14.93Zm-11.89-23.5c1,3.18,1.85,6.36,3,9.46,1.55,4.14,5.17,5.39,9.16,5.39,4.21,0,7.61-1.62,9.46-5.83a22.68,22.68,0,0,0,.14-19.43c-2-4.51-4.87-6.43-9.6-6.28s-7.68,1.92-9.38,6.72c-1.11,3.1-1.77,6.36-2.81,10Z" transform="translate(0 -629.59)"/><path class="cls-1" d="M1294,1270.64c-11,0-19.13-7.32-21.79-18.62-2.29-9.6,0-17.51,6.35-24.82,9.75-11.45,31.54-7.76,37.08,6.94,3,7.91,2.66,15.37.45,22.9C1313.63,1265.32,1304.25,1270.64,1294,1270.64ZM1305.5,1247h0c0-1.85.15-3.7,0-5.47-.51-5.54-4.5-10.49-8.71-11.08-5.76-.81-10.49,2-13,7.68-2.66,6.06-1.85,12,.88,17.73,2.15,4.51,7.09,7,11.31,6.06,6.2-1.4,9.38-5,9.52-10.71V1247Z" transform="translate(0 -629.59)"/><path class="cls-1" d="M1062.69,1246c1.11,11.23-4.35,18.1-13.29,22.61a20.77,20.77,0,0,1-20.32-.22c-8.64-4.81-12.26-12.64-12.92-22.39-.52-7.16,1.92-13,6.64-18.1,10.57-11.45,28.59-9.38,36.57,4.07,2.66,4.5,4.21,9.16,3.32,13.89Zm-12.18,1.26c0-1.85.14-3.69,0-5.47-.45-5.46-4.44-10.71-8.5-11.37-5.84-1-10.78,2-13.3,7.9-2.66,6.13-1.62,12,1,17.73a10.35,10.35,0,0,0,11.45,5.76c6.06-1.48,9-4.8,9.31-10.27Z" transform="translate(0 -629.59)"/><path class="cls-1" d="M1870.24,1221.88h4.51c2.14-.15,4.72-1.18,6.13-.22,1.33.81,1.25,3.77,2,5.69,2.81,7.68,5.69,15.36,8.5,23,.51,1.4,1.11,2.88,2,5,1.26-1.92,2.37-3.1,2.88-4.5,3-8.2,5.84-16.55,8.79-24.75,1.41-3.84,5.84-5.83,8.87-4.58,1.92.81,2.36,1.77,1.7,3.62-2.07,6-4,12-6.28,17.88-5.1,13.29-10.34,26.52-15.44,39.81-2.51,6.58-6.28,7.91-13.45,4.21,1.56-3.1,3.25-6,4.51-9.23,1.85-4.58,2.44-9.16.52-14-4.88-12.34-9.61-24.75-14.33-37.16-.52-1.26-.52-2.73-.89-4.8Z" transform="translate(0 -629.59)"/><path class="cls-1" d="M1263.25,1250.17c1.11,9-4.14,17-12.78,20.24s-16,.45-22.23-5.31-8.5-13.52-8.57-21.72c0-7.91,9.31-21,16.69-22.46a42,42,0,0,1,16.33.37c5.69,1.11,11.52,10.34,11.37,16.4a4.47,4.47,0,0,1-2.14,3.47c-1.77.59-3.91,3-5.91.37a12.16,12.16,0,0,1-2-3.55c-1.63-5.09-5.4-7.23-10.42-7.6-5.32-.37-8.12,2.66-10,7.09a22.34,22.34,0,0,0,.15,18.47,9.31,9.31,0,0,0,9,5.76c3.84,0,8.49-.67,10-5.76s4.66-7.39,10.42-5.84Z" transform="translate(0 -629.59)"/><path class="cls-1" d="M954.33,1250.47c1.55,8-3.11,15.44-11.53,19.35-11.45,5.32-23.78-2.07-28.29-11.89-5-11-3.18-21.27,3.92-30.43,2.14-2.81,6.05-4.66,9.45-6,12.71-5,25.71,2.37,27.19,15.22.36,3.4-.74,5.17-3.77,5.91a5.13,5.13,0,0,1-6.06-3.69c-1.92-6.21-5.61-8.94-11.6-8.5a11.09,11.09,0,0,0-10.41,10c-.37,5-1,10,1.33,14.84,1.92,4,4.58,6.58,9.08,6.65s8-1.4,10.27-5.69c3.55-6.87,3.69-6.79,10.34-5.76Z" transform="translate(0 -629.59)"/><path class="cls-1" d="M1672.42,1207.4a36.45,36.45,0,0,1,.74,5.54c.22,8-1.56,9.31,8.34,8.87,2.14-.08,3.84,0,4.66,2.58,1.1,3.4,0,5.62-3.55,5.91-2.44.22-4.87,0-8.27,0v7.17c0,5.69-.15,11.37,0,17.06.07,6.06.37,6.28,6.2,6.28a13.25,13.25,0,0,1,2.44,0c1.48.3,2.88.81,4.36,1.26-.59,1.77-.74,3.84-1.85,5.24-3.25,4.21-8.86,5.1-14.77,3.25s-7.76-5.17-8.42-12.93c-.59-7.46-.23-15-.08-22.53,0-3-.15-5.24-4-6.28-3.25-.88-3.25-4.43,0-5.61,4.88-1.77,6.43-5.32,7.83-9.68.82-2.43,2.81-4.5,4.21-6.79.67.15,1.41.37,2.07.51Z" transform="translate(0 -629.59)"/><path class="cls-1" d="M1084.19,1200.31v21.42c-.15,15-.44,30-.52,45,0,3-1.11,4.14-4,3.77h-1.25c-6.65.15-6.43.15-6.43-6.5,0-17.88-.15-35.76-.15-53.56,0-9.6-2.14-11.3,12.27-10.12Z" transform="translate(0 -629.59)"/><path class="cls-1" d="M1745.7,1270.49v-21.28c0-3.54.73-7.24-1.7-10.41a2,2,0,0,1-.15-1.92c3.62-4.36.89-9.31,1.77-14.26a12.44,12.44,0,0,1,11.67,1.92c1.85,1.33,3,1.33,4.8,0a30.26,30.26,0,0,1,5.69-3.4c4.21-1.92,8,.3,8.35,4.66a40.28,40.28,0,0,0,1,5.17c-2.66.59-5.39,1-8,1.77-2.22.66-5.25,1-6.28,2.59-1.92,2.8-4.21,5.68-4.06,9.75.22,7.31,0,14.62-.15,21.86-.07,4.8-.22,4.8-5.1,4a61.69,61.69,0,0,0-7.68-.44Z" transform="translate(0 -629.59)"/><path class="cls-1" d="M1814.17,1220.92v5.76c0,5.91-.22,6.06-6.13,6.21-8.94.15-12,3.17-12.26,12.26-.15,6.65,0,13.37,0,20,0,1.55-.15,3.18-.3,5.1h-12c0-6.06.14-12,0-18-.08-3.1-1-6.28-1.11-9.38,0-1.92,1-3.84,1-5.76.15-3.62,0-7.31,0-10.93.08-3.18,2-4.88,5-4.07a89.49,89.49,0,0,1,9.16,3.4c4.06-4.28,9.45-5.69,16.47-4.51Z" transform="translate(0 -629.59)"/><path class="cls-1" d="M1199.57,1222.4c11.68-1.55,12.19-1.33,12.19,9.53,0,11.52-.44,23-.59,34.49,0,3.18-1.48,4.36-4.5,4.14-1.63-.15-3.4.37-4.81-.15-1.18-.44-2.8-2.06-2.8-3.17,0-4.14.66-8.2.74-12.34.07-7.68-.15-15.36-.23-23.05Z" transform="translate(0 -629.59)"/><path class="cls-1" d="M1622.85,1011.13v21.05h-24.38V1014.6c0-2.58,1.26-3.54,3.84-3.54h20.54Z" transform="translate(0 -629.59)"/><path class="cls-1" d="M1211.1,1200.31v8c-.15,4.43-1,5.1-6.65,5.1-5.17,0-5.47-.23-5.54-4.81-.22-7.16,1.55-8.86,8.79-8.49,1,0,1.92.15,3.47.22Z" transform="translate(0 -629.59)"/><path class="cls-1" d="M1114.33,1214.12c.22-11.15,3.47-14.47,13.07-13.88C1127.7,1208.29,1121.86,1214.72,1114.33,1214.12Z" transform="translate(0 -629.59)"/><path class="cls-2" d="M1139.81,1090c0-5.25-.29-10.56,0-15.81.74-10.19,6.8-15.59,17-15.59,2.22,0,4.51-.07,6.73-.14,8.86-.15,15.36,5.32,16.91,14a107.62,107.62,0,0,1-.22,37.08c-1,5.84-5.83,9.46-11,11.16-6.94,2.22-14.25,2.44-21.12-1.11-5.91-3.1-7.69-8.57-8.2-14.48C1139.44,1100.07,1139.81,1095,1139.81,1090Z" transform="translate(0 -629.59)"/><path class="cls-2" d="M1480.28,1098.22c-1,4.8-1.62,9.09-2.81,13.3-2.43,9.09-18.17,15.59-29,8.94-2-1.26-3-4.51-3.76-7a22.83,22.83,0,0,1-.67-8.35c.52-4.8,4.88-5.76,8.42-6.13,8-.88,16.11-1,24.23-1.33a25.27,25.27,0,0,1,3.55.59Z" transform="translate(0 -629.59)"/><path class="cls-2" d="M1431.67,700.73c2.59-12.12,9.61-22.09,24.31-18.91,8.94,1.92,13.15,6.94,14.92,15.07.44,2,.59,4.36-2.59,4.36-12-.08-23.93-.3-36.64-.45Z" transform="translate(0 -629.59)"/><path class="cls-2" d="M1275.07,890.2c-.15-10.78,6.43-19.5,16.4-19.94,4.65-.22,10.56-.74,14.63,3.62,3.61,3.77,7.23,7.31,7.09,13.37,0,2.29-.15,3.18-2.29,3.32h-30.51c-1.77,0-3.55-.29-5.25-.37Z" transform="translate(0 -629.59)"/><path class="cls-2" d="M1893.73,892.13H1860c-4.58,0-5-.45-3.1-4.88,1.33-3.32,2.73-6.8,5-9.53,4.14-5.17,9.75-6.35,16.25-4.87a28.57,28.57,0,0,1,9.16,3.91c5.76,3.77,6.72,8.86,6.57,15.37Z" transform="translate(0 -629.59)"/><path class="cls-2" d="M892.79,899.51c-.44-5.54-1.4-11.15-1.11-16.69.3-5.84,7-14,14.11-15.37a33.74,33.74,0,0,1,12.19,0c9.38,1.7,14.41,7.17,15,16.92a277,277,0,0,1,.07,30.36c-.52,10-11,17.73-22.09,17.14-9.75-.52-18.68-9.46-18.83-18.91V899.59h.66Z" transform="translate(0 -629.59)"/><path class="cls-2" d="M1706.69,1090.84c-.51,5.76-.44,11.74-1.77,17.36-3.25,14.33-13.59,17.5-25.34,16-7.83-1-15.73-10.63-15.95-18.91-.23-9.89-.15-19.87.07-29.77.15-6.72,7.61-14.4,15.51-15.58a31,31,0,0,1,15.52,1.33c7.53,2.8,10.71,8.64,11.3,16.1.37,4.43,0,8.94,0,13.37h.59Z" transform="translate(0 -629.59)"/><path class="cls-2" d="M822.39,1090V1075.4c0-8.35,4.73-13.89,11.53-17.58,6.57-3.62,13.15-1.7,19.43,1.47,8.49,4.29,10.34,12.12,10.86,20.39a234.39,234.39,0,0,1,0,23.71c-.45,10.71-8.72,19.14-17.29,18.18-4.65-.52-9.46.51-14.11-1.85-6.28-3.18-10.19-7.83-10.27-14.55V1090h-.15Z" transform="translate(0 -629.59)"/><path class="cls-2" d="M1168.11,1270.12c3.54.52,7,1.18,10.56,1.62,1.85.22,3.1.67,3,2.81s.15,4.06-2.66,4.65c-3.25.67-6.43,1.78-9.68,2.37a20.48,20.48,0,0,1-6.72,0,14.07,14.07,0,0,1-6-2.37c-1.19-1-2.29-3.32-1.85-4.58A6.34,6.34,0,0,1,1159,1271c3-.59,6-.14,9.16-.14v-.74Z" transform="translate(0 -629.59)"/><path class="cls-2" d="M1167.29,1229.19c6,0,8.2,2,8.2,7,0,6.2-2.73,9-8.57,8.86-5.39-.15-7.38-2.36-7.23-7.9s2.43-8,7.6-8Z" transform="translate(0 -629.59)"/><path class="cls-2" d="M1379,1245.89c0,10-3.91,15.07-12.7,15.73-2.51.22-5.84-1.77-7.76-3.76-5.54-5.84-5.32-18.69-.14-24.6,2.36-2.66,8.34-3.92,11.89-2.22,6.65,3.1,9.6,8.35,8.64,14.85Z" transform="translate(0 -629.59)"/><path class="cls-2" d="M1724.42,1240.2c-7.09-1.11-13.66,3.84-20.68-.89,1.92-1.92.22-4.87,3.32-7.16,3.7-2.73,7.39-1.63,11-1.7C1722.13,1230.3,1724.35,1233.85,1724.42,1240.2Z" transform="translate(0 -629.59)"/><path class="cls-2" d="M1851.77,1239.91h-21.2c.37-5.47,6.72-10.94,12-10.72,6.21.3,9.46,3.92,9.16,10.72Z" transform="translate(0 -629.59)"/><path class="cls-2" d="M1432.71,1239.91h-20c-2.07-4.51,1.85-6.36,4.21-8.57a9.83,9.83,0,0,1,11.3-1C1431.67,1232.44,1433.52,1235.4,1432.71,1239.91Z" transform="translate(0 -629.59)"/><path class="cls-2" d="M891.68,1240.13H874.33c-2.59,0-3.11-1.41-2.66-3.55a8.9,8.9,0,0,1,10.71-6.79c1,.22,1.92.51,2.88.66,6.06.81,7.53,2.81,6.42,9.75Z" transform="translate(0 -629.59)"/><path class="cls-2" d="M1585,1246.63c0,1.4.08,2.8,0,4.21-.51,6.35-3,9.45-8.12,10-2.59.22-5.25,2.88-7.76,0-2-2.22-4.65-4.14-5.69-6.65-2.36-5.83-2.88-11.82.89-17.58,3.55-5.39,6.72-7.16,12.41-6.13,3.77.66,7.68,5.61,8.27,10.78a43.4,43.4,0,0,1,0,5.47h0Z" transform="translate(0 -629.59)"/><path class="cls-2" d="M1103.69,1247.07a103.91,103.91,0,0,1,2.81-10c1.77-4.8,4.58-6.57,9.38-6.72s7.61,1.78,9.6,6.28a22.4,22.4,0,0,1-.14,19.43c-1.93,4.21-5.25,5.91-9.46,5.83-3.91,0-7.61-1.25-9.16-5.39-1.18-3.1-2-6.28-3-9.45Z" transform="translate(0 -629.59)"/><path class="cls-2" d="M1305.5,1246.92v4.29c-.14,5.76-3.32,9.31-9.52,10.71-4.29,1-9.16-1.55-11.31-6.06-2.73-5.76-3.54-11.67-.88-17.73,2.51-5.69,7.24-8.49,13-7.68,4.21.59,8.12,5.54,8.71,11.08.15,1.77,0,3.62,0,5.47h0Z" transform="translate(0 -629.59)"/><path class="cls-2" d="M1050.58,1247.22v4.28c-.3,5.54-3.25,8.79-9.31,10.27a10.3,10.3,0,0,1-11.45-5.76c-2.66-5.69-3.69-11.67-1-17.73,2.58-5.84,7.53-8.86,13.29-7.9,4.07.66,8,5.91,8.5,11.37C1050.73,1243.6,1050.58,1245.37,1050.58,1247.22Z" transform="translate(0 -629.59)"/></g></svg>