<?xml version="1.0" encoding="utf-8"?>
<!-- Generator: Adobe Illustrator 25.2.3, SVG Export Plug-In . SVG Version: 6.00 Build 0)  -->
<svg version="1.1" id="Ebene_2" xmlns="http://www.w3.org/2000/svg" xmlns:xlink="http://www.w3.org/1999/xlink" x="0px" y="0px"
	 viewBox="0 0 1920 660.8" style="enable-background:new 0 0 1920 660.8;" xml:space="preserve">
<style type="text/css">
	.st0{fill:#FFFFFF;}
</style>
<g id="Ebene_1-2">
	<path class="st0" d="M646.1,0.1c-0.1,3.5-0.3,6.9-0.3,10.3c0,41.8,0.2,83.6,0.2,125.4c0,8,0,8-8,8H35.8c-9.6,0-19.2,0-28.8-0.2
		c-2.3-0.1-4.6-0.3-6.9-0.7V0.1H646.1z"/>
	<path class="st0" d="M1196.4,0.1c1.8,2.1,2.7,4.9,2.5,7.7c-0.2,6.9-0.2,13.8,0,20.7c0.1,5.2,0.7,5.8,6,5.8h18.1v17.1h-18.2
		c-5.8,0-6,0.2-6,5.7c0,15.2-0.1,30.4-0.2,45.7c0.1,1.2,0.1,2.4,0,3.6c-0.7,4.9-0.4,5.3,4.5,5.3c5.5,0,11,0.1,16.6,0
		c2.5,0,3.8,0.9,3.7,3.5c-0.1,3.5,0,6.9,0,10.3c-0.1,2.5-1,4.3-4,4.3c-14.1,0-28.2-0.2-42.3-0.2c-0.4,0-0.7-0.3-1.4-0.5V52.4
		c-5.2,0-10-0.2-14.8,0c-3.5,0.2-4.7-1.6-4.9-4.5c-0.2-3.5,0-6.9,0-10.3c0-2.7,1.4-3.5,3.9-3.5c3.7,0,7.3,0.1,11,0
		c5.2-0.1,5.8-0.6,5.5-5.5c-0.2-3.8-1.1-7.5-1.3-11.2c-0.1-2.3,0.5-4.6,0.8-6.9c0.4-3.5,1.7-7-0.2-10.4h20.8L1196.4,0.1z"/>
	<path class="st0" d="M1082.4,0.1c-0.4,0.9-1.3,1.8-1.3,2.7c0.3,8.7,0.9,17.4,1,26c0,3.7,1.6,4.4,4.8,4.3c4.7-0.2,9.4,0.1,14.1,0
		c3.3-0.2,4.9,1,4.7,4.5c-0.2,4.2,0,8.5,0,12.6c-4.2,3.1-8.5,1.5-12.7,1.2c-2.4-0.3-4.9-0.3-7.3,0c-2.5,0.3-4.2,1.7-4.2,4.7
		c0,6.3-0.2,12.6-0.3,18.9v36.3h24.2v17.3c-4.3,2.4-8.7,1.2-13.2,1c-8.7-0.5-17.6-0.2-26.3-0.2h-6.7V51.6h-19.7V36
		c0-2.7,2-3.2,4.3-3.1h15.3V0.1H1082.4z"/>
	<path class="st0" d="M829.9,0.1c0.2,34,0.5,68.2,0.7,102.2c0,7.3-0.5,14.6-0.7,21.9c0,2.4-1,3.8-3.6,3.8h-20
		c-0.2-2.1-0.5-3.9-0.5-5.7c0.1-37.7,0.2-75.5,0.3-113.2c0-3-0.5-6-0.7-8.9H829.9z"/>
	<path class="st0" d="M1143.7,0.1v21.8H1121c-2.4,0-3.1-1.6-3-3.7c0-3.6,0.2-7.2,0.7-10.8c0.4-2.5,1.9-4.9,3-7.3L1143.7,0.1
		L1143.7,0.1z"/>
	<path class="st0" d="M144.4,321.9V621c0,5.2,0,10.6-0.1,15.8c0,3.9-1.6,5.2-6.2,5.2H0.4c-0.1-2-0.3-4-0.3-5.9
		C0.1,498.1,0,360,0,222c0-7.5,0.7-15,4.1-21.5c5.6-10.5,13.2-19.3,26.1-21.3c5.5-0.9,11.2-1.9,16.8-2
		c194.9-0.1,389.7-0.1,584.5-0.1c2.2,0,4.5,0,6.7,0.1c5.2,0.2,6.1,0.9,7.4,5.8c0.3,1.4,0.4,2.8,0.3,4.2c0,37.5-0.1,75.1-0.2,112.7
		c0,4-0.7,7.9-1,11.9c-0.1,1.6,0.1,3.2,0.4,4.8c0.7,3.7-0.3,5-3.8,5c-43.7,0-87.4,0-131.1-0.1H150c-2,0-4,0.2-5.5,0.3L144.4,321.9z"
		/>
	<path class="st0" d="M322.4,642.1H184.6c-6.2,0-6.2,0-6.2-6.4c0-31.5-0.1-62.9-0.1-94.4V359.2c0-5.1,0.1-5.3,6.4-5.3h117.6
		c5.1,0,10.2,0,15.3,0.3c4.3,0.2,4.8,0.8,5,5c0.4,18.6,1.1,37.2,1.2,55.8c0.2,62.4,0.2,124.7,0,187C323.7,615,323,628.1,322.4,642.1
		L322.4,642.1z"/>
	<path class="st0" d="M1014.9,380.1h87.2c0,5.6-0.3,10.7,0.1,15.8c0.3,3.6-1.4,4.7-4.4,5c-1.8,0.2-3.7,0-5.5,0
		c-16.5-0.3-33-0.6-49.5-1c-2.2,0-3.6,0.6-3.6,3v26.2c0,3.2,2.2,2.8,4.2,2.8h50V450c0,3.3-2.4,3-4.7,3c-16-0.2-31.8-0.2-47.8-0.2
		c-0.9,0-1.8,0.1-2.7,0.2v34.3h64.2v19.7c-7.7,0.3-14.8,0.7-22,0.7c-15.3,0.2-30.6,0.4-45.9,0.6H1018c-3.2,0.1-4.5-1.2-4.3-4.4
		c0.3-5.6,0.6-11.3,0.7-16.9c0.1-34.3,0.1-68.6,0.2-102.9C1014.5,382.9,1014.7,381.7,1014.9,380.1L1014.9,380.1z"/>
	<path class="st0" d="M1205.5,507.3h-23c-1-4-1.8-7.1-2.5-10.2c-5,3.3-9.8,6.3-14.5,9.4c-0.7,0.4-1.3,1.4-1.9,1.3
		c-8.7-0.5-17.8,2.4-26.2-2.2c-5.9-3.2-10.8-7.3-14-13.4c-5.1-9.6-8.1-19.4-8-30.4c0.1-10.7,1.1-21,6.1-30.8s12.1-18,22.5-19.9
		c12-2.2,24.8-1.7,34.1,9.1c0.9,0.8,1.9,1.5,3,2.1c1.3-7.3,0.4-14.1,0.6-20.8s0-13.7,0-20.9h23.4c0.3,6.8,0.7,13.6,1,20.4
		c0.2,7.1,0,14.2,0,21.3v64c-0.1,6.7-0.4,13.5-0.7,21.1L1205.5,507.3z M1139.8,460.3c0,5.1-0.4,10.1,0.1,15.1
		c0.5,5.9,2.3,11.4,8.2,14.5c6.9,3.6,14.2,3.3,21.1,1.1c5.2-1.6,10-5.3,11-11.2c2.2-12.3,2.3-24.8,0.2-37.1c-1.6-8.8-8-14.2-16.9-14
		c-2.2,0-4.5,0.1-6.7,0.1c-10.1,0-16.2,5.4-17,15.6C1139.4,449.8,1139.8,455,1139.8,460.3L1139.8,460.3z"/>
	<path class="st0" d="M1152.4,319.3V191.7h23.1v41.5c4.9-3.3,9.2-5.8,13.2-8.9c3.4-2.7,7.5-2.3,11.2-3.4c8.9-2.7,16.2,1.2,23.3,5.8
		c5.5,3.6,8.4,9.2,9.9,15.7c4.3,18.3,1.7,36.9,2.4,55.4c0.2,5.9,0,11.8,0,17.7c0,2.5-0.8,3.8-3.6,3.8c-5.7-0.1-11.4,0.1-17.1-0.1
		c-3-0.2-5.7-3.9-4.2-6.3c2.9-4.6,1.5-9.5,1.7-14c0.6-12.5,0.4-25.2,0.2-37.7c-0.1-4.6-0.7-9.1-1.7-13.6c-1-4.5-4.7-6.5-8.9-7
		c-12.2-1.7-22.3,3.1-26.1,15.9c-0.4,1.8-0.6,3.6-0.4,5.4c0,17.1,0,34.1-0.1,51.1c0,5.9-0.5,6.5-6.7,6.7
		C1163.5,319.5,1158.2,319.4,1152.4,319.3L1152.4,319.3z"/>
	<path class="st0" d="M1480.2,449.6c-0.7-4.8-1.1-8.6-1.9-12.3c-1-4.7-4.4-7.2-9.2-7.2c-3,0-6.1,0.2-9.2,0.2c-6.4,0-10.7,3-12.1,9.2
		c-0.7,3.3-2.2,4.3-5.4,4.2c-4.9-0.2-9.8,0.1-14.7,0c-4.2-0.1-5.6-1.9-4.3-5.7c6.3-17.4,15.4-24.4,36.5-25.8
		c7-0.6,14.1,0.2,20.8,2.2c13.3,4.1,19.9,13.6,20.7,26.5c1,15,0.6,30,0.5,45.1c0,6.6-0.3,6.6,6.6,6.6h3.7c6.2,0,6.7,0.4,6.3,6.5
		c0,2.8-0.5,5.5-1.3,8.2c-0.8,1.3-2.1,2.1-3.6,2.2c-9.6,0.1-19.2,0-28.8,0c-3.2,0-4.4-1.3-4.3-4.4c0.1-1.6,0-3.2,0-6
		c-2.4,1-4.3,1.3-5.5,2.4c-6.5,5.8-14.6,9.4-23.3,10.3c-5.6,0.7-11.3-0.7-15.9-3.8c-7-5-12.8-11.2-14.6-20.2
		c-0.9-3.9-0.6-7.9,0.7-11.7c3.2-9.7,8.8-17.2,18.5-21.3c2.9-1.2,6-2.1,9.1-2.5c6.2-0.7,12.5-0.8,18.7-1.3
		C1471.9,450.6,1475.7,450.1,1480.2,449.6L1480.2,449.6z M1480.2,468.6c-1.2-0.3-2.4-0.5-3.6-0.6c-8.1,0.4-16.2,0.4-24.2,1.3
		c-3.5,0.4-7.9,1.4-8.4,6.1c-0.3,2.8-0.1,5.6,0.7,8.3c0.7,2.5,1.8,5.8,3.8,7c10.9,6.7,26.6,0.2,29-8.9
		C1478.5,477.7,1479.2,473.4,1480.2,468.6L1480.2,468.6z"/>
	<path class="st0" d="M1431.9,90.2c-0.6,6,0.9,12,4.2,17c5.6,9.2,22.8,10.6,30.3,1.9c1.6-1.8,2.6-3.9,3.1-6.2
		c0.4-2.5,1.6-2.9,3.6-2.9c5.3,0,10.6-0.2,15.9,0c3.7,0.1,4.4,1.5,3.5,5c-4.2,14.9-15,22.8-29.2,26.7c-10.8,3-20.8,0.7-30.8-4
		c-8.6-4-13.1-11.5-18.1-18.6c-2.2-3.1-2.4-7.8-3.3-11.7c-2.4-9.3-1.7-18.9-1-28.2c0.7-8.2,5.1-15.5,10-22.3
		c9.8-14,24.4-17.1,39.6-14.6c16.8,2.7,28.7,12.9,34,29.7c3,9.5,2.4,19.3,1.5,28.7c-3.9-0.3-7.2-0.8-10.5-0.8
		c-16.1-0.1-32.2-0.1-48.3-0.1c-1.4,0.1-2.8,0.3-4.1,0.5L1431.9,90.2z M1431.7,71.2c12.6,0.2,24.7,0.4,36.6,0.5c3.2,0,3-2.4,2.6-4.4
		c-1.8-8-6-13.2-14.9-15.1C1441.3,49.1,1434.3,59,1431.7,71.2L1431.7,71.2z"/>
	<path class="st0" d="M1470.8,243.5V263c-7.7,0.2-15.3,0.6-23,0.7c-7.3,0.2-14.7,0-22,0c-5.1,0-7.7,2.4-8.1,7.5
		c-0.2,2.7-0.1,5.2-0.2,7.9c-0.2,7.6-0.4,15.2-0.4,22.8c0,2.7,0.7,5.5,0.9,8.3c0.2,3,0,6,0,9.2H1394c-0.3-42.4,0.7-84.3-0.7-126.5
		c-0.3,0.2,0-0.2,0.4-0.2c26.6-0.4,53.2-0.7,79.7-1c0.7,0.1,1.4,0.2,2.1,0.4v20.5h-7.5c-14.9,0-29.8,0-44.7,0.2
		c-4.1,0-5,0.7-5.1,4.8c-0.1,8.5,0,17,0,25.9h52.6L1470.8,243.5z"/>
	<path class="st0" d="M1305.4,278.6h-23.2c-7.4,0-7-0.1-7.5,7c-0.4,6.7,2.6,11.2,7.5,14.8c5.7,4.3,16.9,4,23.3-0.1
		c3.2-2,5.4-5.2,6.4-8.9c0.7-2,1.7-2.9,3.9-2.8c5.3,0.2,10.6-0.1,15.9,0c3.2,0,4.1,1.8,3.1,4.9c-4.7,14.3-14.7,23.1-29,27
		c-9.1,2.4-18.8,1.7-27.5-2.1c-4.6-2-9.1-4.4-13.2-7.2c-2.1-1.5-3.5-4.3-5-6.6c-9-13-11.4-27.8-9.5-42.8
		c1.6-12.4,6.8-24.2,17.3-32.3c6-4.7,13-8,21.1-7.7c5.8,0.3,11.7,0.2,17.4,1.1c6.3,0.9,12.1,3.9,16.6,8.5c4.8,4.8,9.7,9.7,11.9,16.2
		c1.3,3.9,2,7.9,2.3,12c0.4,5.2,0,10.6,0.1,15.8c0,3.1-1.8,3.6-4.4,3.6h-27.6L1305.4,278.6L1305.4,278.6z M1275.1,260.6
		c1.7,0.2,3.5,0.4,5.2,0.4h30.5c2.2-0.1,2.3-1,2.3-3.3c0.2-6-3.5-9.5-7.1-13.4c-4.1-4.3-9.9-3.8-14.6-3.6
		C1281.4,241.1,1274.9,249.9,1275.1,260.6L1275.1,260.6z"/>
	<path class="st0" d="M1917.1,291.9c0.4,7.2-3.4,12.7-7.6,17.7c-9.7,11.5-22.5,15.5-37.2,14.5c-4.8-0.3-9.5-1.2-14-2.6
		c-2.7-1-4.9-3.7-7.3-5.8c-9.3-8.3-16.2-17.8-17.1-30.7c-0.4-5-1.6-10-1.1-14.9c1-12.2,3-24.2,12.5-33.5c2.4-2.4,4.7-4.8,7.2-7.2
		c0.9-1,1.9-1.8,3.1-2.4c9.1-3.2,18.9-4.2,28.5-2.8c10.6,1.3,19.6,7.2,26.2,15.9c2.1,2.7,4.4,5.3,5.8,8.3c1.3,2.8,2,5.9,2.2,9
		c0.4,6,2.4,11.8,1.6,18c-0.7,5.6-0.4,6-6,5.8c-11.5-0.3-23-0.9-34.6-1.2c-6.1-0.1-12.3,0-18.3,0c-4.9,0-5.2,0.5-4.1,5.2
		c0.3,1.2,0.4,2.4,0.3,3.5c-0.3,8,4.4,12.8,11.2,15.7s13.3,1.6,19-2.7c3-2.2,5.8-4.9,6.8-8.9c0.7-3,3.8-3,5.7-3
		c5.5,0.1,11.1,1,17.4,1.6L1917.1,291.9z M1893.8,262.6c0.2-6.5-0.8-11.6-6.6-15.4c-2.8-1.9-5.9-3.2-9.2-3.9
		c-6.4-1.5-12.1-0.3-16.2,4.9c-2.2,2.7-3.6,6.3-5,9.5c-1.8,4.4-1.5,4.9,3.1,4.9L1893.8,262.6L1893.8,262.6z"/>
	<path class="st0" d="M1490.6,224.4h24.4v14c0,17.3,0.2,34.5-0.1,51.8c0,4.5,1.5,8.6,5.2,10.1c5.8,2.4,12.3,3.5,18.3,0
		c7.6-4.3,11.1-10.9,11-19.6c-0.1-17.1,0-34.1,0-51.2v-5h24.1c0.4,31.8,1.3,63.5-1.2,95.6h-22.6v-11.6c-1.4,1-2.4,1.2-2.7,1.9
		c-2.4,4.6-6.8,6.6-11.1,8.9c-7.9,4.1-16.2,3.1-24.2,1.4c-5.1-1.1-9.8-3.7-13.4-7.5c-3.2-3.4-4.7-8.7-6.1-13.4
		c-1-3.6-1.4-7.4-1.3-11.2c-0.1-21.3,0-42.5,0-64.3L1490.6,224.4z"/>
	<path class="st0" d="M853.4,128.6V33h21.2c2.1,0,3,1,3,3c0,1.2,0.1,2.4,0.2,3.7c2.4,1.3,4.1,0.8,6-1c5-5,11.2-7.2,18.2-6.9
		c4.4,0.1,9.1-0.4,13.4,0.7c11.2,2.7,17.7,10.5,19.9,21.6c1,4.9,1.5,9.9,1.5,14.8c0.3,18.2,0.3,36.5,0.5,54.7c0,6-0.6,6.9-6.4,6.7
		c-4.4-0.2-8.8-1-13.2-1.1c-3.5,0-3.8-1.5-3.8-4.5c0.2-16.6,0.2-33.2,0-49.9c-0.1-5.8-0.7-11.6-1.8-17.3c-0.5-3.8-3.6-6.8-7.4-7.2
		c-7.2-0.7-14.4-1.2-20.5,4.2c-3.4,2.8-5.6,6.8-6,11.2c-0.8,9.4-1.3,18.8-1.3,28.3s0.7,18.5,0.9,27.8c0.1,6.6-0.3,6.8-6.9,6.8h-17.2
		L853.4,128.6z"/>
	<path class="st0" d="M1297.2,34.5h22.4V129c-7.3,0.3-14.6,0.7-21.8,0.7c-2,0-3.5-3.4-2.7-5.5c0.6-1.4,1.3-2.7,2.4-5.4
		c-2.1,1-3.3,1.2-3.9,1.8c-4.7,5.3-10.8,8.2-17.1,10.9s-12,0.7-18-1c-1.9-0.6-3.6-1.8-5.5-2.5c-9.8-3.5-15.6-16.5-15.4-25.6
		c0.2-4.5-1.4-9-1.4-13.6c0-8.4,0.7-16.8,1-25.2c0.2-4.4,0.2-8.9,0-13.4c-0.2-3.8-0.9-7.5-1.2-11.3c-0.3-4,0.2-4.8,4.1-4.9
		c6.5-0.1,13,0,19.8,0c0.2,1,0.4,2.1,0.4,3.1c0,20.1-0.1,40.1,0,60.2c0,2.1,1.3,4.2,2.2,6.3c0.1,0.4,0.9,0.8,1,1.2
		c1.3,4.4,3.7,7.2,8.9,7.2c6.9,0.2,13.2,0,18.2-6c4.7-5.7,7.1-12.9,6.8-20.2c-0.3-17-0.1-34-0.1-51.5L1297.2,34.5z"/>
	<path class="st0" d="M1725.9,224.6h24.5c-0.5,32.3,1.2,64.4-1.6,97.4h-22.6c-0.2-4.8-0.4-9-0.7-13.7c-1,0.5-2.1,0.7-2.2,1.2
		c-3,8.1-10.6,9.9-17.5,12.3c-11.3,4-21.3-0.3-29.8-6.9c-4.6-3.6-6.3-10.3-7.8-16.5c-2.1-9.2-1.1-18.5-1.2-27.6
		c-0.2-14.8,0-29.6,0-44.8h23.3v8.1c0,18.7,0.1,37.3,0.2,56c0,8.3,5.5,13.2,13.7,13.5c6.2,0.2,11.3-1.4,15.8-5.8
		c3.9-3.8,5.9-8,5.8-13.4c-0.2-17.7,0-35.3,0-53V224.6L1725.9,224.6z"/>
	<path class="st0" d="M1769.9,415v13.5c0.9-0.3,1.7-0.3,1.8-0.6c8.3-16.6,30.1-17.7,43.1-11.2c8.4,4.3,12.2,12,14,20.8
		c0.6,3.6,0.9,7.3,0.7,10.9c0.1,14,0.2,28,0,42c0,6.4-0.7,12.8-1,19.7h-21.3c-0.1-1.1-0.4-2.6-0.4-4.1c0.1-18.7,0.5-37.3,0.5-56
		c-0.1-4-0.8-7.9-1.9-11.7c-0.6-1.8-2-3.4-3.7-4.3c-10.3-5.9-25.6-1.5-29.2,8.9c-1.2,3.4-1.9,7-2,10.6c-0.2,13.8-0.1,27.6-0.2,41.4
		c0,3.8-0.4,7.7-0.3,11.5c0,3-1.1,4.5-4.4,4.4c-4.5-0.2-9,0-13.4,0c-4.1-0.1-5.5-1.9-5.5-6.1c0.2-27.4,0.4-54.7,0.6-82.2
		c0-1.6-0.2-3.2-0.2-4.9c0-2.9,1.8-4.5,4.6-4.3c5.8,0.6,11.5,1.2,18.2,1.8L1769.9,415z"/>
	<path class="st0" d="M1308.7,508.2h-16.3c-5.8-0.1-6.3-0.6-6.5-6.7c0-1-0.1-2.1-0.3-3.1c-4.1-0.4-6.3,2.7-8.7,4.8
		c-4.1,3.7-9.4,5.9-14.9,6.1c-2.9,0.2-5.8-0.1-8.6,0.1c-7.2,0.4-12.8-2.7-17.5-7.7c-6.3-6.8-9.8-15.7-9.8-25
		c-0.2-20.9,0-41.8,0-63.1h23.7c0.1,21.5,0.3,42.8,0.5,64.3c0.1,10.9,8.9,17.1,19.5,13.5c11.5-3.8,16.2-9.8,16.3-21.8
		c0.2-16.6,0-33.3-0.1-49.9v-6.2h22.6V508.2L1308.7,508.2z"/>
	<path class="st0" d="M956.2,269.9c0.7,8.2-0.5,16.4-3.6,24.1c-5.4,12.9-14.5,21.3-28.7,24.5c-5,1.1-9.8,2.2-14.7,2
		c-9.4-0.3-18.5-3.9-25.6-10.1c-8.4-7.6-13.9-17.8-15.8-28.9c-1.6-8.9-0.8-17.6,0.5-26.2c0.8-5.5,3.8-10.6,5.8-16
		c0.8-2.2,1-5,2.6-6.2c5-3.7,10-7.8,15.8-9.8c15.2-5.2,30.4-4.2,44.4,4.4c4.1,2.6,7.7,5.9,10.6,9.8c3.8,5.1,6.2,11,7.9,17.4
		c1.3,5.1,0.3,10,1,14.9L956.2,269.9z M892.8,269.9h-0.7v13.4c0.2,9.5,9.1,18.4,18.8,18.9c11.1,0.6,21.6-7.2,22.1-17.1
		c0.5-10.1,0.5-20.2-0.1-30.4c-0.6-9.8-5.7-15.2-15-16.9c-4-0.7-8.2-0.7-12.2,0c-7.1,1.4-13.8,9.5-14.1,15.4
		C891.4,258.7,892.4,264.3,892.8,269.9L892.8,269.9z"/>
	<path class="st0" d="M974.3,99.4c1.3,7.8,6.6,12.4,13.8,13.8c7.2,1.6,14.8-0.8,19.8-6.3c3.8-4.2,0-12.6-6.3-14.2
		c-8.8-2.1-17.8-3.5-26.4-6.3c-9-2.9-16.6-8.4-19.4-18c-3.7-12.9,2-28.8,16.8-34.1c10.6-3.8,21.3-2.3,32.1-1.8
		c6.2,0.2,9.5,6.4,15.6,5.5c0.2,0,0.6,0.5,0.7,0.7c3,6.2,7.7,11.7,7.6,19.2c0,3.3-1.1,4.3-4.2,4.2c-4.5-0.2-9-0.2-13.4,0
		c-3.1,0.2-4.1-1.1-5-3.9c-3-10.2-17.5-13.4-25.2-5.9c-4.9,4.8-4.6,9.8,0.8,14c3.4,2.7,7.5,3.4,11.6,4.4c7.9,1.8,15.7,4.1,23.6,5.9
		c7.6,1.8,11.1,7.4,13.4,13.8c3.3,9.2,3.2,18.5-3.2,26.6c-2.7,3.5-6.1,6.4-10,8.5c-10.3,5.6-22.2,7.4-33.7,5.2
		c-8.3-1.6-16.1-5.2-22.5-10.6c-3.2-2.6-6.5-5.9-7.5-11c-0.6-2.4-1-4.9-1.2-7.4c-0.2-3.6,1.1-4.4,4.2-4.1
		C962,98.2,967.8,98.7,974.3,99.4L974.3,99.4z"/>
	<path class="st0" d="M1638.8,463.4c-0.4-12.3,3.2-24.4,10.2-34.6c6.7-9.6,16.6-15.9,29.2-15.7c8,0.1,16-0.6,23.8,2.4
		c13.2,5,21.6,14.4,25,27.8c1.4,5.6,2.2,11.3,2.4,17.1c0.4,9.6-2,18.9-5,27.9c-0.2,0.6-0.5,1.1-0.9,1.6c-7.9,10.5-17.3,18.2-30.9,21
		c-12.5,2.6-23.4-0.7-33.8-6.3c-3.6-2.2-6.8-5.1-9.2-8.6C1642.2,486.4,1639.2,475.3,1638.8,463.4L1638.8,463.4z M1706.7,461.3h-0.6
		c0-4.4,0.3-8.9,0-13.4c-0.6-7.5-3.8-13.3-11.3-16.1c-5-1.8-10.3-2.2-15.5-1.3c-7.9,1.1-15.4,8.9-15.5,15.6
		c-0.2,9.9-0.3,19.9-0.1,29.8c0.2,8.3,8.1,17.9,16,18.9c11.7,1.4,22.1-1.7,25.3-16c1.3-5.6,1.2-11.6,1.8-17.4L1706.7,461.3z"/>
	<path class="st0" d="M888.4,458.9c-0.5,9.9-2.2,19-6.6,27.9c-4.4,9.3-12.6,16.3-22.5,19.1c-15.2,4.6-30.1,4-43.7-6
		c-7.8-5.8-12.5-13.6-14.9-22.5c-1.9-6.9-2.7-14-2.4-21.1c0.7-14.5,5-28,16.9-37.6c6-4.7,12.7-8.4,20.8-8.1c1,0.1,2,0.1,3,0
		c7.5-3.2,14.7,0.3,21.4,2.2c12.8,3.6,20.5,13.4,24.5,25.6C887,445,887.3,452.1,888.4,458.9z M822.4,460.4h0.2v15.2
		c0,6.7,4,11.4,10.3,14.6c4.7,2.4,9.5,1.3,14.1,1.8c8.6,1,16.8-7.5,17.3-18.2c0.3-7.9,0.5-15.9,0-23.7c-0.5-8.3-2.4-16.1-10.8-20.4
		c-6.3-3.2-12.9-5.1-19.4-1.5c-6.8,3.7-11.6,9.2-11.5,17.6L822.4,460.4L822.4,460.4z"/>
	<path class="st0" d="M1561.8,413.9h22.8V432h-23c-0.2,1.4-0.4,2.9-0.4,4.4c-0.2,17.2-0.2,34.5-0.4,51.7c0,2.5,0.6,3.8,3.3,3.7
		c6.7-0.1,13.4,0,21,0c-0.4,6.1-0.7,12.1-1,18.2h-41.4c-5.7,0-5.7-0.1-5.7-5.8v-71.5H1524c-4.6,0-5-0.4-5.2-4.7s0-8.9,0-14.1h13.7
		c5.5,0,5.4,0.2,5.3-5.2c-0.1-6.7-0.2-13.4-0.2-20.1c0.1-2.4,0.3-4.7,0.7-7.1c6.6,0,12.9,0.2,19.1,0c3.4-0.2,4.2,1.5,4.2,4.4
		c-0.1,7.9-0.1,15.8-0.1,23.7c0,1.2,0.2,2.4,0.2,4.3L1561.8,413.9z"/>
	<path class="st0" d="M1136.2,300.9v18h-41.7c-5.8,0-5.9,0-5.9-5.6v-71.8h-12.2c-5.7-0.2-6.1-0.7-6.2-6.3c0-8.8,4.3-13.2,13.1-13.2
		h5.2v-31.4h24.5v32.7h23.1v16.7h-22.5c-1.8,11.8-2.6,23-1.1,34.5c0.9,7,0.3,14.2,0.3,21.3v5.2H1136.2L1136.2,300.9z"/>
	<path class="st0" d="M915.8,410.7v-30.7h47.8c0,4.8-0.1,9.2,0,13.6c0.1,3.1-1.1,4.4-4.4,4.3c-5.3-0.2-10.6-0.2-15.9-0.2
		c-5,0-5.5,0.4-5.6,5.5c-0.1,5.7,2.8,8.6,8.6,8.6c3.7,0,7.3,0.1,11,0c2.6,0,3.7,1.1,3.7,3.6V429h-12.6c-10.9,0.2-9.5-1.6-9.6,9.2
		c-0.1,18.7,0.1,37.3,0,56c0,4.4-0.8,8.6-1.3,13.2c-5.9,0-12-0.2-18,0c-3.6,0.2-4.6-1.8-4.6-4.7c0.1-22.7,0.2-45.4,0.4-68.1
		c0-5.3,0.2-5.4-5.2-5.2c-4.5,0.1-8.9,0-14,0v-15c0-3,1.6-3.8,4.3-3.7C905.3,410.7,910.1,410.6,915.8,410.7L915.8,410.7z"/>
	<path class="st0" d="M1605.1,242.4c-5,0-9.6-0.1-14.3,0c-3.5,0.2-4.7-1.1-4.6-4.6c0.2-4.4,0-8.8,0-13.7c5.2,0,10.1-0.2,15,0
		c3.3,0.1,4.3-1,4.1-4.2c-0.3-7.5-0.3-15-0.3-22.5c0-4.6,0.4-5,4.8-5c4.7-0.1,9.4-0.1,14.1,0s5.1,0.7,5.1,5.4v26h23.1v17.1
		c-3,0.4-6.1,1-9.4,1.3c-2,0.1-4.1,0.1-6.1,0c-8.6,0-8.3,0-8.3,8.4c0,14-0.3,28-0.4,42v9h23.9v18.5h-35.5c-3.6,0-8.5,1.1-10.5-0.7
		c-1.8-1.7-0.7-6.7-0.7-10.3v-66.9L1605.1,242.4z"/>
	<path class="st0" d="M794.5,240v-17.9h19.1v-31.7c5.5-0.2,10.5-0.4,15.5-0.6c7.9-0.3,15.8-0.7,23.7-0.8c2.2,0,4.7,0.2,6.3,1.3
		s2.9,4.2,2.2,5.2c-2.3,3.8-0.9,7.5-0.7,11.6h-23v14.2c6.9,0.6,13.9,1.2,21.7,1.8v13.6c0,3.1-2.7,3.2-4.7,3.2c-4.1,0.2-8.2,0-12.3,0
		c-5.5,0-5.8,0.7-5.2,6.1c0.3,2.8-0.1,5.7-0.1,8.5c0,17.7,0.2,35.3,0.2,53c0,1.8,0.2,3.7,0,5.5c-0.4,4.2-1.4,5-5.6,5h-17.6
		c-0.2-2.2-0.4-4.2-0.4-6.1c0-22.8,0-45.4,0.1-68.2c0-3.1-1-3.8-3.8-3.8C805,240.2,800.2,240,794.5,240L794.5,240z"/>
	<path class="st0" d="M1375.9,112.2h16.9c5.6,0,5.8,0.2,5.8,5.8v11.9h-46.5V52.4c-5.3,0-10.1-0.2-15,0c-3.3,0.2-5-1-4.8-4.5
		c0.3-4.5,0.5-9,0.8-13.8h19.9c0.7-10.8-3.7-21.5,0.4-31.2c6,0.2,11.2,0.4,16.5,0.5c4.8,0.2,5.3,0.5,5.5,5.2
		c0.1,6.5,0.1,13,0.1,19.5v6h16.2c5.9,0,8.8,3,8,8.7c-0.4,3-1,5.8-1.8,9.5c-5.5,0-11.3,0.2-17.1,0c-3.2-0.1-5,0.7-4.9,4.3
		c0.1,18.2,0,36.5,0,55.4L1375.9,112.2z"/>
	<path class="st0" d="M1409.5,444.8h-20.5c-3,0-3.5-2.2-3.9-4.4c-1.2-7.3-6.3-10.4-12.9-11.2s-13.7-0.7-18,5.6
		c-2,2.7-3.2,5.9-3.5,9.3c-0.4,11.5-0.4,23.1-0.1,34.7c0.2,7.6,7.5,13.6,15.2,13.6h6.1c4.1,0.1,8.1-1.7,10.6-5
		c2.4-3,5.2-5.8,3.6-10.6h23.1c0.8,4.8-1.7,8.8-3.2,12.9c-2.4,6.6-7.5,11.4-13.5,14.8c-17.7,9.9-34.9,9.2-51.2-3.2
		c-3.1-2.4-5.5-5.5-7.2-8.9c-3.8-6.6-6.3-13.8-7.5-21.3c-0.8-5.6-0.9-11.3-0.2-17c1.1-9.8,4.5-19.2,10-27.4
		c5.6-8.3,14.4-13.8,24.3-15.2c14.3-2.3,27.9-0.5,38.6,10.3c6.2,6.1,9.8,14.3,10.1,23L1409.5,444.8z"/>
	<path class="st0" d="M1527.6,589.5c-2.5,7.7-5.1,15.3-7.5,23c-2.4,7.9-4.7,15.8-6.9,23.8c-0.7,2.7-2.2,4.5-5.2,4.7s-5.2-1-6.3-3.8
		c-1.8-5-3.5-9.9-4.9-15c-2.5-8.9-4.7-18-7.2-26.9c-0.7-1.9-1.5-3.8-2.4-5.6c-0.4,0.2-1,0.2-1.4,0.4v50.8h-11.2V637
		c0.1-20.5,0.1-41,0.2-61.5c0-4.9,0.2-5.1,5.2-4.9c1.4,0,2.9,0.2,4.3,0.2c8.7,0.2,9,0,11.6,8.3c2.7,8.9,4.7,18,7.1,27
		c1.2,4.4,2.7,8.8,4.3,14.2c1.4-1.8,2.6-2.5,2.8-3.6c3.4-13.7,6.8-27.5,10.1-41.2c0.7-2.6,2.1-4.1,5.1-4.1c5.1,0.2,10.2,0,15.9,0
		c0.2,2.4,0.4,4.6,0.4,6.7c0,18.7,0.2,37.3,0,56c0,2.2-0.8,5.8-2.1,6.2c-3,0.9-6.4,0.3-9.6,0c-0.5,0-1.1-2-1.2-3.1
		c-0.1-13.8-0.2-27.6,0-41.4c0-2,0.7-4,1.1-6c-0.7-0.2-1.4-0.4-2.1-0.5L1527.6,589.5z"/>
	<path class="st0" d="M1794.5,321.4h-22.8v-7.3c0-28,0-56-0.1-84c0-5.1-0.1-5.2,5-5.5c10.2-0.7,20.4,0.3,30.6,0.1
		c5.8-0.1,11.7,0.5,17.7,0.9v17.9c-1.8,0.2-3.6,0.4-5.3,0.4c-6.3,0-12.6-0.2-19,0c-6.1,0.1-6.2,0.2-6.2,6.1c0,8.1,0.2,16.2,0.3,24.3
		c0,13.8,0.1,27.6,0.1,41.4C1794.9,317.4,1794.6,319.2,1794.5,321.4L1794.5,321.4z"/>
	<path class="st0" d="M998.2,240.9c-1,23.8-0.8,46.8-0.5,69.8v4.3c0,2.3-1.2,3.2-3.5,3.2c-5.5-0.1-11-0.2-16.5,0
		c-3.3,0.2-4.1-1.2-4.1-4.3c0.2-10.6,0-21.1,0.2-31.6c0-6.5,0.3-12.9,0.2-19.4c0-3.3-0.8-6.7-0.7-10c0.4-10,1.1-20,1.7-30.2h51.3
		c3.1,5.1,2,10.2,1.9,15.1c0,3.4-2.9,3.1-5.4,3.1L998.2,240.9z"/>
	<path class="st0" d="M1143.7,34.8V41c-0.2,21.3-0.2,42.6-0.4,63.9c0,3.8-0.7,7.5-0.7,11.3c0,2.7,0.8,5.5,1.1,8.3
		c0.4,3.2-0.9,4.9-4.4,4.8c-5.3-0.1-10.6-0.1-16,0c-2.5,0-3.6-0.7-3.6-3.5c-0.2-6.4-1-12.8-1.1-19.2c-0.1-2.7,0.6-5.5,1-8.3
		c0.2-1,0.5-2.1,0.2-3c-1.9-4.7-0.7-9.3,0-14c0.4-2.2-0.3-4.6-0.5-6.9c-0.1-0.9-0.7-1.8-0.4-2.5c3.5-11.3,0.9-22.9,1.8-34.3
		c0.1-1.3,0-2.7,0-4.6C1128.4,33.2,1136,31.9,1143.7,34.8L1143.7,34.8z"/>
	<path class="st0" d="M1622.9,414.7v85.9c0,5.9-2.9,8.8-8.7,8.8h-16c0.4-31,0.8-62.6,1.2-94.7L1622.9,414.7L1622.9,414.7z"/>
	<path class="st0" d="M1187.1,598.8c-0.6,4.1-0.7,8.1-1.8,11.9c-0.7,2.7-2.1,6.1-4.2,7.5c-5.9,4.1-12.3,7.4-20.1,4.8
		c-1.2-0.4-2.4-0.6-3.6-0.4c-1.1,0.3-2.1,1.1-2.5,2.2c-0.2,1.1,0.2,2.3,1,3.1c1.9,1.1,4,1.7,6.1,2c4.7,0.2,9.4-0.3,14,0
		c3.4,0.2,6.8,1,10,2.2c3.6,1.5,5.4,4.5,5.5,8.6c0.3,10.6-1.7,13.7-12,17.2c-9.5,3.2-19.1,4.2-28.7-0.2c-2.1-1-4.1-2.5-5.7-4.2
		c-3.7-3.9-3.9-6.9-0.2-10.8c2.9-3,3.4-5.6,1.6-9.3s-0.1-7.2,2.4-10s2.5-5.1,0.7-8.2c-1.2-2.1-2.1-4.3-2.4-6.7
		c-1.2-10.6,4.4-16.9,16.3-17.5c4.4-0.3,8.8,0.1,13,1.3c3,1.2,6.5,0.6,8.9-1.5c1.6-1.2,3.4-3.9,5.5-1.8c1.3,1.2,1.6,4,1.6,6
		c0,3-2.7,3.1-5,3.2c-0.3,0-0.6,0.4-0.7,0.4H1187.1z M1168.1,640.5v0.6c-3,0-6.2-0.4-9.2,0.1c-1.8,0.5-3.4,1.9-4.1,3.6
		c-0.4,1.3,0.7,3.6,1.8,4.6c1.8,1.2,3.8,2.1,6,2.4c2.2,0.4,4.5,0.4,6.7,0c3.2-0.5,6.4-1.7,9.7-2.4c2.8-0.6,2.6-2.6,2.7-4.7
		s-1.1-2.6-3-2.8c-3.6-0.4-7.1-1-10.6-1.6L1168.1,640.5z M1167.3,599.5c-5.2,0-7.5,2.4-7.6,8s1.9,7.8,7.2,7.9
		c5.8,0.2,8.6-2.7,8.6-8.9C1175.5,601.6,1173.3,599.7,1167.3,599.5L1167.3,599.5z"/>
	<path class="st0" d="M1378.9,600.9v-25.2c0-4.9,0-4.9,5.2-4.2c1,0.1,2,0.1,3,0h3.5c0.3,1.6,0.4,3.1,0.5,4.7c0,19.7,0,39.3-0.1,59
		c0,2.1,0.7,5.2-2.4,5.5s-6.4,1.7-9.2-1.3c-3.8-4.1-3.8-4-8.1-0.2c-0.6,0.5-1.1,1.2-1.8,1.5c-7.5,3-17.1-0.4-21.5-7.4
		c-7.8-12.6-5.9-25.8,1.5-36.5c5-7.3,18.7-9.1,25.4-0.8C1376.1,597.2,1376.9,598.5,1378.9,600.9L1378.9,600.9z M1379,616.3
		c0.9-6.4-2-11.7-8.6-14.8c-3.5-1.7-9.5-0.4-11.9,2.2c-5.2,5.8-5.5,18.8,0.2,24.6c1.9,2,5.2,4,7.8,3.8
		C1375.2,631.4,1379.1,626.3,1379,616.3L1379,616.3z"/>
	<path class="st0" d="M818.5,641v-53.5c0-4.6-0.5-5-5.3-5h-16.9c-0.6-3.3-1.3-6.2-1.6-9.1c-0.2-2.2,1.3-3.2,3.4-3.1
		c3.2,0.1,6.5,0.2,9.8,0.2h45v11.9h-15.5c-6.7,0-6.9,0.2-6.9,6.7v44.4c0,7.4,0,7.4-7.3,7.4L818.5,641z"/>
	<path class="st0" d="M1703.7,620c2.9,12.7,13.2,15,19.4,10.5c1.1-0.8,2.5-1.9,2.7-3c0.4-3.1,2.7-3.2,4.8-3.5
		c4.7-0.4,6.2,1.9,4.3,6.3c-4.4,9.9-18.2,15.2-28.7,10c-9.1-4.6-13.4-11.6-13.5-21.6c0-6.3,0.6-12.3,4.2-17.7
		c4.1-6.3,9.3-9.7,17.3-10c11.9-0.6,21,6,22.9,19.6c0.2,0.6,0.4,1.1,0.7,1.6c1.7,6.1,1,7-5.3,7.2c-9.3,0.2-18.6,0.5-28.6,0.8
		L1703.7,620z M1724.4,610.6c0-6.3-2.3-9.9-6.3-9.8c-3.6,0.2-7.3-1-11,1.7c-3.1,2.3-1.4,5.2-3.3,7.2
		C1710.8,614.4,1717.3,609.5,1724.4,610.6z"/>
	<path class="st0" d="M1863,624.2c-0.6,11.8-12.5,20.1-23.9,17.7c-17.1-3.5-23.2-20.6-18.2-35.1c3.4-10,9.9-15.2,20.8-16.1
		c4.4-0.4,8.8,0.8,12.5,3.2c3.6,2.4,6.9,5.7,7.9,10.3c0.7,3,2.1,6,2.3,9.1c0.4,5.3,0,5.5-5.2,5.5h-27.4c-0.4,6.9,4.1,11.8,10.5,12.3
		c4.7,0.3,8.8-0.4,11.7-4.6C1856,623.4,1859.2,623.6,1863,624.2L1863,624.2z M1851.7,610.2c0.3-6.8-3-10.4-9.2-10.7
		c-5.3-0.2-11.7,5.2-12,10.7H1851.7z"/>
	<path class="st0" d="M1445.6,619.3h-32.9c-0.6,5.5,2.2,9.8,7.4,12.3c4.2,1.9,9,0.9,12.2-2.4c1.7-1.6,3.3-3.6,5.4-4.5
		c1.8-0.6,3.8-0.4,5.4,0.7c0.7,0.5,0.6,3.3,0,4.7c-5.1,12.3-26.4,17.9-37.3,3.8c-10.3-13.4-6.7-30.2,5.7-40
		c11.2-8.9,30.5-0.4,32.5,13.7C1444.5,611.2,1445,614.9,1445.6,619.3L1445.6,619.3z M1432.7,610.3c0.8-4.5-1-7.5-4.5-9.6
		c-3.6-2.1-8.1-1.7-11.3,1c-2.4,2.2-6.3,4.1-4.2,8.6L1432.7,610.3z"/>
	<path class="st0" d="M965.5,640.7v-22c0-6.9,0.2-13.8,0.3-20.7c0-2.1-0.7-5.1,2.4-5.5c2.1-0.2,4.7,0.8,6.7,1.8
		c1.1,0.5,1.7,2.1,2.5,3.2c3.2-1.8,5.9-4,9-5.1c13.8-4.8,21.4,3.2,22.4,14.6c0.8,9.8,0.6,19.7,1.1,29.6c0.1,3.6-1.3,4.7-4.6,4.5
		c-2.8-0.2-5.6,0-8.7,0c0-9.2,0.1-17.9,0-26.6c0-2.5-1-5-1-7.6c0-5.5-4.8-4.8-7.8-5.8c-3.1-0.9-6.4,0.6-7.7,3.6
		c-1.6,3.3-3.2,6.7-2.9,10.8c0.6,6.4,0.1,12.9,0,19.4c0,5.8-0.4,6.1-6.3,6.1C969.3,641,967.8,640.8,965.5,640.7z"/>
	<path class="st0" d="M1618.5,640.3c-0.7,0.3-1.5,0.5-2.2,0.7c-6.7,0.3-9.9-2.8-9.8-9.4c0.1-10.9,0.2-21.9,0.3-32.9
		c0-2.4-0.7-5.2,2.5-6c3-0.8,6.7-0.9,8.3,2.1c1.8,3.5,3.4,3,5.2,0.7c3.3-4.1,7.8-4.9,12.6-4.4c6,0.6,10.5,3.3,12.1,9.3
		c1.2,4,1.9,8.2,2.1,12.3c0.3,7.7,0,15.4,0,23.1c0,2.1-0.2,4.1-2.9,4.3c-2.7,0.3-5.4,0.3-8.1,0.2c-0.4,0-0.9-2.5-1-3.8
		c-0.1-6.7,0-13.4-0.1-20.1c-0.1-3-0.4-5.9-1.1-8.8c-0.8-4.1-3.8-6.7-7.3-6.8c-4.6,0-9.5,3.3-9.9,7.4c-0.6,6.7-0.7,13.4-0.9,20
		c-0.2,4,0,8,0,12.1L1618.5,640.3z"/>
	<path class="st0" d="M904.8,619.1h-34.3c1.5,9,9.7,14.5,17.4,12c1.5-0.4,3.4-1.4,3.9-2.6c2.1-5.3,6.3-4.9,10.6-4.3
		c1.5,5.5-1,10.7-7,14.2c-14.9,8.6-30.8,1.7-34.9-15.2c-2.7-10.9,2.1-23,10.8-28.9c12.4-8.3,28.7-0.8,32.1,13.7
		C904,611.4,904.2,614.9,904.8,619.1z M891.7,610.5c1.1-7-0.4-8.9-6.4-9.8c-1-0.2-1.9-0.4-2.9-0.7c-4.8-1.1-9.6,2-10.7,6.8
		c-0.5,2.1,0.1,3.5,2.7,3.5L891.7,610.5L891.7,610.5z"/>
	<path class="st0" d="M1573.8,641c-10,2-21.8-8.6-23.1-22c-0.7-7.1,0-13.7,5.2-20c6.5-7.9,14.5-9.2,23.3-7.5
		c9.3,1.8,14.6,8.2,17.1,17.5c1.8,6.8,1.8,13.4-1.4,19.2C1590.4,636.3,1583.9,642.1,1573.8,641L1573.8,641z M1585,617L1585,617
		c0-1.8,0.2-3.6,0-5.5c-0.6-5.2-4.6-10.1-8.3-10.8c-5.8-1-8.9,0.7-12.4,6.1c-3.8,5.8-3.2,11.7-0.9,17.6c1,2.6,3.8,4.5,5.7,6.7
		c2.6,2.8,5.2,0.2,7.8,0c5.2-0.4,7.6-3.6,8.1-10C1585,619.7,1585,618.3,1585,617L1585,617z"/>
	<path class="st0" d="M1115.6,641c-9.3,2.1-18.8-7-22-18.2c-3.5-12.2,3.1-25.3,14.8-30.6c5.3-2.4,18.6-1.3,23.6,4.5
		c7.5,8.9,9.4,18.5,6.1,29.4C1135.5,634.4,1127.1,642.5,1115.6,641L1115.6,641z M1103.7,617.5c1,3.2,1.8,6.4,3,9.5
		c1.6,4.1,5.2,5.4,9.2,5.4c4.2,0,7.6-1.6,9.5-5.8c3-6.1,3-13.3,0.1-19.4c-2-4.5-4.9-6.4-9.6-6.3s-7.7,1.9-9.4,6.7
		C1105.4,610.7,1104.7,613.9,1103.7,617.5L1103.7,617.5z"/>
	<path class="st0" d="M1294,641c-11,0-19.1-7.3-21.8-18.6c-2.3-9.6,0-17.5,6.3-24.8c9.8-11.4,31.5-7.8,37.1,6.9
		c3,7.9,2.7,15.4,0.4,22.9C1313.6,635.7,1304.2,641,1294,641z M1305.5,617.4L1305.5,617.4c0-1.8,0.2-3.7,0-5.5
		c-0.5-5.5-4.5-10.5-8.7-11.1c-5.8-0.8-10.5,2-13,7.7c-2.7,6.1-1.8,12,0.9,17.7c2.2,4.5,7.1,7,11.3,6.1c6.2-1.4,9.4-5,9.5-10.7
		L1305.5,617.4L1305.5,617.4z"/>
	<path class="st0" d="M1062.7,616.4c1.1,11.2-4.3,18.1-13.3,22.6c-6.3,3.5-14,3.4-20.3-0.2c-8.6-4.8-12.3-12.6-12.9-22.4
		c-0.5-7.2,1.9-13,6.6-18.1c10.6-11.4,28.6-9.4,36.6,4.1c2.7,4.5,4.2,9.2,3.3,13.9V616.4z M1050.5,617.7c0-1.8,0.1-3.7,0-5.5
		c-0.4-5.5-4.4-10.7-8.5-11.4c-5.8-1-10.8,2-13.3,7.9c-2.7,6.1-1.6,12,1,17.7c2,4.3,6.8,6.7,11.4,5.8c6.1-1.5,9-4.8,9.3-10.3
		L1050.5,617.7z"/>
	<path class="st0" d="M1870.2,592.3h4.5c2.1-0.2,4.7-1.2,6.1-0.2c1.3,0.8,1.2,3.8,2,5.7c2.8,7.7,5.7,15.4,8.5,23
		c0.5,1.4,1.1,2.9,2,5c1.3-1.9,2.4-3.1,2.9-4.5c3-8.2,5.8-16.6,8.8-24.8c1.4-3.8,5.8-5.8,8.9-4.6c1.9,0.8,2.4,1.8,1.7,3.6
		c-2.1,6-4,12-6.3,17.9c-5.1,13.3-10.3,26.5-15.4,39.8c-2.5,6.6-6.3,7.9-13.4,4.2c1.6-3.1,3.2-6,4.5-9.2c1.8-4.6,2.4-9.2,0.5-14
		c-4.9-12.3-9.6-24.8-14.3-37.2C1870.6,595.8,1870.6,594.3,1870.2,592.3L1870.2,592.3z"/>
	<path class="st0" d="M1263.2,620.6c1.1,9-4.1,17-12.8,20.2s-16,0.4-22.2-5.3s-8.5-13.5-8.6-21.7c0-7.9,9.3-21,16.7-22.5
		c5.4-0.9,11-0.8,16.3,0.4c5.7,1.1,11.5,10.3,11.4,16.4c-0.1,1.4-0.9,2.7-2.1,3.5c-1.8,0.6-3.9,3-5.9,0.4c-0.9-1.1-1.5-2.3-2-3.6
		c-1.6-5.1-5.4-7.2-10.4-7.6c-5.3-0.4-8.1,2.7-10,7.1c-2.6,5.9-2.6,12.6,0.2,18.5c1.5,3.6,5.1,5.9,9,5.8c3.8,0,8.5-0.7,10-5.8
		S1257.4,619,1263.2,620.6L1263.2,620.6z"/>
	<path class="st0" d="M954.3,620.9c1.5,8-3.1,15.4-11.5,19.3c-11.5,5.3-23.8-2.1-28.3-11.9c-5-11-3.2-21.3,3.9-30.4
		c2.1-2.8,6-4.7,9.5-6c12.7-5,25.7,2.4,27.2,15.2c0.4,3.4-0.7,5.2-3.8,5.9c-2.7,0.6-5.4-1-6.1-3.7c-1.9-6.2-5.6-8.9-11.6-8.5
		c-5.5,0.3-9.9,4.6-10.4,10c-0.4,5-1,10,1.3,14.8c1.9,4,4.6,6.6,9.1,6.7s8-1.4,10.3-5.7C947.5,619.8,947.6,619.9,954.3,620.9
		L954.3,620.9z"/>
	<path class="st0" d="M1672.4,577.8c0.4,1.8,0.6,3.7,0.7,5.5c0.2,8-1.6,9.3,8.3,8.9c2.1-0.1,3.8,0,4.7,2.6c1.1,3.4,0,5.6-3.6,5.9
		c-2.4,0.2-4.9,0-8.3,0v7.2c0,5.7-0.2,11.4,0,17.1c0.1,6.1,0.4,6.3,6.2,6.3c0.8-0.1,1.6-0.1,2.4,0c1.5,0.3,2.9,0.8,4.4,1.3
		c-0.6,1.8-0.7,3.8-1.8,5.2c-3.2,4.2-8.9,5.1-14.8,3.2s-7.8-5.2-8.4-12.9c-0.6-7.5-0.2-15-0.1-22.5c0-3-0.2-5.2-4-6.3
		c-3.2-0.9-3.2-4.4,0-5.6c4.9-1.8,6.4-5.3,7.8-9.7c0.8-2.4,2.8-4.5,4.2-6.8c0.7,0.2,1.4,0.4,2.1,0.5L1672.4,577.8z"/>
	<path class="st0" d="M1084.2,570.7v21.4c-0.2,15-0.4,30-0.5,45c0,3-1.1,4.1-4,3.8h-1.2c-6.7,0.2-6.4,0.2-6.4-6.5
		c0-17.9-0.2-35.8-0.2-53.6C1071.8,571.3,1069.7,569.5,1084.2,570.7L1084.2,570.7z"/>
	<path class="st0" d="M1745.7,640.9v-21.3c0-3.5,0.7-7.2-1.7-10.4c-0.4-0.6-0.4-1.3-0.2-1.9c3.6-4.4,0.9-9.3,1.8-14.3
		c4-1.4,8.4-0.6,11.7,1.9c1.8,1.3,3,1.3,4.8,0c1.8-1.3,3.7-2.5,5.7-3.4c4.2-1.9,8,0.3,8.3,4.7c0.2,1.7,0.6,3.5,1,5.2
		c-2.7,0.6-5.4,1-8,1.8c-2.2,0.7-5.2,1-6.3,2.6c-1.9,2.8-4.2,5.7-4.1,9.8c0.2,7.3,0,14.6-0.2,21.9c-0.1,4.8-0.2,4.8-5.1,4
		c-2.5-0.3-5.1-0.5-7.7-0.4L1745.7,640.9z"/>
	<path class="st0" d="M1814.2,591.3v5.8c0,5.9-0.2,6.1-6.1,6.2c-8.9,0.2-12,3.2-12.3,12.3c-0.2,6.7,0,13.4,0,20
		c0,1.6-0.2,3.2-0.3,5.1h-12c0-6.1,0.1-12,0-18c-0.1-3.1-1-6.3-1.1-9.4c0-1.9,1-3.8,1-5.8c0.2-3.6,0-7.3,0-10.9c0.1-3.2,2-4.9,5-4.1
		c3.1,1,6.2,2.1,9.2,3.4c4.1-4.3,9.4-5.7,16.5-4.5L1814.2,591.3z"/>
	<path class="st0" d="M1199.6,592.8c11.7-1.6,12.2-1.3,12.2,9.5c0,11.5-0.4,23-0.6,34.5c0,3.2-1.5,4.4-4.5,4.1
		c-1.6-0.2-3.4,0.4-4.8-0.2c-1.2-0.4-2.8-2.1-2.8-3.2c0-4.1,0.7-8.2,0.7-12.3c0.1-7.7-0.2-15.4-0.2-23.1L1199.6,592.8z"/>
	<path class="st0" d="M1622.8,381.5v21.1h-24.4V385c0-2.6,1.3-3.5,3.8-3.5L1622.8,381.5L1622.8,381.5z"/>
	<path class="st0" d="M1211.1,570.7v8c-0.2,4.4-1,5.1-6.7,5.1c-5.2,0-5.5-0.2-5.5-4.8c-0.2-7.2,1.6-8.9,8.8-8.5
		C1208.7,570.5,1209.6,570.7,1211.1,570.7L1211.1,570.7z"/>
	<path class="st0" d="M1114.3,584.5c0.2-11.2,3.5-14.5,13.1-13.9C1127.7,578.7,1121.9,585.1,1114.3,584.5z"/>
</g>
</svg>
