<svg id="Layer_1" data-name="Layer 1" xmlns="http://www.w3.org/2000/svg" viewBox="0 0 1920 2706.55"><defs><style>.cls-1{fill:#0033a0;}</style></defs><path class="cls-1" d="M999.73-1608.88c18.24,2.16,36.43,4.68,54.71,6.44,143.59,13.84,277.71,57.26,400.35,133q352.49,217.62,443.86,622.81a917.73,917.73,0,0,1,15.08,303.9c-23.24,208.18-105.21,390.08-246.57,544.15-145,158-323.89,256.64-534.87,295.91-16.31,3-32.75,5.24-50.38,8V171.45c23.51-4.6,46.34-8.68,69-13.56,82.73-17.83,161.31-46,231.92-93.93a479.16,479.16,0,0,0,108-100.45c3.16-4,5.84-8.52,10-14.63H418.6c4.79,6.79,8,11.63,11.39,16,61.66,77.94,141.6,129.72,234.13,163.35a862,862,0,0,0,155.67,39.55c5.88,1,11.64,2.28,18.39,3.64V304.77c-14.59-1.92-28.39-3.32-42-5.64C455.66,241.3,168.35-1.74,54.07-328.4A969.06,969.06,0,0,1,1.33-598.51c-22.84-435.87,251.44-824,651.79-958.74a968.05,968.05,0,0,1,244.57-48.23,201,201,0,0,0,20.67-3.4ZM539.32-370.46l3.12-1.28a56.91,56.91,0,0,0,1-7.68c0-44.91,12.91-86.49,32.23-126.4,24-49.63,56-93.77,91.69-135.6,32.71-38.51,70.42-72,106.36-107.28q218.65-214.69,435.87-430.63a298.55,298.55,0,0,0,55.78-77.66,215,215,0,0,0,24-80.49c4.88-62.06-20-112.88-60.9-157.19a22.57,22.57,0,0,0-7-3.2c-.72,3.28-1.4,5.36-1.64,7.48-5.91,51.58-27.67,96.85-58.7,137.27a1062.34,1062.34,0,0,1-82.85,97.89c-62.1,63.54-126.24,125.08-189.7,187.27C805-986.07,721-904.58,637.77-822.36c-22.72,22.43-44.39,46.06-64.82,70.58A414.82,414.82,0,0,0,499.69-626c-30.79,86-21.63,167.14,30.11,243C532.6-378.66,536.08-374.66,539.32-370.46ZM954.67-1564c-.28,4.8-.72,8-.56,10.84,2.36,37.71-6.68,73.05-21.92,107.12a376.41,376.41,0,0,1-74.25,108c-29.71,30.79-60.42,60.58-90.89,90.65q-163.2,160.79-326.42,321.54a513.4,513.4,0,0,0-90.45,116.4c-38.39,69.46-52.59,142.8-33.63,220.94,16.83,69.25,54.7,126.68,102.57,178.22a45.38,45.38,0,0,0,8,5.08c-4.76-22-9.43-41.91-13.39-62-17.56-88.9-3.4-172.27,44-249.68a514.35,514.35,0,0,1,76.78-96.21c43.11-42.67,86.73-84.82,129.84-127.52q156.43-155,312.42-310.35c28.27-28.23,50.82-60.58,64-98.69q25.14-72.63-14-139a266.06,266.06,0,0,0-64-70.82A56,56,0,0,0,954.67-1564ZM721.1-100.23l2.64-1.8c-1.12-4.64-2.52-9.19-3.24-13.87-3.32-20.8-8-41.55-9.24-62.46-3.68-68.7,13.6-133.16,43.23-194.58,32.43-67.1,77-125.56,129.64-177.79,110.8-109.88,222.37-219,333.25-328.77,31.16-30.83,61.91-62.22,91.06-94.93a260.06,260.06,0,0,0,55.7-101.85c18.11-62.74,8.64-123.32-14.52-182.78a31.13,31.13,0,0,0-4-5.84c-16.55,50.66-48,90.65-81.37,129.2-24.79,28.67-50.42,56.74-77.38,83.37Q981.46-849.8,775-648.22c-40.58,39.71-76,83.22-102.72,133.4C631.89-439,609.82-359.19,621.85-272.49a257.34,257.34,0,0,0,88,163.74C713.22-105.63,717.3-103,721.1-100.23Zm217.13-.44c-1-11.31-2.2-20.91-2.48-30.51-1.56-50.42,12-97.49,33.19-142.63a598.76,598.76,0,0,1,99.37-148c35.19-38.94,72.46-76,109.85-113,102.56-101.25,205.69-201.86,308.5-302.91,26.67-26.23,52.22-53.54,71.7-85.85A229.48,229.48,0,0,0,1593-1046.93a315.29,315.29,0,0,0-23.28-112.21,58.81,58.81,0,0,0-4.27-7.43c-11.4,19.67-20.8,40-33.83,57.5-23.2,31.27-46.55,62.9-73.54,90.85-66.22,68.54-134.36,135.28-202.1,202.38-94,93-188.46,185.42-282.39,278.43-35.55,35.23-67.06,73.82-90.33,118.48C856.66-368,845.42-314.32,855.66-257.06c10.52,58.78,39.43,108.37,77,153.59C933.23-102.67,934.47-102.47,938.23-100.67Zm214.66,3c6-20.39,10.07-37.87,16.35-54.46a420.57,420.57,0,0,1,23-50.19,629.07,629.07,0,0,1,106-141.23c40.87-41.87,83.29-82.22,124.56-123.72,29.39-29.59,59.42-58.7,86.49-90.33,49.35-57.59,68.5-125.69,62.38-200.86-1.56-19.28-5.51-38.31-8.35-57.46-10.72,11.39-17.28,24-26.35,34.31-19.28,21.95-39.11,43.54-60,64-84.25,81.17-169.5,161.39-253.56,242.8-62.54,60.5-104,133-115.2,220.33-6.64,51.1,2.4,99.33,32.71,142.24C1144-107.83,1148-103.63,1152.89-97.71Z" transform="translate(0 1608.88)"/><path class="cls-1" d="M1900.57,868.27c-14.07,1.32-22.43,9.64-27.67,22.19-9.2,22.07-18.87,44-28,66.14q-20.52,49.78-40.39,100c-3.72,9.36-6.72,19-9.64,28.71a21.84,21.84,0,0,1-7.79,12.4H1777l-4.76-2.68a22.56,22.56,0,0,1-12-14,11.45,11.45,0,0,1,3.43-12.27,43.08,43.08,0,0,1,7.28-5.24c17.76-10,27.15-26.23,33.67-44.67a21.94,21.94,0,0,0-1.28-15.35c-7.76-21.08-15.35-42.23-23.31-63.22-6.28-16.64-12.92-33.11-19.43-49.67-.64-1.56-1.36-3.08-2-4.64a25.4,25.4,0,0,0-20.8-16.71,10.85,10.85,0,0,1-2.72-.68,13.36,13.36,0,0,1-1.32-.64v-8c4-1.4,73.3-1.6,78.9-.2v8.48c-3,.92-5.84,1.64-8.64,2.64-5.68,2.12-7.12,4.92-5.84,10.87a39.56,39.56,0,0,0,1.24,4.32q13.15,37.9,26.36,76c.39,1.2,1,2.32,1.83,4.28a25.8,25.8,0,0,0,2.16-3.6q13.28-37.59,26.48-75.18a15.87,15.87,0,0,0,.75-2.72c1.44-7.47-.67-11.23-8-13.75-3.12-1.08-6.4-1.84-9.6-2.72V859h55.14c2,0,4-.28,6.12-.44Z" transform="translate(0 1608.88)"/><path class="cls-1" d="M719.58,1000.51v9.79H622.53c0-1.36-.28-2.4-.32-3.47v-6.48c3.2-.56,6.12-1,9-1.56a72.12,72.12,0,0,0,7.12-1.52A13.67,13.67,0,0,0,649,985.47a152,152,0,0,0,1.32-20c0-30.75-.2-61.46-.32-92,0-14,0-28-.24-42.15a15.72,15.72,0,0,0-1.36-6.4c-7.71,14.88-14,30.23-20.63,45.35s-13.36,31-20,46.42l-19.88,45.59-20,45.74h-8c-12-29.83-24.27-60-36.51-89.73s-24-60-36.83-90.33a8.36,8.36,0,0,0-1.8,6.56c-1,18.67-2.07,37.39-2.83,56q-1.48,35.31-2.48,70.74a178.69,178.69,0,0,0,1,19.63,16,16,0,0,0,12.83,15.72c3.44.84,7,1.4,10.44,2,2.52.48,5.08.8,8,1.24v9.71c-4,1.12-72.94,1.48-81.22.36v-10l5.88-1.28c2-.4,4-.76,6-1.28a20,20,0,0,0,16-17.44c1.72-11.07,3.56-22.19,4.48-33.35q4.61-56.53,8.6-113.12a124.59,124.59,0,0,0-.68-20.71A15,15,0,0,0,459,799.25c-3.6-1-7.28-1.6-11-2.28-2-.36-4-.6-6.36-.92V785.69H507l71,159.39c1.43-2.87,2.39-4.63,3.19-6.39Q614.7,865,648,791.41a8.41,8.41,0,0,1,9.2-5.92c17.39.32,34.83,0,52.22,0a52.72,52.72,0,0,1,6.44.28v10.08c-4,.56-7.48,1-11.11,1.6-2,.36-4,.84-6,1.32a14.08,14.08,0,0,0-11.48,13.52,107.67,107.67,0,0,0-.68,12.31q1,45.82,2.12,91.57.72,27.51,1.68,55a84.7,84.7,0,0,0,1.2,11.71,15.71,15.71,0,0,0,13.48,14.52A135.07,135.07,0,0,0,719.58,1000.51Z" transform="translate(0 1608.88)"/><path class="cls-1" d="M105.33,787.93v-8.67l61.38-11.64c0,2.08.32,4.44.32,6.76V967.64a104.45,104.45,0,0,0,.6,11.19c.8,7.64,3,10,10.6,11.56,4,.8,8.48,1.24,13.16,1.92v8.88l-61.86,13.11V994.87c-2.08.88-3.28,1.24-4.32,1.84l-15.24,9.6c-1.12.67-2.28,1.31-3.36,2a40.74,40.74,0,0,1-35.47,4.52,73,73,0,0,1-51.38-60c-6.08-42.74,21.31-81.49,64-94A84.6,84.6,0,0,1,124,856c1.44.28,2.92.36,4.68.6a11.16,11.16,0,0,0,.76-2.8c0-16.63,0-33.31-.36-49.94-.24-9.24-3.68-12.64-12.72-14.28C112.89,788.93,109.37,788.49,105.33,787.93Zm24.24,145.84V891.1a2.62,2.62,0,0,1,0-.56,12.87,12.87,0,0,0-3.16-9.28A30.92,30.92,0,0,0,83.3,874,28.32,28.32,0,0,0,80.86,876a47.76,47.76,0,0,0-15,23.27,100.53,100.53,0,0,0-3.24,47.14,58.79,58.79,0,0,0,14.39,31.11,37.71,37.71,0,0,0,48,8,7.76,7.76,0,0,0,4.64-8C129.45,963,129.53,948.36,129.57,933.77Z" transform="translate(0 1608.88)"/><path class="cls-1" d="M1078,1001.15v9.15h-76.5l-.48-9,6.12-1.4c8-1.52,10.68-4,12-12a74.9,74.9,0,0,0,.84-11.2V913.21a73.11,73.11,0,0,0-1.12-11.71c-3.32-18.92-17-25.75-33.63-22a50.86,50.86,0,0,0-20.64,11,8.28,8.28,0,0,0-2,4.24,15.75,15.75,0,0,0,0,4v74.74a138.67,138.67,0,0,0,.83,14.55,11.45,11.45,0,0,0,10.72,11.72c2.16.48,4.36.84,6.68,1.32v9.23H901.52c0-1.48-.4-2.88-.48-4.31s0-3,0-4.92c2.64-.48,5-1,7.28-1.36,12.88-1.88,16.24-5.12,16.32-18.2.28-29.19,0-58.42,0-87.61a44.76,44.76,0,0,0-.32-4.48A12,12,0,0,0,915,878.07c-3-.88-6.08-1.68-9.32-2.56V868l56.46-13.16v23.56c2.8,1.12,4-.76,5.4-1.72,8-5.32,15.68-10.84,23.72-16a41.43,41.43,0,0,1,30.79-5.36,39.2,39.2,0,0,1,30,24.39,73.74,73.74,0,0,1,5.43,29.64v68.53a107,107,0,0,0,.92,11.72,10.45,10.45,0,0,0,8.64,9.16C1070.63,999.67,1074.11,1000.31,1078,1001.15Z" transform="translate(0 1608.88)"/><path class="cls-1" d="M889.41,931.45a86,86,0,0,1-13,48.66,74.52,74.52,0,0,1-56,34.19,80.78,80.78,0,0,1-39.23-4.44c-29.51-11.23-45.22-33.35-48.7-64.26a79.86,79.86,0,0,1,6-41.82c13.47-30.35,37.26-46.83,70.17-48.87a72.29,72.29,0,0,1,68.74,34.51A73.51,73.51,0,0,1,889.41,931.45Zm-42.51,7.48c-.28-4.56-.52-11.68-1.32-18.72a99.48,99.48,0,0,0-7.72-30.31,44.14,44.14,0,0,0-11.71-16.23A25.87,25.87,0,0,0,789.58,875a25.59,25.59,0,0,0-2.38,3A53.7,53.7,0,0,0,778,898.3a134,134,0,0,0-.56,56.78,83.6,83.6,0,0,0,12,31.79,36.74,36.74,0,0,0,12.79,12.36A25.48,25.48,0,0,0,837,990.39a54.66,54.66,0,0,0,5.4-12.28,139.9,139.9,0,0,0,4.52-39.18Z" transform="translate(0 1608.88)"/><path class="cls-1" d="M1315,971.12c1.84,2.64,3.44,4.87,5.16,7.39-.84,1.32-1.52,2.64-2.4,3.76a92.47,92.47,0,0,1-31.75,26.27,66,66,0,0,1-85.17-26.87,83.07,83.07,0,0,1-9.8-49.34,86.26,86.26,0,0,1,41.67-67.18,62.71,62.71,0,0,1,35.51-10.52,55.26,55.26,0,0,1,52.3,43.07,62.46,62.46,0,0,1,1.16,12.28,9.47,9.47,0,0,1-8.24,10.56,8.24,8.24,0,0,1-1,.07c-4,.6-8,.88-11.76,1.12q-30.83,2-61.62,3.8l-12,.88a104.57,104.57,0,0,0,1.32,12.48,107.21,107.21,0,0,0,5.6,19.31c10.8,24.31,35.19,34.39,60.18,25.19a61.25,61.25,0,0,0,10.6-5.12C1308.16,976.27,1311.2,973.8,1315,971.12Zm-86-59.71c17.36-.51,33.55-.91,49.75-1.55,4,0,5.59-2,5.67-6.24a41.44,41.44,0,0,0-7.71-26.91,20.44,20.44,0,0,0-28.3-5.86,19.55,19.55,0,0,0-3.05,2.46C1234.38,883.1,1230.82,896.26,1229,911.41Z" transform="translate(0 1608.88)"/><path class="cls-1" d="M1634.81,926.33a70.6,70.6,0,0,0,11.48,40.51c12.92,18.67,36,24.95,57.82,15.43a182.51,182.51,0,0,0,18.52-10.63l4.88,6.67c-.92,1.44-1.64,2.72-2.56,4a82.52,82.52,0,0,1-43.31,30.47,65.46,65.46,0,0,1-76.34-36.67,88,88,0,0,1,44.59-116,54.69,54.69,0,0,1,76.66,33.35,59.36,59.36,0,0,1,2.48,15.44c.27,8-3.08,11.35-11,12q-24.91,1.92-49.83,3.56c-8.75.6-17.55.92-26.31,1.4C1639.85,925.85,1637.65,926.33,1634.81,926.33Zm1.52-15.36h10.6c12.52-.32,25-.59,37.55-1,5.68,0,7.32-1.92,7.4-7.48a41.41,41.41,0,0,0-7.72-25.83,20.35,20.35,0,0,0-28.18-5.9,20,20,0,0,0-2.77,2.18c-11.36,9.79-14.84,23.23-16.88,38.19Z" transform="translate(0 1608.88)"/><path class="cls-1" d="M243.57,926.33c.56,15.76,3.56,29.83,12.64,42,13.07,17.59,35.59,23.19,56.9,14a121.36,121.36,0,0,0,13.51-8c1.44-.88,2.68-2,4.52-3.32l5.72,7.71c-3.36,4-6.44,8-9.88,11.48a77.72,77.72,0,0,1-36.3,22.47A65.9,65.9,0,0,1,214.3,976a88.81,88.81,0,0,1,22.59-102,78.89,78.89,0,0,1,36-18.6A55.07,55.07,0,0,1,338,906.5v2.24c0,8-3,11.31-11,12-23.71,1.68-47.42,3.2-71.13,4.76Zm1.84-15.63c2.28,0,4,.32,5.56.32h14.55c9.32-.24,18.68-.56,28-1,4.76,0,7-1.68,7.16-5.4A39.33,39.33,0,0,0,290,873.31a19.76,19.76,0,0,0-24-3.08A32,32,0,0,0,254.17,882a61.16,61.16,0,0,0-8,21.4c-.16,2.28-.36,4.6-.76,7.36Z" transform="translate(0 1608.88)"/><path class="cls-1" d="M1103.18,873.75h-17.11a26.7,26.7,0,0,1-4,0,2.8,2.8,0,0,1-2.12-4.52,80,80,0,0,1,8-9.44,6.78,6.78,0,0,1,4-1h10.48c.26-1.52.45-3.06.56-4.6V841.8c0-10.16-1.56-7.12,6.88-13.76,7.68-6,15.39-12,23.15-17.83a8.24,8.24,0,0,1,4-1.88c2.44-.2,3.64,1.64,3.64,5.12v44.9c2.16,0,4,.4,5.76.4h25.27c5.52,0,7.2,1.68,7.12,6.8s-2.72,8.28-7.56,8.32H1146a27.58,27.58,0,0,0-4.88.32c0,1.8-.44,3.4-.44,5v82a66.43,66.43,0,0,0,2.28,16.59c3.08,11,10.2,15.48,21.51,14.24a78.5,78.5,0,0,0,10.4-2.32c1.4-.32,2.8-.8,4.64-1.32,1,3.28,1.92,6.28,2.8,9.16a10.07,10.07,0,0,1-1.52,1.32c-9.44,4.56-18.8,9.27-28.35,13.51a36,36,0,0,1-32-2.2c-10-5-14.52-14.27-16.32-24.87a81.53,81.53,0,0,1-1.12-14V881.46Z" transform="translate(0 1608.88)"/><path class="cls-1" d="M1333.19,1010.3v-9.15l5.52-1.16,5.52-1.08a12.23,12.23,0,0,0,10.63-11.4,82.27,82.27,0,0,0,.88-10v-80a75.41,75.41,0,0,0-.88-9.48,11,11,0,0,0-8-9.71c-3.35-1.12-6.79-1.92-10.51-3v-7L1393,855.27a97.24,97.24,0,0,1,.52,17.48V889.9l1.24.36c1.08-1.6,2.24-3.16,3.28-4.8a101.41,101.41,0,0,1,17.43-21.87,28.62,28.62,0,0,1,18.32-8.88,20.71,20.71,0,0,1,16.91,35.07,32.83,32.83,0,0,1-9.48,6.68,8,8,0,0,1-9.43-1.2,46.88,46.88,0,0,0-8-5.2,15.07,15.07,0,0,0-17.39,2c-7.72,6.6-13.2,14.44-13,25.47.32,21,0,42,0,62.94,0,14,3.68,17.84,17.63,19.44l10.28,1.2v9.23Z" transform="translate(0 1608.88)"/><path class="cls-1" d="M1529.53,855.11v34.75l1.12.32c.92-1.24,1.8-2.52,2.76-3.76,5.31-7,10.39-14.19,16-20.83a44.73,44.73,0,0,1,10.64-8,21.28,21.28,0,0,1,17.35-1.88,20,20,0,0,1,15,20,23.55,23.55,0,0,1-16.84,21.55,8.87,8.87,0,0,1-8-1.84,42.7,42.7,0,0,0-6.92-4.72,15.53,15.53,0,0,0-18.84,1.8c-7.43,6.6-12.79,14.32-12.59,25.11.36,20,0,40,0,60a67,67,0,0,0,.36,9,12.43,12.43,0,0,0,11.23,12.2c3.08.68,6.28.92,9.4,1.4l6.92,1v9.19h-88V1001c2.24-.4,4.55-.88,6.91-1.24,10.64-1.6,14.2-5.32,15.16-16,.24-2.44.24-4.88.24-7.32V898.94a86.87,86.87,0,0,0-.92-11.16,10.74,10.74,0,0,0-8-9.23c-3.36-1.08-6.84-1.92-10.59-3v-7.24Z" transform="translate(0 1608.88)"/><path class="cls-1" d="M1263.65,704.24c-17.19-6.64-28.79-16.83-30.55-35.63a90.67,90.67,0,0,0,33.59-22.35l-4.8-2.52a48.43,48.43,0,0,1-27-52c3.24-20.6,15.2-34.27,33.75-42.35a73.42,73.42,0,0,1,61.5,0,21.2,21.2,0,0,0,10.84,2c12.47-1.2,25-2.36,37.42-3.4a35.14,35.14,0,0,1,6.4.52c-.72,2.2-1.36,4.44-2.12,6.6a12.52,12.52,0,0,1-1.44,2.44c-7.15,11.27-9.15,12.23-22.27,10.91-2.24-.24-4.44-.4-7.28-.64a29.76,29.76,0,0,0,1.32,3.44,49.71,49.71,0,0,1-15.63,68,73,73,0,0,1-48,10.92l-5.56-.6c-5.75-.56-8,.88-10.79,6.47a9.43,9.43,0,0,0,2.48,12,21.49,21.49,0,0,0,8,4,38.49,38.49,0,0,0,10.52,1.28c12.92,0,25.83-.4,38.75,0a83.08,83.08,0,0,1,20,3.2c20,5.84,29,22,26.83,42.9-1.8,17.4-10.91,30.88-24,41.75a100.89,100.89,0,0,1-70.22,23.39,78.06,78.06,0,0,1-34.55-8.51,46.12,46.12,0,0,1-19-17.8c-7.56-13.11-5.64-25.39,6-35.11,6.6-5.51,13.71-10.35,20.63-15.51Zm40.63.28c-7.72.64-14.12.72-20.36,1.84a28,28,0,0,0-16.55,45.31,38.3,38.3,0,0,0,15.27,11.07,61.23,61.23,0,0,0,44.95.8,34.31,34.31,0,0,0,18.19-14.31c10.76-17.36,3.48-36.19-16-41.51a13.93,13.93,0,0,0-2.2-.48Zm-31.15-110.73a69.22,69.22,0,0,0,4.72,28,31.58,31.58,0,0,0,9.35,13.11,19.76,19.76,0,0,0,27.83-2.43c.34-.41.66-.82,1-1.25a25.66,25.66,0,0,0,3.64-6.32,72.38,72.38,0,0,0-1.48-55.22A25.27,25.27,0,0,0,1308,557.93a18.56,18.56,0,0,0-25.6,4,42.84,42.84,0,0,0-5.75,10.16,52.36,52.36,0,0,0-3.68,21.71Z" transform="translate(0 1608.88)"/><path class="cls-1" d="M176,698.92v-10.2c2.52-.36,5-.71,7.56-1.15,4.24-.76,8.52-1.36,12.63-2.48a14.75,14.75,0,0,0,11-12.28,58.6,58.6,0,0,0,1.2-10.56V485.87c-.92-.6-1.24-1-1.56-1-12.51.32-25,.4-37.51,1.16a22,22,0,0,0-19.63,13.87c-3.16,7.16-5.4,14.72-8,22.12-.68,1.92-1.08,4-1.68,6.24H129.21c1.24-19.52,2.48-38.83,3.75-58.39H323.71c1.11,19.08,2.23,37.87,3.39,57.47l-10.19,1c-.64-2-1.16-3.72-1.72-5.44-2.56-7.4-4.8-15-7.8-22.2a24.26,24.26,0,0,0-20.75-15,311.57,311.57,0,0,0-37.91-1.08c-.2,2-.48,3.64-.48,5.24V660.13a80.77,80.77,0,0,0,1.24,12.8,14.48,14.48,0,0,0,11.15,12,123.61,123.61,0,0,0,12.64,2.44c2.76.48,5.52.72,8.64,1.08V698.8Z" transform="translate(0 1608.88)"/><path class="cls-1" d="M674,689.44v8.72c-4,1.36-73.34,1.6-79.22.24v-9c3.76-.68,7.24-1.24,10.68-2,8.39-1.72,11.15-4.6,12.23-13a82.8,82.8,0,0,0,.64-10.08v-76c0-3.72-.44-7.48-.8-11.2a11.6,11.6,0,0,0-9.11-10.8l-9-2.52v-7.67l56-13.12c1.6,3.32.44,7.44.64,11.4s0,8.19,0,13.19c2-1,3.24-1.6,4.36-2.36,7.28-5,14.39-10.11,21.75-14.91a43.19,43.19,0,0,1,19.8-7.44c19.67-1.76,34.59,7.28,42.06,21.87a68,68,0,0,1,6.8,31.51V665q.11,5.88.8,11.72a11.27,11.27,0,0,0,9.88,10.63c3.12.68,6.2,1.2,9.75,1.92v9.48H695.07v-9.44l5.88-1.16c7.71-1.71,10.47-4.55,11.67-12.35a65.4,65.4,0,0,0,.52-9V600a56,56,0,0,0-2.32-15.43c-4-13.4-14.59-18.68-27.11-17.6A50.93,50.93,0,0,0,658,578.68c-2,1.52-1.8,3.56-1.8,5.6v82.05a85.93,85.93,0,0,0,.48,10.64,11.26,11.26,0,0,0,9.76,10.75C668.72,688.28,671.08,688.84,674,689.44Z" transform="translate(0 1608.88)"/><path class="cls-1" d="M868.73,703.2c-26.67,0-46.58-6.92-62.18-23.71a77.43,77.43,0,0,1-20-62.18,78.79,78.79,0,0,1,7.12-27.59c13.51-28,36-43.71,66.78-46.27,31.43-2.6,56.42,9.6,72.73,37.07s13.64,67.58-6,92.85A74.12,74.12,0,0,1,868.73,703.2Zm32.43-72.78c-.6-8.19-.88-16.43-1.88-24.59a88,88,0,0,0-8.83-30.51,40.05,40.05,0,0,0-12-14.56,25.72,25.72,0,0,0-36,4.6A50.19,50.19,0,0,0,833,584.24a126.35,126.35,0,0,0-2.84,49,100.88,100.88,0,0,0,10.47,37,44.67,44.67,0,0,0,13.16,16,25.75,25.75,0,0,0,36.1-4.81,26.93,26.93,0,0,0,2.09-3.19,58,58,0,0,0,5.39-13.48A142,142,0,0,0,901.16,630.42Z" transform="translate(0 1608.88)"/><path class="cls-1" d="M1209.39,622.19A81.31,81.31,0,0,1,1188.27,679a75.08,75.08,0,0,1-51.1,24,81.43,81.43,0,0,1-44-8c-25.39-13.23-38.5-34.71-40.7-62.94a81.4,81.4,0,0,1,7.71-43.18,77.68,77.68,0,0,1,64.62-45.15,73.07,73.07,0,0,1,63.7,22.63A76.66,76.66,0,0,1,1209.39,622.19Zm-42.71,8v-6.75a129.05,129.05,0,0,0-7.6-42.27,49.34,49.34,0,0,0-11.39-17.84c-10.2-9.83-29.11-13.47-41.27,4a57.33,57.33,0,0,0-8.52,19.4,130.31,130.31,0,0,0-1.72,49.58,101.5,101.5,0,0,0,9.6,32.67,46.69,46.69,0,0,0,12.32,16,25.86,25.86,0,0,0,40-7.68,64.91,64.91,0,0,0,5.48-14.64,128.89,128.89,0,0,0,3.12-32.23Z" transform="translate(0 1608.88)"/><path class="cls-1" d="M1790.25,622.43a82.27,82.27,0,0,1-6.84,34.66c-12.76,28.44-35.15,43.35-65.9,45.95a80.26,80.26,0,0,1-33.79-4c-27.23-9.64-43.39-29-49.27-57a84.84,84.84,0,0,1,2.4-42.75,80,80,0,0,1,68.7-55.74,75.3,75.3,0,0,1,76,39.63A78.93,78.93,0,0,1,1790.25,622.43Zm-42.59,8v-4.48A135.52,135.52,0,0,0,1741,584a51.11,51.11,0,0,0-12.44-20.44c-10.23-9.75-29-13.11-40.94,3.76a56.85,56.85,0,0,0-8.8,20,134.52,134.52,0,0,0-.52,56.22,89.7,89.7,0,0,0,9.32,27.51,42.06,42.06,0,0,0,13.83,16,25.76,25.76,0,0,0,35.81-6.64c.42-.61.82-1.24,1.18-1.88a52.08,52.08,0,0,0,4.84-11.28,126.82,126.82,0,0,0,4.24-37.15Z" transform="translate(0 1608.88)"/><path class="cls-1" d="M340.74,614.83c1.08,19.59,5.12,37.43,20.71,50.18,14.4,11.76,30.75,12.68,47.63,6.24a105,105,0,0,0,15-8.52c1.4-.84,2.64-2,4.4-3.32l5.2,7.28c-18.31,28-52.46,46.67-89,30.67-20-8.76-32-24.75-37.47-45.58a88,88,0,0,1,47.55-102.73c21.11-9.76,41.58-8.68,60,6.2a52,52,0,0,1,20.47,41.34c0,8.64-2.72,12-11.44,12.64-17,1.4-33.95,2.52-50.94,3.64-9.16.6-18.31.88-27.47,1.36C344.18,614.43,342.9,614.43,340.74,614.83Zm1.92-16.4c1.28.56,1.6.84,2,.84,16-.28,31.71-.48,47.54-1,4.24,0,6-2.28,6-6.63a42.66,42.66,0,0,0-7.76-26.4,20.28,20.28,0,0,0-28-6.32,20.83,20.83,0,0,0-3.31,2.6C347.94,571.2,344.62,584.4,342.66,598.43Z" transform="translate(0 1608.88)"/><path class="cls-1" d="M955.75,475.51v-7.76l59.38-12V663.69A115.34,115.34,0,0,0,1016,676a12.2,12.2,0,0,0,10.55,11.48c4,.79,7.68,1.35,12,2.07V699H954.15V689.6c3.2-.64,6.48-1.23,9.71-2,9.32-2,12.56-5.8,13.2-15.44V499.7a95.7,95.7,0,0,0-.48-11.23A11,11,0,0,0,967.3,478Z" transform="translate(0 1608.88)"/><path class="cls-1" d="M1616.34,659.53c1.24,1.48,2.36,2.72,3.36,4a37.59,37.59,0,0,1,2.52,4c-4.4,4.8-8.56,9.84-13.2,14.36a69.18,69.18,0,0,1-33.47,19.71,67.3,67.3,0,0,1-65.5-20.35,75.59,75.59,0,0,1-12-84.74c12.39-25.43,33.43-40.74,59.7-49.42a64,64,0,0,1,38.63-2.08,65.08,65.08,0,0,1,14.79,6.52,12.55,12.55,0,0,1,6.28,13.87,19.12,19.12,0,0,1-11,14.68,7.28,7.28,0,0,1-8-1.8c-3-2.48-6-5.08-9.15-7.4a54.09,54.09,0,0,0-20-9.8,28,28,0,0,0-30,10.36,47,47,0,0,0-8,14.72,81.55,81.55,0,0,0,0,52.38c6.59,19.27,20,32,40,36a45.83,45.83,0,0,0,34.71-8A99.06,99.06,0,0,0,1616.34,659.53Z" transform="translate(0 1608.88)"/><path class="cls-1" d="M579.86,659.45l6,7.72c-4.56,5-8.71,10-13.35,14.52-9.68,9.35-20.64,17.31-34,20-27.43,5.2-50.91-2.84-68.66-24.59a76,76,0,0,1-2.8-90.25,97.69,97.69,0,0,1,76.66-44,49.56,49.56,0,0,1,28,6.48c12.31,7,12.39,22.11,0,29.55a7.35,7.35,0,0,1-8.92,0c-2.24-1.68-4.32-3.6-6.52-5.32a57.71,57.71,0,0,0-24-12.64,28.46,28.46,0,0,0-28,8.64,39.59,39.59,0,0,0-9.4,16.44,83.94,83.94,0,0,0,0,52c6.56,19.51,19.8,32.51,40.39,36.51a45.8,45.8,0,0,0,34.23-7.56C572.87,664.61,576.11,662.05,579.86,659.45Z" transform="translate(0 1608.88)"/><path class="cls-1" d="M1393.93,698.4v-9.08c3.28-.6,6.56-1.08,9.8-1.8,8-1.75,10.39-4.35,11.71-12.19a44.45,44.45,0,0,0,.72-7.28V583.8a53.27,53.27,0,0,0-.8-7.24,11.16,11.16,0,0,0-9.15-10.08l-9.64-2.28v-8l57.34-12.52v118a108.55,108.55,0,0,0,.56,13.48,13.08,13.08,0,0,0,11.72,12.44l10.23,1.87v8.92C1472.58,699.48,1401.17,699.84,1393.93,698.4Z" transform="translate(0 1608.88)"/><path class="cls-1" d="M1454.39,495.91A21.38,21.38,0,0,1,1433,517.34h-.52a21.71,21.71,0,0,1-1.17-43.41c.59,0,1.18,0,1.77,0a21.24,21.24,0,0,1,21.28,21.18C1454.4,495.39,1454.4,495.65,1454.39,495.91Z" transform="translate(0 1608.88)"/><path class="cls-1" d="M1128.45,528.58l-9-4a33.7,33.7,0,0,1,.8-4c5.39-15.72,11-31.39,16-47.19a8,8,0,0,1,8-6.44c8-.68,16.31-1.56,24.51-2.27,1.64,0,3.72-.2,4,1.83a5.62,5.62,0,0,1-1.12,4q-20.88,28.51-42,56.83A9.4,9.4,0,0,1,1128.45,528.58Z" transform="translate(0 1608.88)"/></svg>