<svg id="Layer_1" data-name="Layer 1" xmlns="http://www.w3.org/2000/svg" viewBox="0 0 1920 469.57"><defs><style>.cls-1{fill:#061498;}</style></defs><path d="M46.87,400a107,107,0,0,1-25.08-8.58A104.89,104.89,0,0,1,0,377.08L15.29,357.8a85.67,85.67,0,0,0,27.44,16.28,94.8,94.8,0,0,0,32.57,5.44q24.74,0,38.22-9.44T127,343.37v-.15q0-11.43-6-18.14A36.82,36.82,0,0,0,105.57,315a163,163,0,0,0-24.52-6.08,4.9,4.9,0,0,0-.92-.21,5.73,5.73,0,0,1-.93-.22l-3.09-.57q-21.47-3.85-34.59-8.36a48.78,48.78,0,0,1-22.37-15.86Q10,272.37,10,251.76v-.15q0-19.29,8.64-32.93T43.8,197.89q16.58-7.15,39.87-7.16a99.23,99.23,0,0,1,21.79,2.45,108.76,108.76,0,0,1,21.29,7.21,127.11,127.11,0,0,1,20.79,12.08l-14.29,19.59a107.71,107.71,0,0,0-25-13.51,71.2,71.2,0,0,0-24.58-4.5q-23.44,0-36.29,9.58t-13,27.15v.13c0,7.54,2.16,13.4,6.5,17.73a40.33,40.33,0,0,0,16.22,9.57A237.92,237.92,0,0,0,84,284.64l1.15.29c.38.08.76.18,1.14.29.57.08,1.12.18,1.65.28l1.64.28a189.47,189.47,0,0,1,32,9.22A50,50,0,0,1,143,311.57q8.57,11.34,8.57,30.8v.27q0,19-9,32.52t-26.07,20.61q-17.07,7.08-41.23,7.07A135.71,135.71,0,0,1,46.87,400Z"/><path d="M190.19,192.91H215V400.67H190.19Zm14.14,0H323.64v23.43H204.33Zm0,92.87H307.92v23.43H204.33Zm0,91.45H323.64v23.44H204.33Z"/><path d="M365.07,192.91h24.87V400.67H365.07Zm14.57,184.32H498.5v23.44H379.64Z"/><path class="cls-1" d="M540.53,359.44,643.23,0h48.45L592.84,355.56H784.36v41.67H540.53ZM704.26,193.12h44.9V469.57h-44.9Z"/><path d="M864.59,380.11A65,65,0,0,1,839.23,353q-9-17.57-9-40.73v-57q0-23.14,9-40.72a65.46,65.46,0,0,1,25.36-27.22q16.35-9.64,37.93-9.65a72.9,72.9,0,0,1,32.86,7.44,68.45,68.45,0,0,1,25.08,21.13,78.62,78.62,0,0,1,13.65,31.73H949a51.61,51.61,0,0,0-10.22-19.08,49.76,49.76,0,0,0-16.58-13,44.79,44.79,0,0,0-19.65-4.57q-14.14,0-24.79,6.71a44.69,44.69,0,0,0-16.49,18.86q-5.87,12.14-5.86,28.29v57q0,16,5.86,28.22a44,44,0,0,0,16.49,18.87q10.63,6.63,24.79,6.64a47.2,47.2,0,0,0,36.22-16.86A50.21,50.21,0,0,0,949,329.39h25.15a78.26,78.26,0,0,1-13.72,31.72,69,69,0,0,1-25.15,21.15,72.6,72.6,0,0,1-32.72,7.43Q880.93,389.69,864.59,380.11Z"/><path d="M1063.55,179.78h24.87L1165,387.55h-27.15L1076,210.66l-61.85,176.89H987ZM1022.26,316.1h109.27v23.44H1022.26Z"/><path d="M1196.44,179.78h24.86V387.55h-24.86Zm19.72,184.33h47q26,0,39.5-12.71t13.51-37.11v-61.2q0-24.43-13.51-37.11t-39.5-12.72h-47V179.78h46.18q25.77,0,43.37,8.44a57.78,57.78,0,0,1,26.65,25.08q9,16.63,9,40.93v58.88q0,24.28-9,40.86a58.07,58.07,0,0,1-26.73,25.11q-17.7,8.51-43.44,8.51h-46Z"/><path d="M1385.61,179.78h24.88V387.55h-24.88Zm14.16,0h119.3v23.44h-119.3Zm0,92.88h103.59V296.1H1399.77Zm0,91.45h119.3v23.44h-119.3Z"/><path d="M1712.69,179.78h24.42V387.55h-24.42v-167l1.7,9.15-56.86,129H1640.1l-56.87-126.17,1.71-12v167h-24.43V179.78H1585l63.92,143.61Z"/><path d="M1854.57,303.1v84.45H1829.7V303.1l-65.44-123.32h27.44l50.44,98.74,50.43-98.74H1920Z"/></svg>