<?xml version="1.0" encoding="UTF-8"?>
<svg id="Ebene_2" data-name="Ebene 2" xmlns="http://www.w3.org/2000/svg" viewBox="0 0 167.42 105.72">
  <defs>
    <style>
      .cls-1 {
        fill: #fff;
      }
    </style>
  </defs>
  <g id="Ebene_1-2" data-name="Ebene 1">
    <g>
      <g>
        <path class="cls-1" d="m26.95,57.6c.49,1.23.74,2.6.74,4.1,0,1.68-.32,3.21-.97,4.58-.65,1.37-1.62,2.54-2.92,3.52-1.3.98-2.88,1.75-4.73,2.31-2.03.6-4.17.89-6.42.89-2.7,0-5.23-.42-7.58-1.26-1.23-.42-2.21-.93-2.95-1.53-.74-.56-1.28-1.21-1.63-1.95l-.21-.47c-.04-.1-.07-.21-.11-.32-.32-1.12-.21-2.19.32-3.21h-.05l.32-.42v-.05l.05-.1c.21-.28.42-.51.63-.68.53-.35,1.17-.49,1.95-.42.67.07,1.58.39,2.74.95.35.14.61.25.79.32,1.82.81,3.65,1.21,5.47,1.21h.32c.81-.03,1.54-.14,2.21-.32.35-.1.7-.24,1.05-.42.63-.32,1.1-.75,1.42-1.31.39-.67.47-1.37.26-2.1-.14-.53-.44-.98-.89-1.37-.46-.39-.88-.66-1.26-.81-.39-.16-.95-.34-1.68-.55l-.42-.16c-.21-.07-.53-.17-.95-.32l-.74-.21c-1.75-.56-3.09-1.02-4-1.37l-.79-.32c-2.31-1.05-4.03-2.35-5.16-3.89-1.02-1.44-1.58-3.14-1.68-5.1-.14-2.56.54-4.84,2.05-6.84v-.05l.68-.84v.1c.35-.39.7-.71,1.05-.97.35-.26.75-.53,1.21-.81h-.05l.89-.42.11-.05c2.21-1.05,4.94-1.58,8.21-1.58,1.68,0,3.23.11,4.63.32.46.1.98.23,1.58.37l.16.05.53.16c.88.28,1.63.6,2.26.95.03.04.12.1.26.21v-.05l.47.37.11.1c.81.67,1.33,1.42,1.58,2.26.21.7.23,1.46.05,2.26-.1.56-.3.98-.58,1.26-.46.53-1.18.75-2.16.68-1.3-.07-3.19-.32-5.68-.74-1.75-.32-3.26-.35-4.52-.11-.98.21-1.72.63-2.21,1.26-.46.6-.61,1.21-.47,1.84.21.77.74,1.33,1.58,1.68.84.35,2.12.82,3.84,1.42,2.56.88,4.45,1.63,5.68,2.26.63.35,1.28.75,1.95,1.21l.32.21.16.1v.05c.42.32.79.61,1.1.89.46.46.88,1,1.26,1.63h.05l.11.21.16.26v.05c.25.39.42.74.53,1.05Z"/>
        <path class="cls-1" d="m56.93,66.17c.6.7.84,1.54.74,2.52-.04.18-.07.33-.11.47h.05l-.21.53-.05.16c-.56,1.4-1.74,2.12-3.52,2.16-3.58.14-6.28.25-8.1.32h-2.58c-2.56,0-4.73-.16-6.52-.47-1.26-.21-2.23-.54-2.89-1-.11-.07-.21-.14-.32-.21-.46-.39-.79-.86-1-1.42l-.05-.05v-.05l-.37-.89.16.05c-.14-.63-.19-1.6-.16-2.89v-1.63c.04-2.1.02-4.08-.05-5.94-.04-3.08-.16-6.19-.37-9.31,0-.18-.02-.51-.05-1-.18-2.66-.09-4.68.26-6.05.77-3.05,2.95-4.72,6.52-5,2.07-.18,5.17-.23,9.31-.16,1.79.04,3.23.05,4.31.05.77,0,1.37.04,1.79.11h.11c.46.07.88.18,1.26.32,1.26.56,2.03,1.53,2.31,2.89.11.56.07,1.18-.1,1.87-.18.68-.46,1.24-.84,1.66-.18.21-.37.39-.58.53-.39.21-1,.33-1.84.37-2.1.04-4.19.04-6.26,0-.25,0-.68-.02-1.31-.05-1.26-.1-2.19-.1-2.79,0-.49.07-.89.19-1.21.37-.42.25-.74.63-.95,1.16-.11.32-.18.63-.21.95-.1,2,.47,3.1,1.74,3.31,1.12.18,2.84.26,5.15.26h1.1c3.09,0,5.01.53,5.79,1.58.25.32.42.74.53,1.26.25,1.47,0,2.65-.74,3.52-.74.84-1.86,1.26-3.37,1.26l-5.26-.05h-3.58c-.6,0-1,.23-1.21.68-.18.42-.21,1.19-.11,2.31v.53c.03.7.12,1.19.26,1.47.28.7.88,1.19,1.79,1.47,1.16.35,2.98.47,5.47.37,2.59-.14,4.52-.02,5.79.37.42.14.81.3,1.16.47l.16.05.53.32h-.05c.17.14.33.3.47.47Z"/>
        <path class="cls-1" d="m86.34,66.59c.35,2.07.09,3.56-.79,4.47-.74.74-1.96,1.1-3.68,1.1h-.79c-4.21-.14-8.4-.18-12.57-.11-2.21.07-3.89-.4-5.05-1.42-.56-.49-.95-1.1-1.16-1.84-.28-.98-.39-2.52-.32-4.63.03-.74.05-1.28.05-1.63l-.05-10.78v-7.63c0-.25-.02-.67-.05-1.26,0-.88,0-1.72-.03-2.52-.02-.81.16-1.6.53-2.37.37-.77.92-1.37,1.66-1.79.67-.35,1.49-.54,2.47-.58h.84v.05c1.02.07,1.86.33,2.52.79,1.12.7,1.7,1.93,1.74,3.68v20.51c0,1.05.12,1.81.37,2.26.21.35.49.63.84.84.35.21.72.34,1.11.39.38.05.8.08,1.24.08s.87-.02,1.29-.05h.74c.35-.03.77-.05,1.26-.05h.79v.05c.6,0,1.19.02,1.79.05l.84.05h.68c1.79.04,2.88.33,3.26.89.21.32.37.79.47,1.42Z"/>
      </g>
      <path class="cls-1" d="m165.16,64.07c.77.21,1.37.65,1.79,1.31.42.67.56,1.42.42,2.26-.18,1.44-1.02,2.61-2.53,3.52-1.96,1.16-4.79,1.74-8.47,1.74-4.77,0-8.61-1.07-11.52-3.21-2.03-1.47-3.73-3.63-5.1-6.47-.53-1.12-.98-2.31-1.37-3.58l-.05-.11-.21-.79.05.05c-.11-.42-.21-.84-.32-1.26v.05l-.16-.84v-.11c-.25-1.65-.32-3.24-.21-4.79.21-2.77.99-5.32,2.34-7.65,1.35-2.33,3.13-4.25,5.34-5.76.18-.1.37-.23.58-.37.95-.6,1.96-1.1,3.05-1.53,2.21-.81,4.56-1.21,7.05-1.21,3.54,0,6.31.56,8.31,1.68.32.21.65.46,1,.74v.05l.11.05.68.58h-.1c.98,1.09,1.44,2.12,1.37,3.1-.04.6-.3,1.14-.79,1.63-.74.74-1.74,1.1-3,1.1h-.26l.05.05-.95-.16h-.05c-.49-.07-1.14-.23-1.95-.47-.28-.07-.51-.12-.68-.16-1.51-.39-3.02-.43-4.52-.13-1.51.3-2.84.9-4,1.81l-.16.1c-.7.6-1.31,1.37-1.84,2.31-.88,1.51-1.39,3.25-1.53,5.23-.14,1.98.11,3.78.74,5.39.53,1.37,1.32,2.58,2.37,3.63,1.05,1.05,2.26,1.86,3.63,2.42,1.37.53,2.98.65,4.84.37.32-.07.82-.16,1.53-.26,1.47-.32,2.61-.49,3.42-.53h.26l-.05-.11.79.21.1.05Z"/>
      <path class="cls-1" d="m107.71,95.96c-.5.56-.84,1.2-1.03,1.92-.19.72-.38,1.45-.56,2.2-.06.5-.22,1.09-.47,1.78-.13.44-.27.84-.42,1.22-.16.38-.3.78-.42,1.22-.13.25-.27.48-.42.7-.16.22-.3.45-.42.7-.06,0-.11-.02-.14-.05-.03-.03-.08-.05-.14-.05.12-.31.22-.63.28-.94.06-.31.16-.63.28-.94-.13.06-.25.11-.38.14-.13.03-.28.08-.47.14.12-.38.22-.74.28-1.08.06-.34.12-.67.19-.98.06-.13.08-.23.05-.33-.03-.09-.05-.2-.05-.33-.19,0-.48.06-.87.19l-.2.19-.2-.09.86-2.25c.13-.25.19-.47.19-.66-.32-.38-.44-.74-.38-1.08.06-.34.16-.7.29-1.08.19-.63.37-1.24.52-1.83.16-.6.3-1.2.43-1.83.06-.13.06-.27,0-.42-.06-.16-.13-.36-.19-.61.25.19.51.34.76.47.06-.13.13-.27.19-.42.06-.16.13-.33.19-.52.19.19.36.38.52.56.16.19.33.41.52.66l.75-.38c-.88-.63-.91-1.22-.09-1.78.12-.12.22-.25.28-.38.38-.5.52-.84.42-1.03s-.42-.34-.98-.47c-.19.13-.31.3-.38.52-.06.22-.11.44-.14.66-.03.22-.11.44-.23.66-.13.22-.34.36-.66.42-.06-.31-.09-.58-.09-.8s.09-.48.28-.8c.19-.31.31-.62.38-.94.06-.31.12-.62.19-.94.12-.31.2-.64.23-.98.03-.34.08-.67.14-.98.12-.38.23-.75.33-1.13s.2-.72.33-1.03c.06-.12.12-.25.19-.38.06-.12.12-.25.19-.38.44.31.5.66.19,1.03-.13.13-.19.27-.19.42s-.03.33-.09.52c-.25.5-.38.94-.38,1.31-.13.56-.13,1.13,0,1.69,0,.13.06.22.19.28.12.06.25.09.38.09.31-.12.47-.28.47-.47.25-.56.42-1.13.52-1.69.09-.56.3-1.09.61-1.59.31-.5.45-1,.42-1.5-.03-.5.08-1,.33-1.5.62-1.56,1.06-2.97,1.31-4.22.25-.75.45-1.52.61-2.3.16-.78.3-1.58.42-2.39.06-.12.12-.25.19-.38.06-.12.16-.25.28-.38.19-.25.34-.5.47-.75.12-.25.16-.56.09-.94-.06-.25-.05-.5.05-.75.09-.25.17-.5.23-.75.12-.56.23-1.11.33-1.64.09-.53.2-1.08.33-1.64.12-.38.19-.66.19-.84.06-.31.16-.72.28-1.22.12-.38.19-.59.19-.66.06-.12.12-.25.19-.38.06-.12.12-.25.19-.38-.13,0-.28-.01-.47-.05-.19-.03-.34-.05-.47-.05s-.25.03-.38.09c-.13.06-.25.09-.38.09,0-.12-.02-.27-.05-.42-.03-.16-.02-.3.05-.42,0-.19.12-.53.38-1.03,0,.81.34,1.16,1.03,1.03,1-.19,1.34-.69,1.03-1.5-.13-.44-.06-.7.19-.8.25-.09.5-.23.75-.42-.13-.25-.27-.47-.42-.66-.16-.19-.33-.44-.52-.75.19-.31.41-.66.66-1.03.25-.38.5-.75.75-1.13.44-.56.31-.97-.38-1.22-.31-.06-.63-.11-.94-.14-.31-.03-.66-.08-1.03-.14.25-.44.41-.87.47-1.31.06-.19.08-.36.05-.52-.03-.16-.05-.33-.05-.52-.25.06-.69.09-1.31.09-.31-.31-.63-.34-.94-.09-.31.25-.66.44-1.03.56-.13-.44-.31-.66-.56-.66s-.53.03-.84.09c-.69.13-1.33.25-1.92.38-.59.13-1.24.25-1.92.38-.25,0-.49.03-.7.09-.22.06-.46.13-.7.19-.88.25-1.75.5-2.63.75-.88.25-1.75.47-2.63.66-1.06.19-2.11.34-3.14.47-1.03.13-2.08.38-3.14.75-.5.19-.97.38-1.41.56-.44.19-.91.34-1.41.47-.19.06-.38.13-.56.19-.19.06-.34.09-.47.09-.5-.12-.94-.12-1.31,0-.38.13-.75.25-1.12.38-.69.31-1.35.59-1.97.84-.63.25-1.28.5-1.97.75-.44.19-.81.06-1.12-.38-.31-.5-.61-.98-.89-1.45-.28-.47-.48-.98-.61-1.55-.12-.69-.03-1.28.28-1.78.44-.56.62-1.09.56-1.59-.06-.5-.02-.91.14-1.22.16-.31.39-.66.7-1.03.75-.81,1.5-1.66,2.25-2.53.75-.87,1.47-1.75,2.16-2.63.62-.81,1.19-1.62,1.69-2.44.5-.81,1-1.62,1.5-2.44.56-.88,1.12-1.72,1.69-2.53.56-.81,1.09-1.66,1.59-2.53.69-1.19,1.33-2.36,1.92-3.52.59-1.16,1.2-2.33,1.83-3.52.31-.5.61-1.03.89-1.59.28-.56.55-1.09.8-1.59.25-.5.45-1.03.61-1.59.16-.56.39-1.09.7-1.59.5-.75.83-1.53.99-2.34.16-.81.39-1.62.7-2.44.62-1.5,1.06-2.97,1.31-4.41.19-.88.33-1.74.42-2.58.09-.84.17-1.7.23-2.58.06-.56.08-1.13.05-1.69-.03-.56-.08-1.13-.14-1.69-.06-.19-.13-.36-.19-.52-.06-.16-.13-.33-.19-.52,0-.12-.03-.3-.09-.52-.06-.22-.03-.36.09-.42.5-.25.91-.34,1.22-.28.5.13.95.3,1.36.52.41.22.86.45,1.36.7.12.06.2.16.23.28.03.13.11.22.23.28.5.25.89.59,1.17,1.03.28.44.58.84.89,1.22.31.5.53,1.16.66,1.97.12.69.2,1.39.23,2.11.03.72.08,1.42.14,2.11,0,.13-.03.23-.09.33-.06.09-.09.2-.09.33-.06.25-.09.48-.09.7s-.03.45-.09.7c0,.31.03.61.09.89.06.28.03.58-.09.89-.31,1.31-.64,2.64-.99,3.99-.34,1.35-.7,2.67-1.08,3.99-.5.31-.77.7-.8,1.17-.03.47-.11.95-.23,1.45-.38,1.63-1.22,2.94-2.53,3.94-.19.13-.33.31-.42.56-.09.25-.2.5-.33.75-.13.31-.28.63-.47.94-.19.31-.34.63-.47.94-.13.25-.25.5-.38.75-.13.25-.25.53-.38.84-.38.56-.69,1.16-.94,1.78-.25.63-.59,1.22-1.03,1.78-.31.38-.61.78-.89,1.22-.28.44-.55.88-.8,1.31-.13.25-.2.52-.23.8-.03.28-.11.55-.24.8-.25.44-.5.75-.75.94-.75.5-1.19,1.06-1.31,1.69-.06.19-.16.36-.28.52-.13.16-.25.33-.38.52-.19.44-.03.66.47.66.31,0,.56-.03.75-.09,1.62-.31,3.22-.61,4.78-.89,1.56-.28,3.13-.61,4.69-.98,1.12-.31,2.28-.52,3.46-.61,1.18-.09,2.32-.2,3.42-.33.67,0,1.1-.41,1.29-1.22.3-1.06.62-2.09.96-3.09.34-1,.66-2.03.96-3.1.43-1.44.84-2.91,1.24-4.41.4-1.5.81-3,1.24-4.5.25-.81.52-1.61.8-2.39.28-.78.52-1.58.7-2.39.25-.94.45-1.88.61-2.81.16-.94.33-1.91.52-2.91.12-.56.22-1.14.28-1.74.06-.59.16-1.2.28-1.83.12-.5.38-.84.75-1.03,1.12-.5,2.19-.5,3.19,0,.38.19.78.36,1.22.52.44.16.88.33,1.31.52.56.31,1.11.61,1.64.89.53.28,1.05.58,1.55.89.56.38.94.86,1.12,1.45.19.6.34,1.2.47,1.83.12.69.05,1.33-.23,1.92-.28.59-.55,1.2-.8,1.83-.31,1.06-.67,2.16-1.08,3.28-.41,1.13-.8,2.22-1.17,3.28-.31.94-.61,1.88-.89,2.81-.28.94-.61,1.85-.99,2.72-.25.5-.49,1.02-.7,1.55-.22.53-.39,1.08-.52,1.64,0,.13-.13.25-.38.38-.06.06-.14.11-.23.14-.09.03-.14.08-.14.14-.06.44-.17.84-.33,1.22-.16.38-.33.75-.52,1.13-.13.19-.19.41-.19.66s-.03.5-.09.75c-.44,1.38.03,2.19,1.41,2.44,1.38.19,2.67.55,3.89,1.08,1.22.53,2.39,1.17,3.52,1.92.44.25.87.58,1.31.98.44.41.62.95.56,1.64l.09.19c.31.5.62,1.02.94,1.55.31.53.62,1.05.94,1.55.06.13.12.23.19.33.06.09.09.2.09.33s-.03.25-.09.38c-.06.13-.13.25-.19.38-.13-.12-.22-.2-.28-.23-.06-.03-.16-.11-.28-.23-.31-.38-.63-.7-.94-.98-.31-.28-.72-.48-1.22-.61-.69-.12-1.31-.34-1.88-.66-.56-.31-1.16-.53-1.78-.66-.69-.12-1.38-.17-2.06-.14-.69.03-1.38.02-2.06-.05h-3.1c-.69.13-1.27.41-1.73.84-.47.44-.77,1-.89,1.69-.06.31-.19.59-.38.84-.19.25-.41.47-.66.66-.31.25-.49.45-.52.61-.03.16.05.42.23.8.12.31.16.53.09.66-.06.19-.14.36-.23.52-.09.16-.17.33-.23.52-.13.69-.38,1.31-.75,1.88-.38.56-.53,1.22-.47,1.97,0,.13-.05.25-.14.38-.09.13-.17.25-.23.38-.13.25-.19.41-.19.47.06.94-.11,1.81-.51,2.63-.4.81-.73,1.66-.97,2.53-.12.5-.25.84-.37,1.03-.37.75-.83,1.41-1.39,1.97-.62.63-.83,1.28-.65,1.97.18.56,0,1.03-.56,1.41-.12.13-.22.28-.28.47s-.12.34-.18.47c-.12.38-.23.74-.32,1.08-.09.34-.2.67-.32.98,0,.13-.03.23-.09.33s-.09.2-.09.33c.12.5.06.97-.19,1.41-.25.44-.52.84-.83,1.22-.19.25-.25.6-.19,1.03.12.31.15.61.09.89s-.15.58-.28.89c-.13.5-.28,1.02-.47,1.55-.19.53-.34,1.05-.47,1.55-.13.38-.23.74-.33,1.08-.09.34-.2.7-.33,1.08-.13.31-.19.66-.19,1.03s-.06.75-.19,1.13c-.06.38-.13.78-.19,1.22-.06.44-.16.84-.28,1.22-.13.44-.31.83-.56,1.17-.25.34-.47.73-.66,1.17-.06.12-.08.28-.05.47.03.19.05.41.05.66Zm-20.35-50.46c-.13.25-.24.48-.33.7-.09.22-.2.42-.33.61-.13.19-.14.36-.05.52.09.16.23.17.42.05.38-.12.69-.34.94-.66.12-.31.11-.56-.05-.75-.16-.19-.36-.34-.61-.47Zm1.5,0c.12-.25.23-.47.33-.66.09-.19.2-.38.33-.56.19-.38.52-.66.98-.84s.64-.56.52-1.13c0-.06.12-.16.38-.28.12-.06.23-.11.33-.14.09-.03.2-.08.33-.14.12-.5.25-.91.38-1.22.19-.56.5-1.05.94-1.45.44-.41.75-.92.94-1.55.12-.38.3-.75.52-1.13.22-.38.45-.72.7-1.03.25-.44.52-.87.8-1.31.28-.44.58-.91.89-1.41-.13-.56.03-1.13.47-1.69.19-.19.33-.41.42-.66.09-.25.2-.5.33-.75.12-.19.23-.39.33-.61.09-.22.17-.48.24-.8.12-.12.17-.3.14-.52-.03-.22-.02-.42.05-.61-.19.13-.36.22-.52.28-.16.06-.3.19-.42.38-.38.63-.74,1.25-1.08,1.88-.34.63-.67,1.28-.99,1.97-.06.13-.13.2-.19.23-.06.03-.09.08-.09.14-.25.31-.47.64-.66.98-.19.34-.38.67-.56.98-.06.13-.11.23-.14.33-.03.09-.11.2-.23.33-.19.31-.39.63-.61.94-.22.31-.39.63-.52.94-.38.63-.74,1.25-1.08,1.88-.34.63-.7,1.25-1.08,1.88-.13.31-.28.56-.47.75s-.34.41-.47.66c-.31.44-.58.84-.8,1.22-.22.38-.48.75-.8,1.13l-.56,1.13.94.47Zm8.63-7.97c-.44-.25-.69-.34-.75-.28-.19.13-.44.34-.75.66.12.06.22.16.28.28.06.13.12.16.19.09.12-.06.47-.31,1.03-.75Zm2.14-3.75l-.92-.47c-.28.25-.56.63-.84,1.13l.37.38c.37-.25.84-.59,1.39-1.03Zm1.14-9.1c-.13-.25-.16-.48-.09-.7.06-.22-.09-.3-.47-.23-.25.06-.47.36-.66.89-.19.53-.22.86-.09.98.31.19.53.22.66.09.19-.19.41-.53.66-1.03Zm.09-1.03c.31-.38.5-.69.56-.94l-.19-.19c-.06,0-.09-.01-.09-.05s-.03-.05-.09-.05-.09-.03-.09-.09c-.31.13-.53.31-.66.56l.56.75Zm7.03,56.55c.25-.38.41-.59.47-.66h.28c0,.38-.03.66-.09.84h-.66v-.19Zm.66-2.16c.06-.31.09-.58.09-.8s.06-.48.19-.8l1.12-3.66c.12-.56.3-1.11.52-1.64.22-.53.39-1.05.52-1.55.12-.56.25-1.13.38-1.69.12-.56.25-1.13.38-1.69.06-.25.22-.56.47-.94.06-.12.12-.23.19-.33.06-.09.12-.2.19-.33.12-.38.23-.75.33-1.13.09-.38.2-.78.33-1.22.06.06.16.09.28.09v.89c0,.28-.03.58-.09.89-.13.5-.3.97-.52,1.41-.22.44-.39.91-.52,1.41-.13.5-.23.97-.33,1.41-.09.44-.2.91-.33,1.41-.13.31-.23.59-.33.84-.09.25-.2.53-.33.84-.31.94-.58,1.89-.8,2.86-.22.97-.48,1.92-.8,2.86-.13.19-.22.36-.28.52-.06.16-.16.33-.28.52-.06-.06-.13-.09-.19-.09s-.13-.03-.19-.09Zm7.97-12.47c-.19-.25-.41-.56-.66-.94-.13.13-.25.25-.38.38-.13.13-.22.25-.28.38-.13.19-.22.41-.28.66-.06.25-.13.5-.19.75-.13.38-.22.75-.28,1.13-.06.38-.13.75-.19,1.13-.06.25-.09.6-.09,1.03.5-.12.81-.28.94-.47.06-.06.09-.16.09-.28v-.38c0-.38.03-.62.09-.75.19-.44.39-.86.61-1.27.22-.41.42-.86.61-1.36Zm.66-24.95c.06-.12.12-.27.19-.42.06-.16.12-.3.19-.42,0-.12-.03-.27-.09-.42-.06-.16-.13-.3-.19-.42-.13.06-.38.16-.75.28-.06.06-.09.13-.09.19s-.03.16-.09.28c-.13.38-.22.77-.28,1.17-.06.41-.16.8-.28,1.17,0,.06.01.13.05.19.03.06.05.13.05.19h.28c.19-.06.44-.31.75-.75.31-.44.41-.78.28-1.03Zm.47,21.01l-.28-.28c-.19,0-.38-.01-.56-.05-.19-.03-.31.02-.38.14-.31.56-.5,1.16-.56,1.78-.06.06-.03.14.09.23.12.09.25.17.38.23.12,0,.28-.09.47-.28,0-.69.25-1.19.75-1.5v-.09l.09-.19Zm.25-26.17c-.06.13-.09.25-.09.38s-.03.25-.09.38c-.12.19-.21.39-.27.61-.06.22-.15.42-.27.61v.38c0,.06.03.13.09.19.24.06.48.03.72-.09.38-.25.56-.61.56-1.08s-.22-.92-.65-1.36Zm1.82,4.31c-.81.25-1.16.88-1.03,1.88.31-.19.59-.38.84-.56.25-.19.53-.38.84-.56.06-.06.09-.19.09-.38.12-.38.19-.69.19-.94.12-.31.12-.56,0-.75-.25-.12-.53-.19-.84-.19-.56.19-.59.69-.09,1.5Zm.19-3.38c0,.06.01.11.05.14.03.03.05.08.05.14.25-.06.56-.22.94-.47.06-.06.03-.38-.09-.94-.25.31-.44.55-.56.7-.13.16-.25.3-.38.42Zm1.59-3.56l-.28.56v1.22c.06-.19.22-.41.47-.66.06-.12.09-.23.09-.33s.06-.2.19-.33l-.47-.47Z"/>
    </g>
  </g>
</svg>