<svg id="Layer_1" data-name="Layer 1" xmlns="http://www.w3.org/2000/svg" viewBox="0 0 1548.72 581"><defs><style>.cls-1,.cls-2{fill:#fff;}.cls-2{stroke:#fff;stroke-miterlimit:10;}</style></defs><path class="cls-1" d="M190.43,443.7a83.9,83.9,0,0,1-19.62-6.7,82.47,82.47,0,0,1-17.05-11.19l12-15.09a67.25,67.25,0,0,0,21.47,12.75,74.39,74.39,0,0,0,25.49,4.25q19.35,0,29.91-7.38t10.57-20.91v-.11q0-9-4.7-14.2a28.82,28.82,0,0,0-12.13-7.89,127.66,127.66,0,0,0-19.18-4.75,4.75,4.75,0,0,0-.72-.17,3.74,3.74,0,0,1-.73-.16l-2.46-.45a189.92,189.92,0,0,1-27.06-6.54,38.2,38.2,0,0,1-17.5-12.41q-7.2-8.89-7.21-25v-.11q0-15.11,6.77-25.78T188,285.61q13-5.6,31.2-5.59a77.29,77.29,0,0,1,17.05,1.9,85.44,85.44,0,0,1,16.66,5.64A100.15,100.15,0,0,1,269.14,297L258,312.33a84.15,84.15,0,0,0-19.56-10.57,55.53,55.53,0,0,0-19.23-3.52q-18.34,0-28.4,7.49T180.7,327v.11q0,8.84,5.09,13.86a31.41,31.41,0,0,0,12.69,7.49,184,184,0,0,0,21,5l.9.23.89.22,1.29.23,1.28.22a148.92,148.92,0,0,1,25,7.21,39.05,39.05,0,0,1,16.77,13q6.7,8.9,6.71,24.1v.22q0,14.86-7.05,25.44t-20.4,16.1q-13.37,5.54-32.26,5.53A106.78,106.78,0,0,1,190.43,443.7Z" transform="translate(-135.69 -130.74)"/><path class="cls-1" d="M302.58,281.69H322V444.26H302.58Zm11.06,0H407V300H313.64Zm0,72.68h81.07v18.34H313.64Zm0,71.56H407v18.33H313.64Z" transform="translate(-135.69 -130.74)"/><path class="cls-1" d="M439.43,281.69h19.45V444.26H439.43Zm11.4,144.24h93v18.33h-93Z" transform="translate(-135.69 -130.74)"/><path class="cls-1" d="M576.73,412l80.36-281.27H695L617.67,409H767.53v32.6H576.73ZM704.86,281.86H740V498.18H704.86Z" transform="translate(-135.69 -130.74)"/><path class="cls-1" d="M830.31,428.18a50.83,50.83,0,0,1-19.85-21.24q-7-13.76-7-31.86V330.46q0-18.1,7-31.86a51.23,51.23,0,0,1,19.85-21.3q12.8-7.55,29.68-7.55a57.24,57.24,0,0,1,25.72,5.81,53.53,53.53,0,0,1,19.62,16.55A61.5,61.5,0,0,1,916,316.93H896.33a40.43,40.43,0,0,0-8-14.92,39.18,39.18,0,0,0-13-10.12A35,35,0,0,0,860,288.31a35.49,35.49,0,0,0-19.39,5.26,34.91,34.91,0,0,0-12.92,14.75q-4.59,9.51-4.58,22.14v44.62a50.48,50.48,0,0,0,4.58,22.08,34.53,34.53,0,0,0,12.92,14.76,35.88,35.88,0,0,0,19.39,5.2,37,37,0,0,0,28.35-13.2,39.49,39.49,0,0,0,8-15.43H916a61.1,61.1,0,0,1-10.73,24.82,53.93,53.93,0,0,1-19.68,16.55A56.86,56.86,0,0,1,860,435.68Q843.12,435.68,830.31,428.18Z" transform="translate(-135.69 -130.74)"/><path class="cls-1" d="M986,271.43h19.46L1065.39,434h-21.25L995.73,295.58,947.32,434H926.07ZM953.69,378.09h85.53v18.34H953.69Z" transform="translate(-135.69 -130.74)"/><path class="cls-1" d="M1090,271.43h19.45V434H1090Zm15.43,144.23h36.78q20.35,0,30.92-10t10.56-29.07V328.79q0-19.12-10.56-29.07t-30.92-10h-36.78V271.43h36.11q20.13,0,33.93,6.59a45.17,45.17,0,0,1,20.86,19.63q7,13,7,32v46.07q0,19-7,32a45.54,45.54,0,0,1-20.91,19.63q-13.86,6.64-34,6.65h-36Z" transform="translate(-135.69 -130.74)"/><path class="cls-1" d="M1238,271.43h19.46V434H1238Zm11.07,0h93.36v18.33h-93.36Zm0,72.67h81.06v18.34h-81.06Zm0,71.56h93.36V434h-93.36Z" transform="translate(-135.69 -130.74)"/><path class="cls-1" d="M1494,271.43h19.12V434H1494V303.29l1.34,7.16-44.5,101h-13.64l-44.5-98.72,1.35-9.4V434h-19.12V271.43H1394l50,112.37Z" transform="translate(-135.69 -130.74)"/><path class="cls-1" d="M1605,367.92V434h-19.45V367.92l-51.21-96.49h21.46l39.47,77.26,39.47-77.26h21.47Z" transform="translate(-135.69 -130.74)"/><path class="cls-1" d="M187,627.05h10l30.9,83.82h-9.23L192,635.75l-26.69,75.12h-9.22ZM170.31,682.8h44.1v7.72h-44.1Z" transform="translate(-135.69 -130.74)"/><path class="cls-1" d="M274.82,627.05h8.3v83.82h-8.3Zm6.05,43.58h26.81a16.48,16.48,0,0,0,8.65-2.25,15.09,15.09,0,0,0,5.79-6.28,20.3,20.3,0,0,0,2.05-9.34,20.65,20.65,0,0,0-2.05-9.43,15.05,15.05,0,0,0-5.79-6.31,16.48,16.48,0,0,0-8.65-2.25H280.87v-7.72h26.41a26.49,26.49,0,0,1,13.2,3.2,22.28,22.28,0,0,1,8.85,9,28,28,0,0,1,3.14,13.49,27.72,27.72,0,0,1-3.14,13.4,22.35,22.35,0,0,1-8.85,9,26.6,26.6,0,0,1-13.2,3.2H280.87Z" transform="translate(-135.69 -130.74)"/><path class="cls-1" d="M381.41,627h8.3v83.88h-8.3Zm5.13,40.7h28.6a16.06,16.06,0,0,0,8.21-2.05,13.87,13.87,0,0,0,5.48-5.79,19.24,19.24,0,0,0,2-8.65,18.55,18.55,0,0,0-1.94-8.64,13.86,13.86,0,0,0-5.47-5.8,16.31,16.31,0,0,0-8.27-2h-28.6V627h28.13a26.25,26.25,0,0,1,12.77,3,21.05,21.05,0,0,1,8.54,8.5,28.28,28.28,0,0,1,0,25.43,21,21,0,0,1-8.56,8.5,26.33,26.33,0,0,1-12.75,3H386.54Zm26.87,5.13,7.66-2.65,21.45,40.7H432.6Z" transform="translate(-135.69 -130.74)"/><path class="cls-1" d="M492.61,627.05h8.3v83.82h-8.3Zm5.71,0h48.14v7.72H498.32Zm0,38.34h41.8v7.72h-41.8Zm0,37.76h48.14v7.72H498.32Z" transform="translate(-135.69 -130.74)"/><path class="cls-1" d="M597.42,627.05h8.35l48.66,75.52-3.4-2.31V627.05h8.3v83.76h-8.47l-49.64-76.09,4.5,3.28v72.81h-8.3Z" transform="translate(-135.69 -130.74)"/><path class="cls-1" d="M714.32,627.05h8.31v83.82h-8.31Zm8,76.1h19q11.64,0,17.44-5.45t5.79-16.4V656.62q0-10.95-5.79-16.4t-17.44-5.45h-19v-7.72H740.9q10.67,0,17.76,3.31a22.35,22.35,0,0,1,10.61,10q3.51,6.68,3.51,16.71v23.76q0,10-3.54,16.69a22.68,22.68,0,0,1-10.64,10q-7.1,3.35-17.76,3.34H722.28Z" transform="translate(-135.69 -130.74)"/><path class="cls-1" d="M824.89,627.05h8.3v83.82h-8.3Zm5.71,0h48.14v7.72H830.6Zm0,38.34h41.8v7.72H830.6Zm0,37.76h48.14v7.72H830.6Z" transform="translate(-135.69 -130.74)"/><path class="cls-1" d="M928,701.42h9.45v9.45H928Z" transform="translate(-135.69 -130.74)"/><path class="cls-1" d="M1066.66,710.87h-8.3V627.05h8.3Z" transform="translate(-135.69 -130.74)"/><path class="cls-1" d="M1123.39,627.05h8.36l48.65,75.52-3.4-2.31V627.05h8.3v83.76h-8.47l-49.64-76.09,4.5,3.28v72.81h-8.3Z" transform="translate(-135.69 -130.74)"/><path class="cls-1" d="M1240.29,627.05h8.36l48.66,75.52-3.4-2.31V627.05h8.3v83.76h-8.47l-49.64-76.09,4.5,3.28v72.81h-8.31Z" transform="translate(-135.69 -130.74)"/><path class="cls-1" d="M1369,708.1a23.94,23.94,0,0,1-10.06-10.55,37.1,37.1,0,0,1-3.46-16.71V657.08a37.1,37.1,0,0,1,3.46-16.71A23.94,23.94,0,0,1,1369,629.82a32.54,32.54,0,0,1,15.94-3.64q9.35,0,15.94,3.64a23.88,23.88,0,0,1,10.06,10.55q3.46,6.92,3.46,16.71v23.76q0,9.79-3.46,16.71a23.88,23.88,0,0,1-10.06,10.55q-6.6,3.64-15.94,3.64A32.54,32.54,0,0,1,1369,708.1Zm27.39-6.77a17.43,17.43,0,0,0,7.23-7.78,28,28,0,0,0,2.48-12.31V656.68a28,28,0,0,0-2.48-12.31,17.43,17.43,0,0,0-7.23-7.78,25.78,25.78,0,0,0-22.89,0,17.51,17.51,0,0,0-7.24,7.78,28,28,0,0,0-2.47,12.31v24.56a28,28,0,0,0,2.47,12.31,17.51,17.51,0,0,0,7.24,7.78,25.78,25.78,0,0,0,22.89,0Z" transform="translate(-135.69 -130.74)"/><path class="cls-1" d="M1459,627.05h8.76l24.16,72.06,24.15-72.06h8.77l-29.06,83.82h-7.72Z" transform="translate(-135.69 -130.74)"/><path class="cls-1" d="M1588.83,627.05h10l30.9,83.82h-9.22l-26.69-75.12-26.69,75.12h-9.23Zm-16.66,55.75h44.1v7.72h-44.1Z" transform="translate(-135.69 -130.74)"/><path class="cls-1" d="M1675,701.42h9.45v9.45H1675Z" transform="translate(-135.69 -130.74)"/><line class="cls-2" y1="415.2" x2="1538.64" y2="415.2"/></svg>