<svg id="Layer_1" data-name="Layer 1" xmlns="http://www.w3.org/2000/svg" viewBox="0 0 1920 720.29"><path d="M67.86,499.45a104.21,104.21,0,0,1-24.33-8.32A102.1,102.1,0,0,1,22.4,477.27l14.83-18.71a83.3,83.3,0,0,0,26.61,15.8,92.05,92.05,0,0,0,31.61,5.27q24,0,37.07-9.15t13.1-25.92v-.14q0-11.09-5.82-17.6a35.7,35.7,0,0,0-15-9.78A158.25,158.25,0,0,0,101,411.15a5.93,5.93,0,0,0-.9-.21,4.76,4.76,0,0,1-.9-.2l-3-.56q-20.79-3.74-33.55-8.1A47.33,47.33,0,0,1,40.9,386.69q-8.94-11-8.94-31v-.14q0-18.7,8.38-31.95t24.48-20.17q16.07-6.93,38.66-6.93a96.69,96.69,0,0,1,21.15,2.35,105.83,105.83,0,0,1,20.64,7,123.53,123.53,0,0,1,20.18,11.71l-13.87,19a104.2,104.2,0,0,0-24.25-13.1,69,69,0,0,0-23.85-4.37q-22.73,0-35.2,9.29T55.8,354.74v.13q0,11,6.3,17.19a39,39,0,0,0,15.74,9.29,228.53,228.53,0,0,0,26.06,6.24l1.11.28,1.11.27,1.59.28,1.6.28a184.81,184.81,0,0,1,31.05,8.94,48.42,48.42,0,0,1,20.78,16.08q8.34,11,8.33,29.87v.28q0,18.44-8.74,31.53t-25.3,20q-16.56,6.86-40,6.86A132.23,132.23,0,0,1,67.86,499.45Z" transform="translate(0 -111.45)"/><path d="M206.89,298.6H231V500.14H206.89Zm13.73,0H336.36v22.73H220.62Zm0,90.1H321.11v22.73H220.62Zm0,88.71H336.36v22.73H220.62Z" transform="translate(0 -111.45)"/><path d="M376.56,298.6h24.11V500.14H376.56ZM390.7,477.41H506v22.73H390.7Z" transform="translate(0 -111.45)"/><path d="M546.77,460.15l99.62-348.7h47L597.52,456.39H783.31v40.42H546.77ZM705.6,298.8h43.56V567H705.6Z" transform="translate(0 -111.45)"/><path d="M861.14,480.21a63,63,0,0,1-24.61-26.34q-8.73-17-8.73-39.5V359.06q0-22.46,8.73-39.5a63.47,63.47,0,0,1,24.61-26.41q15.87-9.36,36.8-9.36A70.87,70.87,0,0,1,929.82,291a66.4,66.4,0,0,1,24.33,20.52,76.42,76.42,0,0,1,13.24,30.77H943a50.13,50.13,0,0,0-9.91-18.5A48.51,48.51,0,0,0,917,311.24a43.44,43.44,0,0,0-19.06-4.43q-13.71,0-24.05,6.51a43.36,43.36,0,0,0-16,18.3q-5.68,11.78-5.68,27.44v55.31q0,15.53,5.68,27.38a42.89,42.89,0,0,0,16,18.3q10.33,6.43,24.05,6.44a45.79,45.79,0,0,0,35.14-16.36A49,49,0,0,0,943,431h24.4a75.88,75.88,0,0,1-13.31,30.78,66.87,66.87,0,0,1-24.39,20.51,70.52,70.52,0,0,1-31.75,7.21Q877,489.5,861.14,480.21Z" transform="translate(0 -111.45)"/><path d="M1054.16,285.88h24.11l74.3,201.54h-26.34l-60-171.6-60,171.6H979.86ZM1014.1,418.11h106v22.74h-106Z" transform="translate(0 -111.45)"/><path d="M1183.08,285.88h24.11V487.42h-24.11Zm19.12,178.81h45.6q25.23,0,38.33-12.34t13.1-36V357q0-23.7-13.1-36T1247.8,308.6h-45.6V285.88H1247q24.93,0,42.06,8.17a56.06,56.06,0,0,1,25.85,24.33q8.73,16.15,8.74,39.71V415.2q0,23.57-8.74,39.65A56.31,56.31,0,0,1,1289,479.17q-17.19,8.25-42.13,8.25H1202.2Z" transform="translate(0 -111.45)"/><path d="M1366.6,285.88h24.12V487.42H1366.6Zm13.72,0h115.75V308.6H1380.32Zm0,90.09h100.49v22.74H1380.32Zm0,88.72h115.75v22.73H1380.32Z" transform="translate(0 -111.45)"/><path d="M1683.9,285.88h23.68V487.42H1683.9v-162l1.65,8.87-55.17,125.17h-16.91L1558.3,337l1.67-11.64v162h-23.71V285.88H1560l62,139.3Z" transform="translate(0 -111.45)"/><path d="M1821.54,405.5v81.92h-24.13V405.5l-63.48-119.62h26.62l48.92,95.78,48.93-95.78H1885Z" transform="translate(0 -111.45)"/><path d="M63.56,726.75H76l38.3,103.92H102.87l-33.1-93.13L36.68,830.67H25.25ZM42.91,795.86H97.58v9.58H42.91Z" transform="translate(0 -111.45)"/><path d="M172.47,726.75h10.3V830.67h-10.3Zm7.51,54h33.24A20.54,20.54,0,0,0,223.94,778a18.85,18.85,0,0,0,7.18-7.79,25.26,25.26,0,0,0,2.54-11.58A25.63,25.63,0,0,0,231.12,747a18.71,18.71,0,0,0-7.18-7.83,20.45,20.45,0,0,0-10.72-2.79H180v-9.58h32.73a33,33,0,0,1,16.37,4,27.62,27.62,0,0,1,11,11.19,34.64,34.64,0,0,1,3.9,16.72,34.23,34.23,0,0,1-3.9,16.61,27.6,27.6,0,0,1-11,11.16,33,33,0,0,1-16.37,4H180Z" transform="translate(0 -111.45)"/><path d="M304.61,726.68h10.3v104h-10.3ZM311,777.14h35.45a20,20,0,0,0,10.18-2.53,17.21,17.21,0,0,0,6.79-7.19,23.82,23.82,0,0,0,2.47-10.72,23,23,0,0,0-2.4-10.72,17.12,17.12,0,0,0-6.79-7.18,20.16,20.16,0,0,0-10.25-2.54H311v-9.58h34.88a32.53,32.53,0,0,1,15.82,3.72,26.06,26.06,0,0,1,10.58,10.54,34.91,34.91,0,0,1,0,31.52A26,26,0,0,1,361.65,783a32.63,32.63,0,0,1-15.79,3.72H311Zm33.31,6.37,9.5-3.3,26.59,50.46h-12.3Z" transform="translate(0 -111.45)"/><path d="M442.48,726.75h10.29V830.67H442.48Zm7.08,0h59.68v9.58H449.56Zm0,47.54h51.82v9.57H449.56Zm0,46.81h59.68v9.57H449.56Z" transform="translate(0 -111.45)"/><path d="M572.41,726.75h10.36l60.33,93.63-4.22-2.86V726.75h10.29V830.6H638.66l-61.54-94.34,5.58,4.07V830.6H572.41Z" transform="translate(0 -111.45)"/><path d="M717.35,726.75h10.29V830.67H717.35Zm9.87,94.35h23.51q14.43,0,21.62-6.76T779.53,794V763.42q0-13.59-7.18-20.33t-21.62-6.76H727.22v-9.58H750.3q13.22,0,22,4.12a27.48,27.48,0,0,1,13.15,12.4q4.37,8.28,4.37,20.72v29.44q0,12.45-4.4,20.7a28,28,0,0,1-13.19,12.39q-8.79,4.15-22,4.15h-23Z" transform="translate(0 -111.45)"/><path d="M854.42,726.75h10.3V830.67h-10.3Zm7.08,0h59.68v9.58H861.5Zm0,47.54h51.82v9.57H861.5Zm0,46.81h59.68v9.57H861.5Z" transform="translate(0 -111.45)"/><path d="M982.22,819h11.72v11.72H982.22Z" transform="translate(0 -111.45)"/><path d="M1154.16,830.67h-10.29V726.75h10.29Z" transform="translate(0 -111.45)"/><path d="M1224.48,726.75h10.36l60.33,93.63-4.22-2.86V726.75h10.29V830.6h-10.51l-61.53-94.34,5.57,4.07V830.6h-10.29Z" transform="translate(0 -111.45)"/><path d="M1369.42,726.75h10.36l60.32,93.63-4.21-2.86V726.75h10.29V830.6h-10.51l-61.54-94.34,5.58,4.07V830.6h-10.29Z" transform="translate(0 -111.45)"/><path d="M1529,827.24a29.75,29.75,0,0,1-12.47-13.07q-4.29-8.58-4.29-20.74V764q0-12.15,4.29-20.72A29.62,29.62,0,0,1,1529,730.19q8.19-4.52,19.77-4.51t19.76,4.51A29.62,29.62,0,0,1,1581,743.27q4.29,8.58,4.29,20.72v29.44q0,12.17-4.29,20.74a29.75,29.75,0,0,1-12.47,13.07q-8.19,4.51-19.76,4.51T1529,827.24Zm34-8.39a21.64,21.64,0,0,0,9-9.65,34.81,34.81,0,0,0,3.06-15.26V763.49a34.81,34.81,0,0,0-3.06-15.26,21.69,21.69,0,0,0-9-9.65,32,32,0,0,0-28.38,0,21.69,21.69,0,0,0-9,9.65,34.81,34.81,0,0,0-3.07,15.26v30.45a34.81,34.81,0,0,0,3.07,15.26,21.64,21.64,0,0,0,9,9.65,32,32,0,0,0,28.38,0Z" transform="translate(0 -111.45)"/><path d="M1640.56,726.75h10.87l30,89.34,29.94-89.34h10.86l-36,103.92h-9.58Z" transform="translate(0 -111.45)"/><path d="M1801.52,726.75H1814l38.31,103.92h-11.44l-33.09-93.13-33.09,93.13H1763.2Zm-20.66,69.11h54.67v9.58h-54.67Z" transform="translate(0 -111.45)"/><path d="M1908.28,819H1920v11.72h-11.72Z" transform="translate(0 -111.45)"/><rect y="510.27" width="1907.51" height="8.92"/></svg>