<svg id="Layer_1" data-name="Layer 1" xmlns="http://www.w3.org/2000/svg" viewBox="0 0 1920 720.28"><defs><style>.cls-1{fill:#061498;}.cls-2{fill:#111;}.cls-3{fill:#c6c6c6;}</style></defs><path d="M67.87,568.24a104.05,104.05,0,0,1-24.33-8.32A102.17,102.17,0,0,1,22.4,546.06l14.83-18.71a83.24,83.24,0,0,0,26.62,15.8,92,92,0,0,0,31.6,5.27q24,0,37.08-9.15t13.1-25.92v-.14q0-11.09-5.82-17.6a35.75,35.75,0,0,0-15-9.77,158,158,0,0,0-23.78-5.9,4.76,4.76,0,0,0-.9-.2,5.93,5.93,0,0,1-.9-.21l-3-.56q-20.81-3.74-33.55-8.11a47.26,47.26,0,0,1-21.7-15.38q-8.92-11-8.93-31v-.14q0-18.71,8.38-31.95t24.46-20.17q16.08-6.93,38.68-6.94a96.08,96.08,0,0,1,21.14,2.37,105.84,105.84,0,0,1,20.65,7,123.53,123.53,0,0,1,20.17,11.72l-13.86,19a104.63,104.63,0,0,0-24.26-13.1,69,69,0,0,0-23.84-4.37q-22.74,0-35.21,9.29T55.8,423.53v.13c0,7.31,2.1,13,6.31,17.2a39.08,39.08,0,0,0,15.73,9.28,229.06,229.06,0,0,0,26.06,6.24l1.11.28c.37.08.74.18,1.11.28.55.08,1.09.18,1.6.27l1.59.28a183,183,0,0,1,31.05,8.94,48.39,48.39,0,0,1,20.79,16.08q8.32,11,8.32,29.87v.27q0,18.45-8.74,31.54t-25.29,20q-16.57,6.87-40,6.86A132.13,132.13,0,0,1,67.87,568.24Z" transform="translate(0 -180.25)"/><path d="M206.9,367.39H231V568.94H206.9Zm13.72,0H336.36v22.73H220.62Zm0,90.1H321.11v22.73H220.62Zm0,88.71H336.36v22.74H220.62Z" transform="translate(0 -180.25)"/><path d="M376.56,367.39h24.12V568.94H376.56ZM390.69,546.2H506v22.74H390.69Z" transform="translate(0 -180.25)"/><path class="cls-1" d="M546.77,528.94,646.4,180.25h47L597.52,525.18H783.31V565.6H546.77ZM705.61,367.6h43.55V635.78H705.61Z" transform="translate(0 -180.25)"/><path d="M861.14,549a63.07,63.07,0,0,1-24.6-26.33q-8.74-17.05-8.74-39.51V427.85q0-22.46,8.74-39.5a63.51,63.51,0,0,1,24.6-26.41q15.87-9.36,36.8-9.36a70.77,70.77,0,0,1,31.88,7.22,66.35,66.35,0,0,1,24.33,20.5,76.32,76.32,0,0,1,13.24,30.78H943a50.11,50.11,0,0,0-9.91-18.51A48.4,48.4,0,0,0,917,380a43.41,43.41,0,0,0-19.06-4.43q-13.73,0-24.05,6.51a43.35,43.35,0,0,0-16,18.3q-5.68,11.77-5.68,27.44v55.31q0,15.52,5.68,27.37a42.79,42.79,0,0,0,16,18.31q10.32,6.43,24.05,6.44a45.79,45.79,0,0,0,35.14-16.36A48.82,48.82,0,0,0,943,499.79h24.4a75.83,75.83,0,0,1-13.31,30.77,66.93,66.93,0,0,1-24.4,20.52,70.45,70.45,0,0,1-31.74,7.21Q877,558.29,861.14,549Z" transform="translate(0 -180.25)"/><path d="M1054.15,354.66h24.13l74.3,201.55h-26.34l-60-171.6-60,171.6H979.86ZM1014.1,486.9h106v22.74h-106Z" transform="translate(0 -180.25)"/><path d="M1183.07,354.66h24.12V556.21h-24.12Zm19.13,178.81h45.61q25.21,0,38.32-12.33t13.1-36V425.77q0-23.7-13.1-36t-38.32-12.34H1202.2V354.66H1247q25,0,42.07,8.18a56.08,56.08,0,0,1,25.86,24.33q8.73,16.14,8.73,39.71V484q0,23.56-8.73,39.64A56.4,56.4,0,0,1,1289,548q-17.17,8.25-42.14,8.25H1202.2Z" transform="translate(0 -180.25)"/><path d="M1366.59,354.66h24.13V556.21h-24.13Zm13.73,0h115.74v22.73H1380.32Zm0,90.1h100.5V467.5h-100.5Zm0,88.71h115.74v22.74H1380.32Z" transform="translate(0 -180.25)"/><path d="M1683.89,354.66h23.69V556.21h-23.69v-162l1.65,8.87-55.16,125.17h-16.91l-55.17-122.4,1.66-11.64v162h-23.7V354.66H1560l62,139.31Z" transform="translate(0 -180.25)"/><path d="M1821.53,474.29v81.92H1797.4V474.29l-63.48-119.63h26.62l48.93,95.78,48.92-95.78H1885Z" transform="translate(0 -180.25)"/><path class="cls-2" d="M63.57,795.54H76l38.3,103.92H102.87L69.78,806.33,36.69,899.46H25.26ZM42.91,864.65H97.58v9.58H42.91Z" transform="translate(0 -180.25)"/><path class="cls-2" d="M172.48,795.54h10.29V899.46H172.48Zm7.51,54h33.24A20.47,20.47,0,0,0,224,846.78a18.73,18.73,0,0,0,7.18-7.79,25.24,25.24,0,0,0,2.53-11.57,25.67,25.67,0,0,0-2.53-11.69,18.69,18.69,0,0,0-7.18-7.82,20.47,20.47,0,0,0-10.72-2.79H180v-9.58h32.73a33,33,0,0,1,16.37,4,27.68,27.68,0,0,1,11,11.19,34.68,34.68,0,0,1,3.9,16.73,34.25,34.25,0,0,1-3.9,16.61,27.73,27.73,0,0,1-11,11.16,33,33,0,0,1-16.37,4H180Z" transform="translate(0 -180.25)"/><path class="cls-2" d="M304.62,795.47h10.29v104H304.62ZM311,845.93h35.46a20,20,0,0,0,10.18-2.54,17.15,17.15,0,0,0,6.79-7.19,23.63,23.63,0,0,0,2.46-10.72,23.09,23.09,0,0,0-2.39-10.72,17.24,17.24,0,0,0-6.79-7.18,20.16,20.16,0,0,0-10.25-2.53H311v-9.58h34.88a32.65,32.65,0,0,1,15.83,3.71,26.15,26.15,0,0,1,10.58,10.55,34.91,34.91,0,0,1,0,31.52,26,26,0,0,1-10.62,10.54,32.71,32.71,0,0,1-15.79,3.72H311Zm33.31,6.36,9.5-3.29,26.59,50.46H368.09Z" transform="translate(0 -180.25)"/><path class="cls-2" d="M442.49,795.54h10.29V899.46H442.49Zm7.07,0h59.69v9.58H449.56Zm0,47.53h51.82v9.58H449.56Zm0,46.81h59.69v9.58H449.56Z" transform="translate(0 -180.25)"/><path class="cls-2" d="M572.41,795.54h10.37l60.32,93.63-4.22-2.86V795.54h10.3V899.39H638.67l-61.54-94.34,5.58,4.07v90.27h-10.3Z" transform="translate(0 -180.25)"/><path class="cls-2" d="M717.36,795.54h10.29V899.46H717.36Zm9.86,94.34h23.52q14.43,0,21.62-6.75t7.18-20.34V832.2q0-13.58-7.18-20.33t-21.62-6.75H727.22v-9.58h23.09q13.22,0,22,4.11a27.6,27.6,0,0,1,13.16,12.4q4.37,8.3,4.36,20.73v29.44q0,12.45-4.4,20.7a28,28,0,0,1-13.19,12.39q-8.78,4.14-22,4.15h-23Z" transform="translate(0 -180.25)"/><path class="cls-2" d="M854.43,795.54h10.29V899.46H854.43Zm7.08,0h59.68v9.58H861.51Zm0,47.53h51.82v9.58H861.51Zm0,46.81h59.68v9.58H861.51Z" transform="translate(0 -180.25)"/><path class="cls-2" d="M982.22,887.74h11.72v11.72H982.22Z" transform="translate(0 -180.25)"/><path class="cls-2" d="M1154.16,899.46h-10.29V795.54h10.29Z" transform="translate(0 -180.25)"/><path class="cls-2" d="M1224.48,795.54h10.37l60.32,93.63-4.22-2.86V795.54h10.3V899.39h-10.51l-61.54-94.34,5.58,4.07v90.27h-10.3Z" transform="translate(0 -180.25)"/><path class="cls-2" d="M1369.42,795.54h10.36l60.33,93.63-4.22-2.86V795.54h10.29V899.39h-10.51l-61.54-94.34,5.58,4.07v90.27h-10.29Z" transform="translate(0 -180.25)"/><path class="cls-2" d="M1529,896A29.61,29.61,0,0,1,1516.5,883q-4.27-8.57-4.28-20.73V832.78q0-12.16,4.28-20.73A29.69,29.69,0,0,1,1529,799q8.18-4.5,19.76-4.5t19.76,4.5A29.72,29.72,0,0,1,1581,812.05q4.29,8.58,4.29,20.73v29.44q0,12.15-4.29,20.73A29.64,29.64,0,0,1,1568.5,896q-8.19,4.51-19.76,4.51T1529,896Zm34-8.39a21.59,21.59,0,0,0,9-9.65,34.6,34.6,0,0,0,3.07-15.26V832.27A34.67,34.67,0,0,0,1571.9,817a21.67,21.67,0,0,0-9-9.64,31.9,31.9,0,0,0-28.38,0,21.59,21.59,0,0,0-9,9.64,34.66,34.66,0,0,0-3.08,15.26v30.45a34.6,34.6,0,0,0,3.08,15.26,21.51,21.51,0,0,0,9,9.65,32,32,0,0,0,28.38,0Z" transform="translate(0 -180.25)"/><path class="cls-2" d="M1640.56,795.54h10.87l30,89.34,29.94-89.34h10.86l-36,103.92h-9.58Z" transform="translate(0 -180.25)"/><path class="cls-2" d="M1801.52,795.54H1814l38.31,103.92h-11.44l-33.09-93.13-33.09,93.13h-11.43Zm-20.66,69.11h54.67v9.58h-54.67Z" transform="translate(0 -180.25)"/><path class="cls-2" d="M1908.28,887.74H1920v11.72h-11.72Z" transform="translate(0 -180.25)"/><rect class="cls-3" y="510.27" width="1907.5" height="8.92"/></svg>