<svg id="Layer_1" data-name="Layer 1" xmlns="http://www.w3.org/2000/svg" viewBox="0 0 1920 1018.84"><defs><style>.cls-1{fill:#061498;}.cls-2{fill:#fff;}.cls-3{fill:#c9c9c9;}.cls-4{fill:#c6c6c6;}</style></defs><path class="cls-1" d="M19.61,566c76.67,230.55,363.8,303.93,621,369.67,325.2,83.11,895.93,229,1153.37-92.42,143-178.5,174.72-482.92,40.66-654.31-76.19-97.41-171-107.17-835.45-144.17C368.51,9.69,239.49,6.54,130.51,115.05,17.45,227.63-30.08,416.62,19.61,566Z" transform="translate(0 -22.99)"/><path class="cls-2" d="M304,484.57a74.48,74.48,0,0,1-17.32-5.92,73.33,73.33,0,0,1-15-9.87l10.56-13.31a59.34,59.34,0,0,0,18.94,11.24,65.6,65.6,0,0,0,22.49,3.75q17.07,0,26.39-6.51t9.32-18.45v-.1q0-7.89-4.14-12.52a25.37,25.37,0,0,0-10.71-7,112.65,112.65,0,0,0-16.91-4.19,3.25,3.25,0,0,0-.65-.15,3.15,3.15,0,0,1-.64-.15l-2.17-.39a168.9,168.9,0,0,1-23.87-5.77,33.62,33.62,0,0,1-15.44-10.95q-6.36-7.85-6.36-22.05v-.1q0-13.32,6-22.74a37.57,37.57,0,0,1,17.42-14.35q11.43-4.93,27.52-4.93a68.87,68.87,0,0,1,15.05,1.67,74.9,74.9,0,0,1,14.69,5,88.07,88.07,0,0,1,14.36,8.33l-9.87,13.52a74.15,74.15,0,0,0-17.26-9.33,49.08,49.08,0,0,0-17-3.1q-16.19,0-25.06,6.61t-8.87,18.74v.1q0,7.79,4.48,12.23a27.9,27.9,0,0,0,11.2,6.61A161.16,161.16,0,0,0,329.68,405l.79.2.78.19,1.14.2,1.13.2a130.83,130.83,0,0,1,22.1,6.36,34.5,34.5,0,0,1,14.79,11.44q5.94,7.84,5.93,21.26v.2q0,13.13-6.22,22.44t-18,14.21q-11.79,4.88-28.46,4.88A94.47,94.47,0,0,1,304,484.57Z" transform="translate(0 -22.99)"/><path class="cls-2" d="M403,341.63h17.17V485.06H403Zm9.77,0H495.1V357.8H412.74Zm0,64.12h71.52v16.18H412.74Zm0,63.13H495.1v16.18H412.74Z" transform="translate(0 -22.99)"/><path class="cls-2" d="M523.72,341.63h17.16V485.06H523.72Zm10.06,127.25h82.07v16.18H533.78Z" transform="translate(0 -22.99)"/><path class="cls-2" d="M644.85,456.6l70.89-248.16h33.45L681,453.92H813.18v28.77H644.85Zm113-114.83h31V532.63h-31Z" transform="translate(0 -22.99)"/><path class="cls-2" d="M868.58,470.88a44.86,44.86,0,0,1-17.52-18.75Q844.85,440,844.85,424V384.66q0-16,6.21-28.12a45.14,45.14,0,0,1,17.52-18.79q11.28-6.66,26.18-6.66a50.37,50.37,0,0,1,22.69,5.13,47.26,47.26,0,0,1,17.32,14.6,54.46,54.46,0,0,1,9.42,21.9H926.82a35.72,35.72,0,0,0-7.05-13.17,34.39,34.39,0,0,0-11.44-8.92,30.91,30.91,0,0,0-13.57-3.16,31.38,31.38,0,0,0-17.11,4.63,30.84,30.84,0,0,0-11.39,13,44.42,44.42,0,0,0-4,19.53V424a44.47,44.47,0,0,0,4,19.48,30.4,30.4,0,0,0,11.39,13,31.62,31.62,0,0,0,17.11,4.59,32.58,32.58,0,0,0,25-11.64,34.82,34.82,0,0,0,7.05-13.62h17.37a54,54,0,0,1-9.47,21.9,47.51,47.51,0,0,1-17.36,14.6,50.23,50.23,0,0,1-22.6,5.13Q879.87,477.48,868.58,470.88Z" transform="translate(0 -22.99)"/><path class="cls-2" d="M1005.94,332.57h17.16L1076,476h-18.74l-42.71-122.12L971.81,476H953.06Zm-28.52,94.11h75.47v16.18H977.42Z" transform="translate(0 -22.99)"/><path class="cls-2" d="M1097.68,332.57h17.16V476h-17.16Zm13.61,127.26h32.46q18,0,27.27-8.78t9.32-25.65V383.18q0-16.87-9.32-25.65t-27.27-8.78h-32.46V332.57h31.87q17.74,0,29.93,5.82a39.89,39.89,0,0,1,18.4,17.31q6.21,11.51,6.22,28.27v40.64q0,16.77-6.22,28.21A40.07,40.07,0,0,1,1173,470.13q-12.22,5.88-30,5.87h-31.77Z" transform="translate(0 -22.99)"/><path class="cls-2" d="M1228.29,332.57h17.16V476h-17.16Zm9.76,0h82.37v16.18h-82.37Zm0,64.12h71.52v16.18h-71.52Zm0,63.14h82.37V476h-82.37Z" transform="translate(0 -22.99)"/><path class="cls-2" d="M1454.09,332.57H1471V476h-16.86V360.69l1.18,6.31L1416,456.08h-12L1364.71,369l1.19-8.28V476H1349V332.57h16.87L1410,431.71Z" transform="translate(0 -22.99)"/><path class="cls-2" d="M1552.05,417.7V476h-17.17V417.7l-45.18-85.13h18.94l34.82,68.17,34.82-68.17h18.94Z" transform="translate(0 -22.99)"/><path class="cls-3" d="M301,646.33h8.85l27.26,73.95h-8.14L305.39,654l-23.55,66.27H273.7Zm-14.7,49.18h38.91v6.82H286.27Z" transform="translate(0 -22.99)"/><path class="cls-3" d="M378.48,646.33h7.32v73.95h-7.32Zm5.34,38.45h23.65a14.58,14.58,0,0,0,7.63-2,13.32,13.32,0,0,0,5.11-5.55A17.85,17.85,0,0,0,422,669a18.17,18.17,0,0,0-1.81-8.32,13.26,13.26,0,0,0-5.11-5.57,14.59,14.59,0,0,0-7.63-2H383.82v-6.81h23.29a23.42,23.42,0,0,1,11.65,2.82,19.69,19.69,0,0,1,7.81,8A24.7,24.7,0,0,1,429.34,669a24.4,24.4,0,0,1-2.77,11.82,19.7,19.7,0,0,1-7.81,7.94,23.42,23.42,0,0,1-11.65,2.82H383.82Z" transform="translate(0 -22.99)"/><path class="cls-3" d="M472.52,646.28h7.32v74h-7.32ZM477,682.19h25.23a14.16,14.16,0,0,0,7.25-1.81,12.16,12.16,0,0,0,4.83-5.11,16.89,16.89,0,0,0,1.76-7.63A16.4,16.4,0,0,0,514.4,660a12.16,12.16,0,0,0-4.83-5.11,14.4,14.4,0,0,0-7.3-1.81H477v-6.81h24.83a23.21,23.21,0,0,1,11.26,2.64,18.59,18.59,0,0,1,7.53,7.51,24.89,24.89,0,0,1,0,22.43,18.45,18.45,0,0,1-7.56,7.5A23.23,23.23,0,0,1,501.87,689H477Zm23.71,4.53,6.76-2.35,18.92,35.91h-8.75Z" transform="translate(0 -22.99)"/><path class="cls-3" d="M570.63,646.33H578v73.95h-7.32Zm5,0h42.47v6.81H575.67Zm0,33.83h36.88V687H575.67Zm0,33.31h42.47v6.81H575.67Z" transform="translate(0 -22.99)"/><path class="cls-3" d="M663.09,646.33h7.38L713.4,713l-3-2V646.33h7.32v73.9h-7.48l-43.79-67.14,4,2.9v64.24h-7.33Z" transform="translate(0 -22.99)"/><path class="cls-3" d="M766.24,646.33h7.33v73.95h-7.33Zm7,67.14H790q10.28,0,15.39-4.81c3.4-3.21,5.11-8,5.11-14.47V672.42q0-9.66-5.11-14.47T790,653.14H773.26v-6.81h16.43q9.4,0,15.67,2.93a19.52,19.52,0,0,1,9.35,8.82q3.12,5.89,3.11,14.75v20.95c0,5.91-1,10.81-3.13,14.73a19.86,19.86,0,0,1-9.38,8.82q-6.25,3-15.67,2.95H773.26Z" transform="translate(0 -22.99)"/><path class="cls-3" d="M863.79,646.33h7.33v73.95h-7.33Zm5,0H911.3v6.81H868.83Zm0,33.83h36.88V687H868.83Zm0,33.31H911.3v6.81H868.83Z" transform="translate(0 -22.99)"/><path class="cls-3" d="M954.74,711.94h8.34v8.34h-8.34Z" transform="translate(0 -22.99)"/><path class="cls-3" d="M1077.1,720.28h-7.32V646.33h7.32Z" transform="translate(0 -22.99)"/><path class="cls-3" d="M1127.15,646.33h7.37L1177.45,713l-3-2V646.33h7.33v73.9h-7.48l-43.8-67.14,4,2.9v64.24h-7.32Z" transform="translate(0 -22.99)"/><path class="cls-3" d="M1230.29,646.33h7.38L1280.6,713l-3-2V646.33h7.32v73.9h-7.48l-43.79-67.14,4,2.9v64.24h-7.33Z" transform="translate(0 -22.99)"/><path class="cls-3" d="M1343.84,717.84a21.06,21.06,0,0,1-8.87-9.3,32.65,32.65,0,0,1-3-14.76V672.83a32.61,32.61,0,0,1,3-14.75,21.14,21.14,0,0,1,8.87-9.31,32.51,32.51,0,0,1,28.13,0,21.21,21.21,0,0,1,8.88,9.31,32.74,32.74,0,0,1,3.05,14.75v20.95a32.78,32.78,0,0,1-3.05,14.76,21.14,21.14,0,0,1-8.88,9.3,32.42,32.42,0,0,1-28.13,0Zm24.17-6a15.46,15.46,0,0,0,6.38-6.87,24.63,24.63,0,0,0,2.18-10.86V672.47a24.63,24.63,0,0,0-2.18-10.86,15.51,15.51,0,0,0-6.38-6.87,22.79,22.79,0,0,0-20.2,0,15.51,15.51,0,0,0-6.38,6.87,24.63,24.63,0,0,0-2.19,10.86v21.67a24.63,24.63,0,0,0,2.19,10.86,15.46,15.46,0,0,0,6.38,6.87,22.79,22.79,0,0,0,20.2,0Z" transform="translate(0 -22.99)"/><path class="cls-3" d="M1423.26,646.33H1431l21.31,63.58,21.31-63.58h7.73l-25.63,73.95h-6.82Z" transform="translate(0 -22.99)"/><path class="cls-3" d="M1537.8,646.33h8.85l27.26,73.95h-8.14L1542.22,654l-23.55,66.27h-8.13Zm-14.7,49.18H1562v6.82H1523.1Z" transform="translate(0 -22.99)"/><path class="cls-3" d="M1613.78,711.94h8.34v8.34h-8.34Z" transform="translate(0 -22.99)"/><rect class="cls-4" x="255.73" y="548.6" width="1357.5" height="6.35"/></svg>