<svg id="Ebene_2" data-name="Ebene 2" xmlns="http://www.w3.org/2000/svg" viewBox="0 0 590.88 1080"><defs><style>.cls-1{fill:#061498;}</style></defs><g id="Ebene_1-2" data-name="Ebene 1-2"><path class="cls-1" d="M267.29,980A51.28,51.28,0,0,0,257,999.62c-2.06,7.21-4.12,14.43-6.18,22.67-1,5.15-2.07,11.34-5.16,18.55-1,4.12-3.09,8.24-4.12,12.37a58.07,58.07,0,0,0-4.12,12.36c-1,2.06-3.09,5.16-4.12,7.22a16.72,16.72,0,0,0-4.13,7.21c-1,0-1,0-1-1l-1-1q1.54-4.64,3.1-9.28l3.09-9.27c-1,1-2.06,1-4.13,1s-3.09,1-5.15,1c1-4.12,2.06-7.21,3.09-11.34,1-3.09,1-7.21,2.06-10.3a3.76,3.76,0,0,0,1-3.09c0-1-1-2.06-1-3.09-2.06,0-5.15,1-9.27,2.06l-2.06,2.06-2.06-1,9.27-22.67a19.19,19.19,0,0,0,2.06-7.22c-3.09-4.12-4.12-7.21-4.12-11.33,1-3.1,2.06-7.22,3.09-11.34,2.06-6.18,4.13-12.37,5.16-18.55a119.88,119.88,0,0,0,4.12-18.55,3.13,3.13,0,0,0,0-4.12c-1-2.06-1-4.12-2.06-6.18,2.06,2.06,5.15,3.09,8.24,5.15,1-1,1-3.09,2.06-4.12,1-2.06,1-3.1,2.06-5.16,2.06,2.06,4.13,4.13,5.16,6.19,2.06,2.06,3.09,4.12,5.15,7.21l8.24-4.12c-9.27-6.18-9.27-12.37-1-18.55a14.22,14.22,0,0,0,3.09-4.12c4.13-5.16,5.16-8.25,4.13-10.31s-4.13-3.09-10.31-5.15c-2.06,1-3.09,3.09-4.12,5.15s-1,4.12-1,7.21-1,4.13-2.06,7.22c-1,2.06-3.09,4.12-7.22,4.12a25.6,25.6,0,0,1-1-8.24c0-2.06,1-5.16,3.09-8.25a36.28,36.28,0,0,0,4.13-9.27c1-3.09,1-6.19,2.06-9.28a30.47,30.47,0,0,0,2.06-10.3c0-3.09,1-7.22,1-10.31,1-4.12,2.06-8.24,3.09-11.33s2.06-7.22,3.09-10.31c1-1,1-2.06,2.06-4.12,1-1,1-2.06,2.06-4.12,4.13,3.09,5.16,7.21,2.07,10.3a7.83,7.83,0,0,0-2.07,4.12,11.24,11.24,0,0,1-1,5.16c-2.06,5.15-4.12,9.27-4.12,13.39a50.05,50.05,0,0,0,0,17.52c0,1,1,2.06,2.06,3.09s2.06,1,4.13,1c3.09-1,5.15-3.09,5.15-5.15,2.06-6.18,4.12-11.33,5.15-17.52a45.63,45.63,0,0,1,6.18-16.49A29,29,0,0,0,288.94,842,41.34,41.34,0,0,1,292,826.49c6.18-16.49,11.33-30.92,13.39-43.28,2.07-8.25,4.13-15.46,6.19-23.71a206.07,206.07,0,0,0,4.12-24.73c1-1,1-2.06,2.06-4.12a14.22,14.22,0,0,0,3.09-4.12c2.06-2.06,3.09-5.16,5.16-8.25,1-2.06,2.06-6.18,1-9.27-1-2.06-1-5.16,1-8.25a19.4,19.4,0,0,0,2.06-8.24c1-6.18,2.06-11.34,3.09-16.49s2.06-11.34,3.09-16.49c1-4.12,2.06-7.21,2.06-8.24a107.14,107.14,0,0,0,3.09-12.37c1-4.12,2.06-6.18,2.06-7.21,1-1,1-2.06,2.07-4.12,1-1,1-2.07,2.06-4.13H337.37c-2.06,0-2.06,0-4.12,1s-2.06,1-4.12,1c0-1,0-3.09-1-4.12,0-2.06,0-3.09,1-4.12,0-2.06,1-5.15,4.12-10.31,0,8.25,3.09,12.37,10.3,10.31,10.31-2.06,13.4-7.21,10.31-15.46-1-4.12-1-7.21,2.06-8.24,2.06-1,5.15-2.06,8.24-4.12-1-2.07-3.09-5.16-4.12-7.22-2.06-2.06-3.09-4.12-5.15-8.24,2.06-3.09,4.12-7.22,7.21-10.31a45.77,45.77,0,0,1,8.25-11.33c4.12-6.19,3.09-10.31-4.12-12.37a28.61,28.61,0,0,0-9.28-1c-3.09,0-7.21-1-10.3-1a71.6,71.6,0,0,0,5.15-13.4,11.2,11.2,0,0,0,1-5.15c0-1-1-3.09-1-5.15-2.06,1-7.22,1-13.4,1-3.09-3.09-6.18-3.09-9.27-1s-7.22,4.12-10.31,6.18c-1-4.12-3.09-7.21-6.18-7.21a22.76,22.76,0,0,0-8.25,1c-7.21,1-13.39,2.06-19.58,4.12s-12.36,2.06-19.58,4.12c-2.06,0-5.15,0-7.21,1s-5.15,1-7.21,2.06a202.26,202.26,0,0,0-26.8,8.25c-8.24,3.09-18.55,5.15-26.79,7.21-11.34,2.06-21.64,3.09-31.95,5.15s-21.64,4.13-31.94,8.25c-5.16,2.06-10.31,4.12-14.43,6.18s-9.28,3.09-14.43,5.15c-2.06,1-4.12,1-6.18,2.06a9.3,9.3,0,0,1-5.16,1,29.3,29.3,0,0,0-13.39,0c-4.12,1-8.25,2.07-11.34,4.13-7.21,3.09-13.4,6.18-20.61,8.24-6.18,2.06-13.4,5.15-20.61,8.25-4.12,2.06-8.24,1-11.34-4.13L6.57,569.89A48.7,48.7,0,0,1,.39,554.43q-1.54-10.83,3.09-18.55c4.12-6.19,6.18-11.34,6.18-16.49a23.22,23.22,0,0,1,1-12.37c2.06-3.09,4.12-7.21,7.22-10.3,8.24-8.25,15.45-17.52,22.67-25.77S56,452.4,63.25,444.16c6.18-8.24,12.37-16.49,17.52-24.73l15.46-24.74c6.18-9.27,11.33-17.51,17.52-25.76s11.33-17.52,16.48-25.76c7.22-12.37,13.4-24.74,19.58-36.07s12.37-23.7,18.55-36.07c3.09-5.15,6.19-10.3,9.28-16.49s6.18-11.33,8.24-16.49,4.12-10.3,6.19-16.49a79.73,79.73,0,0,1,7.21-16.48,79,79,0,0,0,10.3-23.71,226.77,226.77,0,0,1,7.22-24.73c6.18-15.46,11.33-30.91,13.4-45.34a240.92,240.92,0,0,0,4.12-26.8c1-9.27,2.06-17.52,2.06-26.79a100,100,0,0,0,1-17.52c0-6.18-1-11.34-1-17.52-1-2.06-1-4.12-2.06-5.15-1-2.06-1-3.09-2.06-5.15a11.24,11.24,0,0,0-1-5.16c-1-2.06,0-4.12,1-4.12Q240,0,244.62,0c5.16,1,9.28,3.09,14.43,5.15a93.44,93.44,0,0,1,14.43,7.22c1,1,2.06,2.06,2.06,3.09s1,2.06,2.06,3.09c5.15,2.06,9.27,6.18,12.37,10.3l9.27,12.37c3.09,5.15,5.15,12.37,7.21,20.61a152.49,152.49,0,0,1,2.07,21.64c0,7.22,1,14.43,1,21.64a3.8,3.8,0,0,1-1,3.1,3.78,3.78,0,0,0-1,3.09c-1,2.06-1,5.15-1,7.21a20.19,20.19,0,0,1-1,7.22,28.52,28.52,0,0,0,1,9.27c1,3.09,0,6.18-1,9.27-3.09,13.4-6.18,26.8-10.3,41.23-3.09,14.42-7.21,27.82-11.34,41.22-5.15,3.09-8.24,7.21-8.24,12.36s-1,10.31-2.06,15.46c-4.12,16.49-12.37,29.89-25.77,40.19-2.06,1-3.09,3.09-4.12,6.19s-2.06,5.15-3.09,8.24-3.09,6.18-5.15,9.27-3.09,6.19-5.15,9.28c-1,2.06-2.07,5.15-4.13,7.21s-2.06,5.16-4.12,8.25a77.86,77.86,0,0,0-9.27,18.55c-2.06,6.18-6.19,12.36-10.31,18.55l-9.27,12.36a93.86,93.86,0,0,0-8.25,13.4,19.4,19.4,0,0,0-2.06,8.24c0,3.1-1,5.16-2.06,8.25-2.06,4.12-5.15,8.24-8.24,9.27-8.25,5.16-12.37,11.34-13.4,17.52a22.84,22.84,0,0,1-3.09,5.16c-1,2.06-2.06,3.09-4.13,5.15-2.06,4.12,0,7.21,5.16,7.21,3.09,0,6.18,0,8.24-1l49.47-9.27c16.49-3.1,31.94-6.19,48.43-10.31A202.89,202.89,0,0,1,299.24,440c12.37-1,23.7-2.06,35-3.09,7.21,0,11.33-4.13,13.4-12.37A289.94,289.94,0,0,1,358,392.63a289.77,289.77,0,0,0,10.31-31.94c4.12-14.43,8.24-29.89,12.36-45.35S388.9,284.43,393,269a231.94,231.94,0,0,1,8.24-24.73,221.93,221.93,0,0,0,7.22-24.74c2.06-9.27,4.12-19.58,6.18-28.85s3.09-19.58,5.15-29.89c1-6.18,2.06-11.33,3.09-17.52s2.07-12.36,3.1-18.55c1-5.15,4.12-8.24,8.24-10.3,11.34-5.15,22.67-5.15,33,0,4.12,2.06,8.24,4.12,12.36,5.15,4.13,2.06,9.28,3.09,13.4,5.15,6.18,3.1,11.34,6.19,16.49,9.28s11.34,6.18,16.49,9.27a29.57,29.57,0,0,1,11.33,14.43c2.07,6.18,3.1,12.37,5.16,18.55,1,7.22,1,13.4-2.06,19.58a144.72,144.72,0,0,0-8.25,18.55c-3.09,11.34-7.21,22.67-11.33,34s-8.25,22.67-12.37,34c-3.09,9.27-6.18,19.58-9.28,28.85s-6.18,19.58-10.3,27.83c-2.06,5.15-5.15,10.3-7.21,15.45A100.73,100.73,0,0,0,476.49,371c0,1-1,2.06-4.12,4.12-1,1-1,1-2.06,1a1,1,0,0,0-1,1l-3.09,12.36A38.14,38.14,0,0,1,461,400.88a14.78,14.78,0,0,0-2.07,7.21,22.76,22.76,0,0,1-1,8.25c-4.12,14.42,0,22.67,14.43,24.73s27.83,5.15,40.19,11.33c12.37,5.16,24.73,12.37,36.07,19.58,4.12,2.07,9.28,6.19,13.4,10.31s6.18,10.31,6.18,16.49l1,2.06,9.28,15.46,9.27,15.46c1,1,1,2.06,2.06,3.09a3.78,3.78,0,0,1,1,3.09,7.79,7.79,0,0,1-1,4.12l-2.06,4.12c-1-1-2.06-2.06-3.09-2.06s-2.06-1-3.09-2.06a92.9,92.9,0,0,0-9.28-10.3A23.43,23.43,0,0,0,560,525.57a45.14,45.14,0,0,1-19.58-7.21,139.63,139.63,0,0,0-18.55-7.22c-7.22-1-14.43-2.06-21.64-1H446.61a31,31,0,0,0-17.52,8.25c-5.15,4.12-8.25,10.3-9.28,17.52-1,3.09-2.06,6.18-4.12,8.24s-4.12,5.15-7.21,7.22-5.15,5.15-5.15,6.18,1,4.12,2.06,8.24c1,3.09,2.06,5.16,1,7.22s-1,4.12-2.06,5.15c-1,2.06-2.07,3.09-2.07,5.15-1,7.22-4.12,13.4-8.24,19.58s-5.15,12.37-5.15,20.61c0,1-1,2.06-1,4.13s-2.06,2.06-2.06,4.12c-1,2.06-2.06,4.12-2.06,5.15a48.23,48.23,0,0,1-5.16,26.79c-4.12,8.25-7.21,17.52-10.3,25.77-1,5.15-2.06,8.24-4.13,10.3-4.12,8.25-8.24,14.43-14.42,20.61s-8.25,13.4-7.22,20.61c2.06,6.19,0,10.31-6.18,14.43a22.51,22.51,0,0,0-3.09,5.15c-1,2.07-1,3.1-2.06,5.16-1,4.12-2.06,7.21-3.09,11.33-1,3.09-2.06,7.22-3.1,10.31a3.78,3.78,0,0,1-1,3.09,3.78,3.78,0,0,0-1,3.09c1,5.15,1,10.31-2.06,14.43s-5.15,8.24-8.24,12.36c-2.06,2.07-2.06,6.19-2.06,10.31,1,3.09,2.06,6.18,1,9.28l-3.09,9.27c-1,5.15-3.1,10.31-5.16,16.49-2.06,5.15-3.09,11.33-5.15,16.49-1,4.12-2.06,7.21-3.09,11.33-1,3.09-2.06,7.22-3.09,11.34a36.6,36.6,0,0,0-2.06,10.3,43.8,43.8,0,0,1-2.06,11.34c-1,4.12-1,8.24-2.07,12.37l-3.09,12.36a34.85,34.85,0,0,1-6.18,12.37,48.59,48.59,0,0,0-7.21,12.37c-1,1-1,3.09-1,5.15s-1-4.12-1-1ZM58.1,459.62c-1,2.06-2.06,5.15-3.1,7.21L51.91,473a11.2,11.2,0,0,0-1,5.15c0,1,2.06,2.06,4.12,0A13.09,13.09,0,0,0,64.28,471c1-3.09,1-6.18-1-8.24s-3.09-2.06-5.15-3.09Zm15.45,0c1-2.06,2.07-5.15,3.1-7.21l3.09-6.19C81.8,442.1,84.89,439,90,438s6.19-6.19,5.16-11.34c0-1,1-2.06,4.12-3.09a3.78,3.78,0,0,1,3.09-1c1,0,2.06-1,3.09-1,1-5.15,2.06-9.28,4.12-12.37,2.06-6.18,5.16-10.3,9.28-15.46,4.12-4.12,8.24-9.27,9.27-15.45a37.79,37.79,0,0,1,5.16-11.34,37,37,0,0,1,7.21-10.3,93.56,93.56,0,0,1,8.24-13.4c3.1-4.12,6.19-9.28,9.28-14.43-1-6.18,0-11.33,5.15-17.52a16.6,16.6,0,0,0,4.12-7.21c1-3.09,2.06-5.15,3.09-8.25q1.56-3.09,3.1-6.18a19.4,19.4,0,0,0,2.06-8.24,4.55,4.55,0,0,0,1-5.16,13.06,13.06,0,0,1,1-6.18,22.51,22.51,0,0,0-5.15,3.09,8,8,0,0,0-4.13,4.12c-4.12,6.19-7.21,12.37-11.33,19.58-3.09,6.19-7.22,13.4-10.31,20.62-1,1-1,2.06-2.06,2.06a1,1,0,0,0-1,1c-2.06,3.09-5.15,6.18-7.21,10.3a90.74,90.74,0,0,1-6.19,10.31,3.78,3.78,0,0,0-1,3.09c0,1-1,2.06-2.06,3.09L121,356.57c-2.06,3.09-4.12,6.18-5.15,9.27-4.13,6.18-7.22,12.37-11.34,19.58-3.09,6.18-7.21,12.37-11.34,19.58A22.43,22.43,0,0,1,88,413.24c-2.06,2.07-3.09,4.13-5.15,7.22a85.92,85.92,0,0,0-8.24,12.36,45.89,45.89,0,0,1-8.25,11.34l-3.09,10.31,10.3,5.15Zm88.63-82.44c-4.12-2.07-7.21-3.1-8.24-3.1-2.07,1-4.13,3.1-8.25,7.22l3.09,3.09c1,1,1,2.06,2.06,1C152.91,384.39,156,382.33,162.18,377.18Zm21.64-38.13-9.27-5.16c-3.1,2.06-6.19,6.19-8.25,11.34l4.12,4.12c3.1-2.06,8.25-6.18,13.4-10.3Zm12.37-93.78c-1-2.06-2.06-5.15-1-7.22s-1-3.09-5.16-2.06c-2.06,1-5.15,4.13-7.21,9.28s-2.06,9.27-1,10.3c3.09,2.06,5.15,2.06,7.21,1,2.07-3.09,4.13-6.18,7.22-11.33Zm1-11.34a69.85,69.85,0,0,0,6.18-9.27l-2.06-2.06h-2.06c-1,0-1,0-1-1-3.09,1-5.15,3.09-7.21,6.18l6.18,6.18Zm72.14,583.28a25.63,25.63,0,0,1,5.15-7.21h3.09c0,4.12,0,7.21-1,8.24h-7.21v-1Zm6.18-22.67a25.6,25.6,0,0,0,1-8.24c0-2.06,1-5.15,2.06-8.25L290,739.92c1-6.18,3.09-11.33,5.15-16.48A101.66,101.66,0,0,0,300.27,707a107.62,107.62,0,0,1,4.12-17.52,106.63,106.63,0,0,1,4.13-17.52c1-2.06,2.06-6.18,5.15-9.28,1-1,1-2.06,2.06-3.09s1-2.06,2.06-3.09c1-4.12,2.06-8.24,3.09-11.34L324,632.75a3.79,3.79,0,0,0,3.1,1v9.27a28.55,28.55,0,0,1-1,9.28,60.23,60.23,0,0,1-5.16,14.43,59.56,59.56,0,0,0-5.15,14.42c-1,5.16-2.06,10.31-3.09,14.43s-2.06,9.28-3.09,14.43a69,69,0,0,1-3.1,8.24,71.19,71.19,0,0,0-3.09,8.25,253,253,0,0,0-8.24,29.88c-2.06,10.31-5.15,19.58-8.25,29.89a22.51,22.51,0,0,1-3.09,5.15c-1,2.06-2.06,3.09-3.09,5.15-1-1-1-1-2.06-1a3.78,3.78,0,0,1-3.09-1ZM358,666.76c-2.06-2.06-4.12-6.19-7.21-9.28l-4.12,4.12c-2.07,2.06-2.07,2.06-3.1,4.13a50.21,50.21,0,0,0-3.09,7.21c-1,3.09-1,5.15-2.06,8.24-1,4.13-2.06,8.25-3.09,11.34s-1,8.24-2.06,11.34c-1,2.06-1,6.18-1,10.3,5.15-1,8.24-3.09,9.27-5.15a3.78,3.78,0,0,0,1-3.09v-4.13c0-4.12,0-6.18,1-8.24,2.07-4.12,4.13-9.27,6.19-13.4,4.12-4.12,6.18-8.24,8.24-13.39Zm7.22-257.64c1-1,1-3.09,2.06-4.12,1-2.06,1-3.09,2.06-4.12,0-1,0-3.09-1-4.12-1-2.06-1-3.1-2.06-4.13-1,1-4.13,2.07-8.25,3.1-1,1-1,1-1,2.06a3.78,3.78,0,0,1-1,3.09l-3.09,12.36-3.09,12.37c0,1,0,1,1,2.06,0,1,1,1,1,2.06h3.09c2.06-1,4.12-3.09,8.24-8.24s3.1-9.28,2.07-12.37Zm5.15,216.41-3.09-3.09h-6.19c-2.06,0-3.09,0-4.12,1A65.63,65.63,0,0,0,350.77,642c-1,1,0,1,1,2.06a5.36,5.36,0,0,0,4.12,2.07c1,0,3.09-1,5.15-3.1,0-7.21,2.06-12.36,8.25-15.45v-1l1-1Zm2.06-269c-1,1-1,2.06-1,4.12s0,2.06-1,4.12L367.26,371c-1,2.06-2.06,4.13-3.1,6.19v4.12c0,1,0,1,1,2.06,2.06,1,5.15,0,7.21-1,4.12-2.06,6.18-6.18,6.18-11.34a20.34,20.34,0,0,0-6.18-14.42ZM391,400.88c-8.25,2.06-12.37,9.27-10.31,19.58a57.27,57.27,0,0,0,8.25-6.18,56.42,56.42,0,0,1,8.24-6.19c1-1,1-2.06,1-4.12,1-4.12,2.06-7.21,2.06-9.27,1-3.1,1-6.19,0-8.25a19.4,19.4,0,0,0-8.24-2.06C385.81,387.48,385.81,392.63,391,400.88Zm2.06-35c0,1,0,1,1,1l1,1c2.06-1,6.18-2.06,9.28-5.15,1-1,0-4.12-1-9.28a45,45,0,0,1-6.19,7.22c-1,2.06-2.06,4.12-4.12,5.15Zm16.49-37.1-3.09,6.18v12.37a23.78,23.78,0,0,1,5.15-7.21,3.78,3.78,0,0,0,1-3.09c0-1,1-2.07,2.06-3.1l-5.15-5.15Z"/></g></svg>