<svg id="Layer_1" data-name="Layer 1" xmlns="http://www.w3.org/2000/svg" viewBox="0 0 1920 507.56"><defs><style>.cls-1{fill:#0033a0;}</style></defs><path class="cls-1" d="M250,285.92c4.56.54,9.11,1.17,13.67,1.61,35.92,3.46,69.46,14.31,100.13,33.25q88.15,54.41,111,155.74a229.56,229.56,0,0,1,3.77,76c-5.81,52.06-26.31,97.55-61.66,136.08-36.26,39.52-81,64.18-133.76,74-4.08.75-8.19,1.31-12.6,2V731.14c5.88-1.15,11.59-2.17,17.26-3.39,20.69-4.46,40.34-11.5,58-23.49a119.88,119.88,0,0,0,27-25.12c.79-1,1.46-2.13,2.51-3.66H104.7c1.2,1.7,2,2.9,2.85,4C123,699,143,711.94,166.1,720.35A216.53,216.53,0,0,0,205,730.22c1.47.24,2.91.57,4.6.9v33.36c-3.65-.49-7.1-.84-10.51-1.42-85.16-14.45-157-75.23-185.58-156.92A242.36,242.36,0,0,1,.33,538.59c-5.72-109,62.88-206.07,163-239.76a242,242,0,0,1,61.19-12.06,51.09,51.09,0,0,0,5.17-.85ZM134.89,595.61l.78-.31a14,14,0,0,0,.26-1.92c-.05-11.24,3.23-21.63,8.06-31.61,6-12.41,14-23.45,22.93-33.91,8.18-9.63,17.61-18,26.6-26.83q54.67-53.68,109-107.7a74.42,74.42,0,0,0,13.93-19.4,53.86,53.86,0,0,0,6-20.13c1.22-15.52-5-28.23-15.23-39.31a5.61,5.61,0,0,0-1.75-.8c-.18.82-.35,1.33-.41,1.86-1.48,12.91-6.92,24.22-14.68,34.34a267.7,267.7,0,0,1-20.72,24.48c-15.53,15.89-31.57,31.28-47.44,46.83-20.9,20.48-41.91,40.86-62.73,61.42-5.68,5.61-11.1,11.52-16.21,17.65a103.51,103.51,0,0,0-18.32,31.45c-7.7,21.5-5.41,41.8,7.53,60.76C133.21,593.57,134.08,594.57,134.89,595.61ZM238.76,297.13c-.07,1.21-.18,2-.14,2.72.59,9.42-1.67,18.27-5.48,26.79a94.13,94.13,0,0,1-18.57,27c-7.43,7.7-15.11,15.15-22.73,22.67Q151,416.51,110.21,456.72a128.56,128.56,0,0,0-22.62,29.1c-9.6,17.38-13.15,35.72-8.41,55.25,4.21,17.33,13.68,31.69,25.65,44.57a10.71,10.71,0,0,0,2,1.27c-1.19-5.49-2.36-10.47-3.35-15.49-4.39-22.23-.86-43.08,11-62.44a128.33,128.33,0,0,1,19.19-24.11c10.77-10.67,21.69-21.21,32.47-31.89q39.12-38.76,78.13-77.62a64.7,64.7,0,0,0,16-24.68c4.19-12.11,3-23.71-3.51-34.75a66.45,66.45,0,0,0-16-17.71A13.92,13.92,0,0,0,238.76,297.13ZM180.35,663.2l.66-.45c-.28-1.16-.63-2.3-.81-3.47-.83-5.2-2-10.39-2.31-15.63-.92-17.18,3.4-33.29,10.81-48.65,8.11-16.78,19.26-31.4,32.42-44.46,27.71-27.48,55.61-54.76,83.34-82.22,7.79-7.71,15.48-15.56,22.77-23.74a65,65,0,0,0,13.93-25.48c4.53-15.68,2.16-30.83-3.63-45.7a7.54,7.54,0,0,0-1-1.46c-4.13,12.67-12,22.67-20.34,32.31-6.2,7.17-12.61,14.19-19.35,20.84q-51.37,50.67-103,101.07c-10.15,9.93-19,20.81-25.69,33.36-10.1,19-15.62,38.92-12.61,60.6a64.35,64.35,0,0,0,22,41C178.38,661.85,179.4,662.49,180.35,663.2Zm54.3-.11c-.24-2.83-.55-5.23-.62-7.63-.39-12.62,3-24.38,8.3-35.67a149.47,149.47,0,0,1,24.85-37c8.8-9.74,18.12-19,27.47-28.25q38.48-38,77.15-75.75c6.67-6.56,13.06-13.39,17.93-21.47a57.38,57.38,0,0,0,8.65-30.87,78.8,78.8,0,0,0-5.82-28.06,14.5,14.5,0,0,0-1.07-1.86c-2.85,4.92-5.2,10-8.46,14.38-5.8,7.82-11.64,15.73-18.39,22.71-16.56,17.15-33.6,33.84-50.54,50.61-23.5,23.26-47.13,46.38-70.62,69.64-8.89,8.81-16.77,18.46-22.59,29.62-6.64,12.75-9.45,26.17-6.89,40.49,2.63,14.7,9.86,27.1,19.25,38.41C233.4,662.59,233.71,662.64,234.65,663.09Zm53.68.74c1.5-5.1,2.52-9.47,4.09-13.63a105.78,105.78,0,0,1,5.74-12.54,157.56,157.56,0,0,1,26.51-35.33c10.22-10.47,20.83-20.55,31.15-30.93,7.35-7.4,14.86-14.68,21.63-22.59,12.34-14.4,17.13-31.43,15.6-50.24-.39-4.81-1.38-9.57-2.09-14.36-2.68,2.85-4.32,6-6.59,8.58-4.82,5.48-9.78,10.89-15,16-21.07,20.3-42.39,40.36-63.41,60.72-15.64,15.13-26,33.25-28.81,55.1-1.66,12.78.6,24.83,8.18,35.57C286.11,661.3,287.1,662.35,288.33,663.83Z" transform="translate(0 -285.92)"/><path class="cls-1" d="M1920,627.54c-10.19,1-16.24,7-20,16.08-6.67,16-13.67,31.83-20.26,47.85q-14.82,36-29.22,72.26c-2.69,6.78-4.87,13.78-7,20.77-1.08,3.6-2.56,6.73-5.64,9h-7.32l-3.44-1.93c-4.14-2.32-7.51-5.3-8.78-10.13a8.3,8.3,0,0,1,2.49-8.88,30.6,30.6,0,0,1,5.25-3.79c12.85-7.23,19.67-19,24.39-32.33,1.33-3.77.4-7.5-.93-11.11-5.61-15.26-11.12-30.54-16.86-45.74-4.55-12-9.37-24-14.08-35.93-.45-1.14-1-2.23-1.45-3.36-2.74-6.87-7.72-10.95-15.06-12.12a17,17,0,0,1-2-.49,8.22,8.22,0,0,1-1-.46v-5.84c2.9-1,53-1.16,57.09-.14v6.14c-2.13.64-4.22,1.17-6.23,1.91-4.1,1.52-5.16,3.56-4.23,7.88a26.25,26.25,0,0,0,.9,3.11q9.51,27.45,19,54.87c.3.87.73,1.68,1.34,3.08a18.55,18.55,0,0,0,1.57-2.61q9.61-27.18,19.17-54.39a14.84,14.84,0,0,0,.54-2c1-5.43-.5-8.15-5.76-10-2.27-.79-4.63-1.33-7-2v-6.74h4.56q17.68,0,35.37,0c1.47,0,3-.22,4.42-.34Z" transform="translate(0 -285.92)"/><path class="cls-1" d="M1065.39,723.24v7.22H995.17c-.1-1-.23-1.75-.25-2.53,0-1.48,0-2.95,0-4.67,2.34-.4,4.44-.74,6.53-1.13,1.73-.32,3.47-.62,5.16-1.1,4.31-1.24,7.11-4.12,7.68-8.54a112.71,112.71,0,0,0,1-14.57c0-22.23-.14-44.46-.24-66.69q-.07-15.26-.17-30.5a11.47,11.47,0,0,0-1-4.63c-5.6,10.77-10.12,21.86-14.92,32.83-4.89,11.16-9.67,22.38-14.5,33.57s-9.54,22.14-14.33,33.2-9.56,22.08-14.34,33.09h-6.07q-13.17-32.38-26.41-64.92c-8.82-21.62-17.46-43.3-26.65-65.37-1.61,1.85-1.24,3.37-1.31,4.74-.72,13.54-1.49,27.07-2.06,40.6q-1.07,25.59-1.79,51.19a140.81,140.81,0,0,0,.69,14.21c.44,5.9,3.41,9.9,9.3,11.36,2.49.62,5,1,7.55,1.5,1.84.33,3.69.57,5.65.88v7c-3,.82-52.79,1.06-58.78.27V723l4.25-.9c1.45-.31,2.92-.56,4.36-.93,6.57-1.71,10.6-5.91,11.65-12.61,1.25-8,2.57-16.07,3.24-24.15q3.36-40.92,6.21-81.87a88.29,88.29,0,0,0-.48-15c-.51-5.06-3.55-8.43-8.47-9.81-2.6-.73-5.29-1.14-7.94-1.64-1.45-.27-2.92-.43-4.58-.67V568c15.85,0,31.49-.08,47.26,0l51.4,115.33c1.05-2.1,1.73-3.35,2.32-4.65q24.21-53.26,48.33-106.57c1.45-3.22,3.15-4.34,6.66-4.27,12.59.22,25.2.08,37.8.09,1.46,0,2.92.12,4.65.2v7.29c-2.74.39-5.4.74-8,1.17-1.47.24-2.92.6-4.36.95-5.15,1.22-7.79,4.66-8.31,9.77a74,74,0,0,0-.48,8.93q.69,33.12,1.53,66.25.49,19.92,1.22,39.82a83.14,83.14,0,0,0,.87,8.48c.8,5.74,4,9.36,9.74,10.51C1058.15,722,1061.6,722.56,1065.39,723.24Z" transform="translate(0 -285.92)"/><path class="cls-1" d="M1373,508.85c-12.43-4.79-20.81-12.17-22.09-25.77,9.2-3.86,17.44-8.61,24.29-16.19-1.39-.73-2.41-1.3-3.47-1.81a35.05,35.05,0,0,1-19.52-37.63c2.33-14.89,11-24.77,24.41-30.63a53.16,53.16,0,0,1,44.51.13,15.11,15.11,0,0,0,7.83,1.46c9-.87,18.06-1.72,27.09-2.47a27,27,0,0,1,4.63.39c-.5,1.59-1,3.2-1.53,4.77a9.13,9.13,0,0,1-1,1.75c-5.2,8.17-6.63,8.86-16.14,7.9-1.59-.16-3.19-.28-5.24-.46a16.07,16.07,0,0,0,.94,2.48A36,36,0,0,1,1426.33,462c-10.49,6.79-22.17,9.07-34.55,7.91-1.35-.13-2.7-.3-4-.43-4.16-.43-5.9.62-7.81,4.67-1.53,3.25-1,6.47,1.79,8.8a15.93,15.93,0,0,0,5.65,3,29.37,29.37,0,0,0,7.61.92c9.35.07,18.7-.29,28,0a59.74,59.74,0,0,1,14.35,2.33c14.55,4.23,21,15.89,19.44,31-1.31,12.59-7.92,22.35-17.39,30.21-14.7,12.19-31.77,17.61-50.82,16.94-8.78-.31-17.2-2-25-6.18a33.36,33.36,0,0,1-13.78-12.86c-5.44-9.5-4.07-18.38,4.32-25.41,4.77-4,9.94-7.51,14.93-11.24Zm29.4.2c-5.57.48-10.2.53-14.71,1.34a20.11,20.11,0,0,0-12,32.78,27.45,27.45,0,0,0,11.08,8,44.39,44.39,0,0,0,32.52.59,24.8,24.8,0,0,0,13.15-10.37c7.8-12.56,2.51-26.19-11.67-30a12.15,12.15,0,0,0-1.59-.34ZM1379.85,429c0,8.43,1.09,14.63,3.4,20.13a22.78,22.78,0,0,0,6.79,9.47c6.78,5.32,15.67,4.21,20.83-2.65a18.58,18.58,0,0,0,2.63-4.56,52.45,52.45,0,0,0-1.06-40,18.56,18.56,0,0,0-7.32-8.51c-6.52-4-13.78-3-18.53,3a31,31,0,0,0-4.17,7.38A38.14,38.14,0,0,0,1379.85,429Z" transform="translate(0 -285.92)"/><path class="cls-1" d="M620.9,569.42v-6.28l44.41-8.41c.07,1.51.22,3.19.22,4.87q0,69.93,0,139.85a78.39,78.39,0,0,0,.43,8.11c.59,5.54,2.15,7.26,7.67,8.35,3,.6,6.13.91,9.55,1.4v6.43l-44.82,9.4v-14a26.13,26.13,0,0,0-3.1,1.34c-3.7,2.26-7.36,4.58-11,6.87-.8.5-1.64,1-2.43,1.48-8,5.28-16.57,5.87-25.67,3.25-19.85-5.71-34.27-23-37.19-43.46-4.4-30.93,15.43-59,46.15-68,9.59-2.83,19.37-3.83,29.3-1.91,1,.2,2.11.26,3.39.42a8.34,8.34,0,0,0,.55-2c-.05-12.06,0-24.12-.28-36.17-.17-6.68-2.65-9.13-9.2-10.31C626.35,570.14,623.81,569.84,620.9,569.42ZM638.41,675V644.09a2.67,2.67,0,0,1,0-.4,9.32,9.32,0,0,0-2.27-6.73c-6.71-8.89-20.7-14-33-3.84A34.61,34.61,0,0,0,592.35,650,73.14,73.14,0,0,0,590,684.07c1.39,8.42,4.54,16.13,10.42,22.52,9.46,10.29,22.42,12.38,34.67,5.81a5.65,5.65,0,0,0,3.37-5.76C638.33,696.08,638.41,685.52,638.41,675Z" transform="translate(0 -285.92)"/><path class="cls-1" d="M586.1,505v-7.37c1.82-.28,3.65-.53,5.47-.86,3.06-.55,6.16-1,9.14-1.79a10.65,10.65,0,0,0,8-8.86,46,46,0,0,0,.88-7.65c.12-8.4.1-16.8.1-25.21q0-48.78,0-97.56v-4.89c-.69-.42-.92-.69-1.13-.68-9.06.24-18.13.3-27.16.83-6.62.4-11.54,4-14.2,10-2.28,5.18-3.91,10.64-5.78,16-.49,1.4-.78,2.86-1.23,4.53h-8c.91-14.15,1.81-28.12,2.72-42.26h138c.82,13.79,1.63,27.4,2.47,41.57l-7.4.77c-.45-1.44-.82-2.7-1.24-3.93-1.85-5.37-3.47-10.83-5.64-16.06-2.73-6.55-8-9.94-15-10.89-9-1.23-18.07-.63-27.44-.77-.13,1.46-.34,2.62-.34,3.79q0,61.58,0,123.17a55.67,55.67,0,0,0,.91,9.27,10.45,10.45,0,0,0,8,8.76,90.47,90.47,0,0,0,9.14,1.77c2,.33,4,.5,6.26.77V505Z" transform="translate(0 -285.92)"/><path class="cls-1" d="M946.4,498.16v6.3c-3,1-53.06,1.16-57.31.17v-6.48c2.71-.5,5.23-.91,7.73-1.42,6.07-1.24,8.07-3.32,8.84-9.38a59.22,59.22,0,0,0,.47-7.29q.06-27.45,0-54.89c0-2.7-.31-5.4-.57-8.1-.39-4.1-2.66-6.69-6.61-7.81-2.07-.59-4.15-1.16-6.52-1.82v-5.55l40.49-9.49c1.17,2.38.32,5.37.46,8.24s0,5.92,0,9.55c1.42-.76,2.35-1.15,3.15-1.7,5.26-3.59,10.42-7.33,15.75-10.81a31.21,31.21,0,0,1,14.31-5.37c14.23-1.29,25,5.25,30.43,15.82,3.66,7.17,4.92,14.85,4.92,22.81,0,16.53,0,33.07,0,49.6,0,2.84.32,5.68.59,8.5.43,4.35,3,6.82,7.16,7.7,2.24.47,4.49.87,7,1.37V505H961.64v-6.84c1.4-.28,2.83-.54,4.24-.85,5.58-1.23,7.59-3.28,8.45-8.93a45.18,45.18,0,0,0,.37-6.48c0-16.13.11-32.26-.06-48.39A42.26,42.26,0,0,0,973,422.33c-2.84-9.69-10.57-13.52-19.63-12.71-7.14.63-13,4.29-18.61,8.48-1.45,1.09-1.28,2.57-1.29,4q0,9.75,0,19.51c0,13.29,0,26.57,0,39.85a66.12,66.12,0,0,0,.36,7.71c.51,4.18,2.71,7,7.06,7.79C942.57,497.31,944.27,497.71,946.4,498.16Z" transform="translate(0 -285.92)"/><path class="cls-1" d="M1324.73,723.7v6.7H1269.4c-.11-2-.22-4.08-.35-6.56,1.63-.37,3-.72,4.42-1,5.7-1.1,7.72-3,8.61-8.66a54.65,54.65,0,0,0,.62-8.08q.08-23,0-45.94a50.08,50.08,0,0,0-.79-8.47c-2.41-13.68-12.27-18.62-24.34-15.91-5.65,1.26-10.49,4.34-14.94,8a6.06,6.06,0,0,0-1.48,3.08,11.1,11.1,0,0,0-.06,2.83c0,18,0,36.05,0,54.07a102.91,102.91,0,0,0,.6,10.53c.56,5.24,2.63,7.39,7.77,8.49,1.57.33,3.15.61,4.82.94v6.79h-57.25c-.13-1.07-.3-2.1-.36-3.13s0-2.14,0-3.55c1.9-.36,3.58-.73,5.27-1,9.31-1.38,11.72-3.71,11.8-13.18.19-21.13.06-42.27,0-63.4a31.84,31.84,0,0,0-.21-3.24c-.44-4.21-2.59-7-6.71-8.23-2.2-.63-4.41-1.2-6.75-1.84v-5.48l40.85-9.52V635c2,.81,2.86-.57,3.9-1.26,5.73-3.84,11.36-7.85,17.17-11.58,6.83-4.4,14.43-5.34,22.27-3.89,10.38,1.92,17.55,8,21.74,17.66,3,6.82,3.92,14.05,3.93,21.42,0,16.53,0,33.06,0,49.6a66.83,66.83,0,0,0,.67,8.47c.48,3.64,2.77,5.79,6.25,6.65C1319.42,722.65,1321.94,723.11,1324.73,723.7Z" transform="translate(0 -285.92)"/><path class="cls-1" d="M1087.3,508.1c-19.29-.1-33.71-5-45-17.15-11.75-12.68-16-28-14.52-45a57,57,0,0,1,5.14-20c9.77-20.28,26.09-31.64,48.32-33.49,22.76-1.89,40.82,6.94,52.63,26.82s9.87,48.9-4.31,67.2C1118.17,501.26,1102.72,507.87,1087.3,508.1Zm23.48-52.77c-.44-5.93-.66-11.89-1.38-17.79a63.22,63.22,0,0,0-6.4-22.1,29,29,0,0,0-8.73-10.53c-8.71-6.22-19.3-4.87-26.12,3.32a37.23,37.23,0,0,0-6.88,13.69c-3.37,11.65-3.3,23.53-2,35.43,1,9.33,3.16,18.39,7.61,26.77a31.87,31.87,0,0,0,9.51,11.45c9.5,6.77,21.89,4.2,27.64-5.92a43.35,43.35,0,0,0,3.89-9.75C1110.08,471.89,1110.54,463.63,1110.78,455.33Z" transform="translate(0 -285.92)"/><path class="cls-1" d="M1188.26,673.27c0,13.43-2.64,24.94-9.35,35.23-9.56,14.65-23.34,22.58-40.57,24.73A58.52,58.52,0,0,1,1110,730c-21.37-8.12-32.73-24.14-35.27-46.5a57.79,57.79,0,0,1,4.38-30.26c9.76-22,27-33.89,50.78-35.36,21.11-1.29,38,7.06,49.73,25A52.85,52.85,0,0,1,1188.26,673.27Zm-30.73,5.42c-.22-3.3-.4-8.45-1-13.55a71.55,71.55,0,0,0-5.59-21.93,31.85,31.85,0,0,0-8.49-11.74c-9.26-7.69-20.91-6.39-28.18,3.15a39.21,39.21,0,0,0-6.68,14.67c-3.38,13.66-2.91,27.38-.39,41.09,1.5,8.17,4,16,8.69,23a26.75,26.75,0,0,0,9.25,8.94c9.06,5,19.78,2.4,25.2-6.41a38.8,38.8,0,0,0,3.89-8.87C1157,698.42,1157.31,689.48,1157.53,678.69Z" transform="translate(0 -285.92)"/><path class="cls-1" d="M1333.82,449.47c-.17,15.13-4.34,29.42-15.29,41.12-10,10.67-22.47,16.28-37,17.31-11.13.79-22-.66-32-5.87-18.37-9.58-27.86-25.13-29.47-45.55a59.15,59.15,0,0,1,5.58-31.25c9.57-19.43,25.43-30.26,46.76-32.66,17.85-2,33.54,3.27,46.11,16.36C1329.22,420,1333.89,433.59,1333.82,449.47Zm-30.9,5.88c0-1.62.07-3.25,0-4.87-.52-10.44-1.58-20.78-5.49-30.61a35.81,35.81,0,0,0-8.25-12.9c-7.38-7.1-21.08-9.76-29.88,2.87a41.62,41.62,0,0,0-6.16,14c-3,11.87-2.86,23.86-1.23,35.89a73.16,73.16,0,0,0,6.94,23.64,33.76,33.76,0,0,0,8.91,11.44c9.71,7.72,22.87,5.28,28.81-5.56a46.53,46.53,0,0,0,4-10.58C1302.55,471.08,1302.85,463.21,1302.92,455.35Z" transform="translate(0 -285.92)"/><path class="cls-1" d="M1754.15,449.56a59.57,59.57,0,0,1-5,25.09c-9.22,20.59-25.43,31.38-47.68,33.25a58.15,58.15,0,0,1-24.44-2.92c-19.72-7-31.43-21-35.68-41.28a61.53,61.53,0,0,1,1.75-30.93,57.84,57.84,0,0,1,49.72-40.31c25.84-2.49,45.78,11,54.86,28.65A57.59,57.59,0,0,1,1754.15,449.56Zm-30.82,5.68c0-1.08,0-2.16,0-3.24-.32-10.32-1.33-20.53-4.83-30.34-2-5.54-4.69-10.64-9-14.76-7.39-7.08-21-9.52-29.62,2.69a41.42,41.42,0,0,0-6.37,14.39c-3.3,13.52-2.82,27.11-.38,40.69a64.7,64.7,0,0,0,6.74,19.9c2.5,4.57,5.59,8.64,10,11.51,9.4,6.06,21.09,3.44,26.76-6.16a38.92,38.92,0,0,0,3.5-8.18C1722.79,473.12,1723.24,464.2,1723.33,455.24Z" transform="translate(0 -285.92)"/><path class="cls-1" d="M1496.25,702l3.74,5.34c-.63,1-1.12,1.92-1.76,2.74a66.46,66.46,0,0,1-23,19c-21,10.49-49.51,2.5-61.63-19.43a60.28,60.28,0,0,1-7.09-35.73c2-21.09,12.39-37.22,30.14-48.59a45.33,45.33,0,0,1,25.72-7.61c17.95.35,34.14,13.56,37.84,31.16a44.65,44.65,0,0,1,.83,8.87c0,4.67-2.08,7-6.69,7.69-2.8.43-5.65.65-8.49.83-14.86.94-29.73,1.83-44.6,2.75-2.69.17-5.37.4-8.65.64.32,3.22.31,6.2,1,9,1.09,4.72,2.09,9.58,4.05,14,7.81,17.59,25.46,24.88,43.55,18.23a46.53,46.53,0,0,0,7.65-3.71C1491.29,705.72,1493.51,703.92,1496.25,702ZM1434,658.78c12.56-.37,24.29-.66,36-1.12,2.88-.12,4-1.45,4.11-4.52.19-7.06-1.29-13.73-5.59-19.49-5.81-7.79-15.42-8.92-22.68-2.44C1437.92,638.29,1435.33,647.8,1434,658.78Z" transform="translate(0 -285.92)"/><path class="cls-1" d="M1727.68,669.67c.18,10.88,2.32,20.66,8.3,29.3,9.34,13.52,26,18.06,41.86,11.16,4.54-2,8.64-4.92,13.38-7.68l3.65,4.86c-.68,1-1.19,2-1.84,2.79-8.24,10.49-18.31,18.48-31.34,22.06-18.33,5-44.24-2-55.24-26.54-12.38-27.63-4.4-67.39,32.27-84,25.81-11.71,49,3.5,55.45,24.13a42.53,42.53,0,0,1,1.8,11.16c.19,5.72-2.24,8.22-7.92,8.67q-18,1.4-36,2.59c-6.35.42-12.71.65-19.06,1C1731.33,669.24,1729.73,669.46,1727.68,669.67Zm1.11-11.13c2.86,0,5.26.05,7.66,0,9-.23,18.11-.46,27.16-.77,4.13-.14,5.32-1.38,5.37-5.41.09-6.81-1.52-13.16-5.6-18.69-5.69-7.69-15.14-8.92-22.39-2.7C1732.77,638,1730.25,647.71,1728.79,658.54Z" transform="translate(0 -285.92)"/><path class="cls-1" d="M705.23,444.16c.77,14.17,3.71,27.07,15,36.3,10.41,8.52,22.26,9.19,34.46,4.54,3.85-1.48,7.3-4.05,10.89-6.19a36.23,36.23,0,0,0,3.18-2.38l3.76,5.26c-13.26,20.18-38,33.77-64.45,22.2-14.56-6.35-23.08-17.92-27.11-33-8-29.91,6.56-61.51,34.42-74.35,15.28-7,30.07-6.27,43.47,4.51,9.43,7.59,14.64,17.61,14.82,29.92.09,6.26-2,8.63-8.28,9.14-12.28,1-24.57,1.83-36.86,2.63-6.61.43-13.25.64-19.87,1C707.71,443.77,706.8,444,705.23,444.16Zm1.39-11.86c.92.4,1.16.61,1.4.61,11.48-.21,23-.35,34.43-.73,3-.1,4.32-1.66,4.35-4.8.06-6.91-1.44-13.45-5.6-19.11-5.82-7.92-15.21-9.13-22.63-2.68C710.52,412.58,708,422.15,706.62,432.3Z" transform="translate(0 -285.92)"/><path class="cls-1" d="M720.94,669.61c.4,11.39,2.57,21.57,9.12,30.4,9.46,12.73,25.76,16.78,41.19,10.12,3.44-1.49,6.56-3.75,9.79-5.7,1-.62,1.94-1.42,3.26-2.39l4.13,5.57c-2.42,2.84-4.64,5.71-7.13,8.33-7.33,7.7-16,13.44-26.29,16.24-18.37,5-44.16-2.16-55.25-26.58-9.38-20.66-7.72-53,16.35-73.79,7.61-6.58,16.06-11.43,26-13.46,23.2-4.73,46.25,13.34,47.12,37,0,.54,0,1.08,0,1.62-.11,5.82-2.16,8.19-8,8.6-17.15,1.21-34.3,2.3-51.46,3.44Zm1.32-11.34c1.64.11,2.82.25,4,.25,3.51,0,7,0,10.54-.06q10.14-.29,20.26-.7c3.45-.14,5.07-1.2,5.19-3.89.38-8.55-1.49-16.46-7.77-22.68A14.24,14.24,0,0,0,737.26,629a22.86,22.86,0,0,0-8.51,8.48A44.62,44.62,0,0,0,723,652.93C722.7,654.6,722.54,656.3,722.26,658.27Z" transform="translate(0 -285.92)"/><path class="cls-1" d="M1150.16,343.33v-5.6l42.95-8.68v4.78q0,72.8,0,145.59a83.18,83.18,0,0,0,.62,8.91c.49,4.6,3.14,7.38,7.63,8.32,2.76.59,5.57,1,8.68,1.52V505h-61v-6.83c2.35-.47,4.71-.89,7.05-1.4,6.75-1.49,9.09-4.22,9.54-11.18.14-2.16.16-4.34.16-6.5q0-59.18,0-118.35a73.41,73.41,0,0,0-.34-8.12c-.44-4-2.58-6.77-6.73-7.6C1156,344.47,1153.23,343.94,1150.16,343.33Z" transform="translate(0 -285.92)"/><path class="cls-1" d="M1343,631.52H1330.6a19.18,19.18,0,0,1-2.84-.06c-1.72-.26-2.57-1.85-1.54-3.26a61.42,61.42,0,0,1,5.72-6.85c.62-.64,2-.7,3-.74,2.42-.1,4.86,0,7.59,0,.15-1.28.37-2.3.39-3.33,0-3,0-6,0-9,.13-7.34-1.12-5.13,5-9.93,5.53-4.36,11.13-8.64,16.74-12.91a6,6,0,0,1,2.81-1.37c1.76-.13,2.63,1.18,2.64,3.7q0,13.83,0,27.65v4.83c1.58.12,2.87.29,4.17.29,6.09,0,12.19,0,18.29,0,4,0,5.22,1.21,5.16,4.91s-2,6-5.47,6c-6.09,0-12.19,0-18.29,0-1.06,0-2.12.14-3.52.23-.12,1.28-.33,2.44-.33,3.61,0,19.79-.09,39.58.07,59.36a46.76,46.76,0,0,0,1.65,12c2.21,7.93,7.36,11.21,15.56,10.33a59.78,59.78,0,0,0,7.51-1.69c1-.25,2-.57,3.38-1l2,6.63a6.4,6.4,0,0,1-1.12,1c-6.83,3.29-13.59,6.72-20.52,9.78-7.9,3.49-15.73,2.12-23.12-1.59s-10.49-10.33-11.81-18a61,61,0,0,1-.8-10.11c-.07-21.68,0-43.37,0-65.06Z" transform="translate(0 -285.92)"/><path class="cls-1" d="M1509.41,730.43v-6.62c1.42-.31,2.7-.6,4-.86s2.65-.49,4-.76c4.53-.91,7.13-3.67,7.7-8.25a59.45,59.45,0,0,0,.64-7.28q.07-28.87,0-57.74a58.86,58.86,0,0,0-.63-6.87,8,8,0,0,0-5.92-7c-2.44-.81-4.94-1.39-7.62-2.13V627.6l41-9.46c.83,4.09.27,8.39.37,12.65s0,8.28,0,12.41l.89.27c.79-1.15,1.63-2.28,2.37-3.47,3.63-5.75,7.55-11.27,12.64-15.84,3.78-3.39,7.86-6.27,13.23-6.42,6.68-.18,12,2.3,15,8.41s1.49,12-2.76,17c-1.77,2.07-4.42,3.48-6.88,4.82-2.3,1.25-4.65.83-6.81-.87a33.35,33.35,0,0,0-5.77-3.75c-4.42-2.17-8.87-1.78-12.57,1.4-5.58,4.8-9.55,10.47-9.42,18.45.24,15.18,0,30.36.15,45.54.07,10.15,2.68,12.92,12.75,14.07l7.43.86v6.78Z" transform="translate(0 -285.92)"/><path class="cls-1" d="M1651.5,618v25.16l.79.24c.67-.91,1.33-1.84,2-2.73,3.86-5.05,7.52-10.28,11.67-15.07a32.21,32.21,0,0,1,7.68-5.91,15.41,15.41,0,0,1,12.57-1.35A14.38,14.38,0,0,1,1697,632.81c-.27,7.21-5.69,14.17-12.17,15.6a6.37,6.37,0,0,1-5.7-1.33,32.08,32.08,0,0,0-5-3.42c-4.78-2.54-9.58-2.29-13.63,1.31-5.37,4.78-9.25,10.35-9.11,18.19.25,14.5.06,29,.08,43.51a50.18,50.18,0,0,0,.28,6.49c.7,5.27,2.9,7.65,8.11,8.8,2.24.5,4.54.69,6.82,1l5,.7v6.75h-63.64v-6.71c1.64-.3,3.32-.64,5-.9,7.7-1.15,10.28-3.84,11-11.62.16-1.75.16-3.52.16-5.28q0-28.06,0-56.12a64.4,64.4,0,0,0-.66-8.07,7.77,7.77,0,0,0-5.78-6.67c-2.43-.8-4.93-1.39-7.67-2.15v-5.29Z" transform="translate(0 -285.92)"/><path class="cls-1" d="M1628.28,476.52c.9,1.06,1.71,1.94,2.44,2.89.56.73,1,1.54,1.84,2.79-3.19,3.49-6.2,7.13-9.57,10.39-6.9,6.68-14.71,12.32-24.21,14.26-18.32,3.74-34.46-1.14-47.4-14.72-15.24-16-18.61-40.84-8.61-61.33,9-18.38,24.18-29.46,43.19-35.75,9.15-3,18.53-4.22,28-1.51a46.94,46.94,0,0,1,10.69,4.71,9.13,9.13,0,0,1,4.56,10.06,13.77,13.77,0,0,1-8,10.61c-2,.94-4,.05-5.63-1.3-2.21-1.8-4.35-3.68-6.63-5.37a38.92,38.92,0,0,0-14.49-7.06c-8.81-2-16.19.5-21.71,7.48a34.62,34.62,0,0,0-5.7,10.64c-4,12.58-4.25,25.39.06,37.92,4.8,13.95,14.33,23.2,29.08,26,9,1.73,17.46-.62,25.1-5.69C1623.63,480,1625.86,478.28,1628.28,476.52Z" transform="translate(0 -285.92)"/><path class="cls-1" d="M878.13,476.45l4.35,5.58c-3.28,3.59-6.29,7.24-9.66,10.5-7,6.78-14.92,12.54-24.59,14.38-19.86,3.76-36.83-2.05-49.69-17.8-14.87-18.2-15.77-45-2-65.3C809.72,404.34,828.64,394,852,392.14a35.55,35.55,0,0,1,20.33,4.69c8.93,5,9,16,.14,21.38-2.19,1.33-4.35,1.46-6.44-.11-1.62-1.21-3.13-2.58-4.72-3.85-5.22-4.18-10.78-7.7-17.46-9.14-8-1.72-14.7.44-20.32,6.26a28.86,28.86,0,0,0-6.82,11.89c-3.78,12.5-4.15,25.16,0,37.58C821.47,475,831,484.37,846,487.26c8.87,1.72,17.21-.55,24.77-5.46C873.2,480.19,875.53,478.33,878.13,476.45Z" transform="translate(0 -285.92)"/><path class="cls-1" d="M1467.35,504.75v-6.56c2.37-.43,4.75-.78,7.08-1.3,5.73-1.27,7.54-3.16,8.49-8.85a33,33,0,0,0,.53-5.24q.06-30.49,0-61a42.62,42.62,0,0,0-.58-5.24c-.52-3.95-2.81-6.33-6.63-7.28-2.23-.56-4.47-1.07-7-1.66v-5.88l41.48-9.06v4.82q0,40.25,0,80.5c0,3.25.08,6.51.4,9.74.52,5.08,3.42,8.09,8.46,9l7.42,1.35v6.39C1524.28,505.42,1472.58,505.67,1467.35,504.75Z" transform="translate(0 -285.92)"/><path class="cls-1" d="M1511.09,358.11a15.46,15.46,0,0,1-15.82,15.5,15.71,15.71,0,1,1,.44-31.41C1504.48,342.25,1511.15,349.14,1511.09,358.11Z" transform="translate(0 -285.92)"/><path class="cls-1" d="M1275.25,381.75l-6.49-2.86a24.47,24.47,0,0,1,.59-2.85c3.89-11.38,7.92-22.71,11.62-34.14,1-3.08,2.62-4.42,5.67-4.67,5.92-.48,11.82-1.12,17.74-1.65,1.2-.1,2.7-.14,3,1.35a4.17,4.17,0,0,1-.8,2.89q-15.11,20.6-30.35,41.1A8.58,8.58,0,0,1,1275.25,381.75Z" transform="translate(0 -285.92)"/></svg>